<mxfile host="Electron" agent="Mozilla/5.0 (Windows NT 10.0; Win64; x64) AppleWebKit/537.36 (KHTML, like Gecko) draw.io/24.7.5 Chrome/126.0.6478.183 Electron/31.3.0 Safari/537.36" version="24.7.5">
  <diagram name="Страница — 1" id="OxOCBZZh-tYeO1LRG4tj">
    <mxGraphModel dx="1621" dy="1688" grid="1" gridSize="10" guides="1" tooltips="1" connect="1" arrows="1" fold="1" page="1" pageScale="1" pageWidth="827" pageHeight="1169" math="0" shadow="0">
      <root>
        <mxCell id="0" />
        <mxCell id="1" parent="0" />
        <mxCell id="Bt5aDinGUWlxkMjQN304-140" value="" style="rounded=0;whiteSpace=wrap;html=1;dashed=1;dashPattern=1 4;fillColor=#e1d5e7;strokeColor=#9673a6;" parent="1" vertex="1">
          <mxGeometry x="-50" y="-660" width="2480" height="1950" as="geometry" />
        </mxCell>
        <mxCell id="Bt5aDinGUWlxkMjQN304-89" value="" style="rounded=0;whiteSpace=wrap;html=1;fillColor=#b1ddf0;strokeColor=#10739e;strokeWidth=2;" parent="1" vertex="1">
          <mxGeometry x="30" y="-265" width="1920" height="1505" as="geometry" />
        </mxCell>
        <mxCell id="Bt5aDinGUWlxkMjQN304-127" value="" style="group" parent="1" vertex="1" connectable="0">
          <mxGeometry x="1827" y="881" width="534" height="244" as="geometry" />
        </mxCell>
        <mxCell id="Bt5aDinGUWlxkMjQN304-130" value="" style="group" parent="Bt5aDinGUWlxkMjQN304-127" vertex="1" connectable="0">
          <mxGeometry x="20" y="-40" width="514" height="244" as="geometry" />
        </mxCell>
        <mxCell id="Bt5aDinGUWlxkMjQN304-131" value="" style="rounded=1;whiteSpace=wrap;html=1;arcSize=5;fillColor=#fff2cc;strokeColor=#d6b656;" parent="Bt5aDinGUWlxkMjQN304-130" vertex="1">
          <mxGeometry width="514" height="244" as="geometry" />
        </mxCell>
        <mxCell id="Bt5aDinGUWlxkMjQN304-132" value="&lt;span style=&quot;background-color: rgb(255, 255, 204);&quot;&gt;TurboPay&lt;/span&gt;" style="text;html=1;align=center;verticalAlign=middle;whiteSpace=wrap;rounded=1;shadow=0;fontSize=23;fontStyle=1" parent="Bt5aDinGUWlxkMjQN304-130" vertex="1">
          <mxGeometry width="150" height="49" as="geometry" />
        </mxCell>
        <mxCell id="Bt5aDinGUWlxkMjQN304-128" value="" style="rounded=1;whiteSpace=wrap;html=1;arcSize=5;fillColor=#fff2cc;strokeColor=#d6b656;" parent="Bt5aDinGUWlxkMjQN304-127" vertex="1">
          <mxGeometry width="514" height="244" as="geometry" />
        </mxCell>
        <mxCell id="Bt5aDinGUWlxkMjQN304-129" value="&lt;span style=&quot;background-color: rgb(255, 229, 153);&quot;&gt;FastMoney&lt;/span&gt;" style="text;html=1;align=center;verticalAlign=middle;whiteSpace=wrap;rounded=1;shadow=0;fontSize=23;fontStyle=1" parent="Bt5aDinGUWlxkMjQN304-127" vertex="1">
          <mxGeometry width="150" height="49" as="geometry" />
        </mxCell>
        <mxCell id="Bt5aDinGUWlxkMjQN304-37" value="" style="rounded=0;whiteSpace=wrap;html=1;dashed=1;dashPattern=12 12;" parent="1" vertex="1">
          <mxGeometry x="2196" y="195" width="130" height="115" as="geometry" />
        </mxCell>
        <mxCell id="Bt5aDinGUWlxkMjQN304-1" value="&lt;span style=&quot;background-color: rgb(255, 255, 255);&quot;&gt;Специалист&amp;nbsp;&lt;/span&gt;&lt;div&gt;&lt;span style=&quot;background-color: rgb(255, 255, 255);&quot;&gt;поддержки&lt;/span&gt;&lt;/div&gt;" style="shape=umlActor;verticalLabelPosition=bottom;verticalAlign=top;html=1;outlineConnect=0;" parent="1" vertex="1">
          <mxGeometry x="90" y="193" width="19" height="35" as="geometry" />
        </mxCell>
        <mxCell id="Bt5aDinGUWlxkMjQN304-10" value="&lt;span style=&quot;background-color: rgb(255, 255, 255);&quot;&gt;Администратор&lt;/span&gt;" style="shape=umlActor;verticalLabelPosition=bottom;verticalAlign=top;html=1;outlineConnect=0;" parent="1" vertex="1">
          <mxGeometry x="90" y="454" width="19" height="40" as="geometry" />
        </mxCell>
        <mxCell id="Bt5aDinGUWlxkMjQN304-16" value="&lt;div style=&quot;forced-color-adjust: none; color: rgb(0, 0, 0); font-family: Helvetica; font-size: 12px; font-style: normal; font-variant-ligatures: normal; font-variant-caps: normal; font-weight: 400; letter-spacing: normal; orphans: 2; text-indent: 0px; text-transform: none; widows: 2; word-spacing: 0px; -webkit-text-stroke-width: 0px; white-space: normal; background-color: rgb(251, 251, 251); text-decoration-thickness: initial; text-decoration-style: initial; text-decoration-color: initial; text-align: center;&quot;&gt;&lt;span style=&quot;forced-color-adjust: none; background-color: initial;&quot;&gt;&lt;b style=&quot;forced-color-adjust: none;&quot;&gt;SupportRequest&lt;/b&gt;&lt;/span&gt;&lt;/div&gt;" style="rounded=1;whiteSpace=wrap;html=1;strokeColor=#FF0000;strokeWidth=3;verticalAlign=top;fillColor=#E6E6E6;" parent="1" vertex="1">
          <mxGeometry x="862.5" y="-70" width="180" height="120" as="geometry" />
        </mxCell>
        <mxCell id="Bt5aDinGUWlxkMjQN304-19" value="&lt;div style=&quot;&quot;&gt;&lt;b&gt;Auction&lt;/b&gt;&lt;/div&gt;&lt;div style=&quot;&quot;&gt;&lt;b&gt;&lt;br&gt;&lt;/b&gt;&lt;/div&gt;&lt;div style=&quot;&quot;&gt;&lt;b&gt;&lt;br&gt;&lt;/b&gt;&lt;/div&gt;" style="rounded=1;whiteSpace=wrap;html=1;align=center;verticalAlign=top;strokeColor=#CC0000;strokeWidth=3;fillColor=#E6E6E6;" parent="1" vertex="1">
          <mxGeometry x="867.5" y="534" width="192.5" height="210" as="geometry" />
        </mxCell>
        <mxCell id="Bt5aDinGUWlxkMjQN304-21" value="&lt;div style=&quot;&quot;&gt;&lt;b style=&quot;background-color: initial;&quot;&gt;Order&lt;/b&gt;&lt;/div&gt;" style="rounded=1;whiteSpace=wrap;html=1;verticalAlign=top;strokeColor=#CC0000;strokeWidth=3;fillColor=#E6E6E6;" parent="1" vertex="1">
          <mxGeometry x="862.5" y="90" width="200" height="190" as="geometry" />
        </mxCell>
        <mxCell id="Bt5aDinGUWlxkMjQN304-23" value="&lt;b&gt;Service&lt;/b&gt;" style="rounded=1;whiteSpace=wrap;html=1;verticalAlign=top;strokeColor=#CC0000;strokeWidth=3;fillColor=#E6E6E6;" parent="1" vertex="1">
          <mxGeometry x="862.5" y="320" width="197.5" height="140" as="geometry" />
        </mxCell>
        <mxCell id="Bt5aDinGUWlxkMjQN304-25" value="&lt;span style=&quot;white-space-collapse: preserve;&quot; data-src-align=&quot;0:14&quot; class=&quot;EzKURWReUAB5oZgtQNkl&quot;&gt;&lt;b&gt;Reports&lt;/b&gt;&lt;/span&gt;" style="rounded=1;whiteSpace=wrap;html=1;verticalAlign=top;strokeColor=#CC0000;strokeWidth=3;fillColor=#E6E6E6;" parent="1" vertex="1">
          <mxGeometry x="660" y="396" width="150" height="117" as="geometry" />
        </mxCell>
        <mxCell id="Bt5aDinGUWlxkMjQN304-26" value="&lt;b&gt;Client&lt;/b&gt;&lt;div&gt;&lt;b&gt;&lt;br&gt;&lt;/b&gt;&lt;div&gt;&lt;div style=&quot;text-align: left;&quot;&gt;&lt;br&gt;&lt;/div&gt;&lt;/div&gt;&lt;/div&gt;" style="rounded=1;whiteSpace=wrap;html=1;verticalAlign=top;strokeColor=#FF3333;strokeWidth=3;fillColor=#E6E6E6;" parent="1" vertex="1">
          <mxGeometry x="860" y="-240" width="190" height="132.5" as="geometry" />
        </mxCell>
        <mxCell id="Bt5aDinGUWlxkMjQN304-28" value="&lt;span style=&quot;white-space-collapse: preserve;&quot; data-src-align=&quot;0:6&quot; class=&quot;EzKURWReUAB5oZgtQNkl&quot;&gt;&lt;b&gt;AppealApplication&lt;/b&gt;&lt;/span&gt;" style="rounded=1;whiteSpace=wrap;html=1;verticalAlign=top;strokeColor=#CC0000;strokeWidth=3;fillColor=#E6E6E6;" parent="1" vertex="1">
          <mxGeometry x="872.5" y="770" width="199.5" height="150" as="geometry" />
        </mxCell>
        <mxCell id="Bt5aDinGUWlxkMjQN304-29" value="&lt;b&gt;&lt;span style=&quot;white-space-collapse: preserve;&quot; data-src-align=&quot;0:9&quot; class=&quot;EzKURWReUAB5oZgtQNkl&quot;&gt;PaymentT&lt;/span&gt;&lt;span style=&quot;white-space-collapse: preserve;&quot; data-src-align=&quot;10:8&quot; class=&quot;EzKURWReUAB5oZgtQNkl&quot;&gt;ransaction&lt;/span&gt;&lt;/b&gt;" style="rounded=1;whiteSpace=wrap;html=1;verticalAlign=top;strokeColor=#FF0000;strokeWidth=3;fillColor=#E6E6E6;" parent="1" vertex="1">
          <mxGeometry x="869" y="964.5" width="187" height="195.5" as="geometry" />
        </mxCell>
        <mxCell id="Bt5aDinGUWlxkMjQN304-30" value="Клиент" style="shape=umlActor;verticalLabelPosition=bottom;verticalAlign=top;html=1;outlineConnect=0;" parent="1" vertex="1">
          <mxGeometry x="2286" y="210" width="30" height="60" as="geometry" />
        </mxCell>
        <mxCell id="Bt5aDinGUWlxkMjQN304-34" value="&lt;span style=&quot;white-space-collapse: preserve;&quot; data-src-align=&quot;0:11&quot; class=&quot;EzKURWReUAB5oZgtQNkl&quot;&gt;&lt;b&gt;Authorizations&lt;/b&gt;&lt;/span&gt;" style="rounded=1;whiteSpace=wrap;html=1;rotation=90;strokeColor=#CC0000;strokeWidth=3;fillColor=#E6E6E6;" parent="1" vertex="1">
          <mxGeometry x="83.5" y="333.5" width="500" height="47" as="geometry" />
        </mxCell>
        <mxCell id="Bt5aDinGUWlxkMjQN304-35" value="&lt;div style=&quot;&quot;&gt;&lt;span style=&quot;background-color: initial;&quot;&gt;&lt;b&gt;BFF Client&lt;/b&gt;&lt;/span&gt;&lt;/div&gt;&lt;div style=&quot;&quot;&gt;&lt;b&gt;&lt;br&gt;&lt;/b&gt;&lt;div style=&quot;text-align: left;&quot;&gt;&lt;br&gt;&lt;/div&gt;&lt;div style=&quot;text-align: left;&quot;&gt;&lt;span style=&quot;background-color: initial;&quot;&gt;&lt;br&gt;&lt;/span&gt;&lt;/div&gt;&lt;div style=&quot;text-align: left;&quot;&gt;&lt;br&gt;&lt;/div&gt;&lt;div style=&quot;text-align: left;&quot;&gt;&lt;br&gt;&lt;/div&gt;&lt;div style=&quot;text-align: left;&quot;&gt;&lt;br&gt;&lt;/div&gt;&lt;/div&gt;" style="rounded=1;whiteSpace=wrap;html=1;strokeColor=#FF0000;strokeWidth=3;verticalAlign=top;fillColor=#E6E6E6;" parent="1" vertex="1">
          <mxGeometry x="1199.57" y="-125" width="200.43" height="925" as="geometry" />
        </mxCell>
        <mxCell id="Bt5aDinGUWlxkMjQN304-36" value="Браузер" style="rounded=0;whiteSpace=wrap;html=1;" parent="1" vertex="1">
          <mxGeometry x="2206" y="210" width="60" height="80" as="geometry" />
        </mxCell>
        <mxCell id="Bt5aDinGUWlxkMjQN304-38" value="&lt;b&gt;&lt;font color=&quot;#ff0000&quot;&gt;&amp;nbsp;Поток 1&amp;nbsp;&lt;/font&gt;&lt;/b&gt;" style="endArrow=classic;startArrow=classic;html=1;rounded=0;entryX=1;entryY=0.25;entryDx=0;entryDy=0;strokeColor=#FF0000;strokeWidth=3;exitX=0;exitY=0.5;exitDx=0;exitDy=0;" parent="1" source="DXrkzp5svh5QhC7ay0Ss-2" target="Xtlks4UdEk3piKS54iS9-1" edge="1">
          <mxGeometry x="-0.2534" width="50" height="50" relative="1" as="geometry">
            <mxPoint x="1212.5" y="-90" as="sourcePoint" />
            <mxPoint x="1022.5" y="10" as="targetPoint" />
            <Array as="points">
              <mxPoint x="1180" y="-60" />
              <mxPoint x="1180" y="-185" />
            </Array>
            <mxPoint as="offset" />
          </mxGeometry>
        </mxCell>
        <mxCell id="Bt5aDinGUWlxkMjQN304-39" value="&lt;div style=&quot;&quot;&gt;&lt;b&gt;Поток 1&lt;/b&gt;&lt;/div&gt;&lt;div style=&quot;&quot;&gt;&lt;div&gt;&lt;span style=&quot;background-color: initial;&quot;&gt;RegClient&lt;/span&gt;&lt;br&gt;&lt;span style=&quot;background-color: initial;&quot;&gt;GetClient&lt;/span&gt;&lt;br&gt;&lt;span style=&quot;background-color: initial;&quot;&gt;SaveClient&lt;/span&gt;&lt;br&gt;&lt;/div&gt;&lt;div&gt;SetRoles&lt;/div&gt;&lt;div&gt;&lt;font color=&quot;#330000&quot;&gt;&lt;br&gt;&lt;/font&gt;&lt;/div&gt;&lt;div&gt;&lt;font color=&quot;#330000&quot;&gt;&lt;b&gt;Поток 2&lt;/b&gt;&lt;/font&gt;&lt;/div&gt;&lt;div&gt;&lt;font color=&quot;#330000&quot;&gt;&lt;span style=&quot;background-color: initial;&quot;&gt;GetClient&lt;/span&gt;&lt;br style=&quot;&quot;&gt;&lt;span style=&quot;background-color: initial;&quot;&gt;SaveClient&lt;/span&gt;&lt;br style=&quot;&quot;&gt;&lt;span style=&quot;background-color: initial;&quot;&gt;SetRoles&lt;/span&gt;&lt;br style=&quot;&quot;&gt;&lt;span style=&quot;background-color: initial;&quot;&gt;GetClients&lt;/span&gt;&lt;/font&gt;&lt;br&gt;&lt;/div&gt;&lt;/div&gt;&lt;span style=&quot;background-color: initial;&quot;&gt;&lt;div style=&quot;&quot;&gt;&lt;br&gt;&lt;/div&gt;&lt;div style=&quot;&quot;&gt;&lt;span style=&quot;text-align: center; background-color: initial;&quot;&gt;&lt;div style=&quot;text-align: left;&quot;&gt;&lt;b style=&quot;font-size: 11px; text-align: center; text-wrap: nowrap;&quot;&gt;Поток 5,6&lt;/b&gt;&lt;span style=&quot;background-color: initial;&quot;&gt;&lt;br&gt;&lt;/span&gt;&lt;/div&gt;&lt;div style=&quot;text-align: left;&quot;&gt;&lt;div&gt;&lt;span style=&quot;background-color: initial;&quot;&gt;Create&lt;/span&gt;&lt;span style=&quot;background-color: initial;&quot;&gt;SupportRequest&lt;/span&gt;&lt;/div&gt;&lt;span style=&quot;text-align: center; background-color: initial;&quot;&gt;&lt;div style=&quot;text-align: left;&quot;&gt;&lt;span style=&quot;background-color: initial;&quot;&gt;Save&lt;/span&gt;&lt;span style=&quot;background-color: initial;&quot;&gt;SupportRequest&lt;/span&gt;&lt;/div&gt;&lt;/span&gt;&lt;span style=&quot;text-align: center; background-color: initial;&quot;&gt;&lt;div style=&quot;text-align: left;&quot;&gt;&lt;span style=&quot;background-color: initial;&quot;&gt;ChangeStarusRequest&lt;/span&gt;&lt;/div&gt;&lt;/span&gt;&lt;span style=&quot;text-align: center; background-color: initial;&quot;&gt;&lt;div style=&quot;text-align: left;&quot;&gt;&lt;span style=&quot;background-color: initial;&quot;&gt;Get&lt;/span&gt;&lt;span style=&quot;background-color: initial;&quot;&gt;SupportRequest&lt;/span&gt;&lt;/div&gt;&lt;/span&gt;&lt;span style=&quot;text-align: center; background-color: initial;&quot;&gt;&lt;div style=&quot;text-align: left;&quot;&gt;&lt;span style=&quot;background-color: initial;&quot;&gt;Get&lt;/span&gt;&lt;span style=&quot;background-color: initial;&quot;&gt;SupportRequests&lt;/span&gt;&lt;/div&gt;&lt;div style=&quot;text-align: left;&quot;&gt;&lt;br&gt;&lt;/div&gt;&lt;/span&gt;&lt;/div&gt;&lt;/span&gt;&lt;/div&gt;&lt;/span&gt;" style="rounded=0;whiteSpace=wrap;html=1;align=left;strokeColor=none;" parent="1" vertex="1">
          <mxGeometry x="1032.07" y="-624" width="167.5" height="284" as="geometry" />
        </mxCell>
        <mxCell id="Bt5aDinGUWlxkMjQN304-60" value="&lt;b style=&quot;text-align: left; background-color: initial;&quot;&gt;BFF Support&lt;/b&gt;" style="rounded=1;whiteSpace=wrap;html=1;direction=south;verticalAlign=top;strokeColor=#CC0000;strokeWidth=3;fillColor=#E6E6E6;" parent="1" vertex="1">
          <mxGeometry x="450" y="7" width="166" height="203" as="geometry" />
        </mxCell>
        <mxCell id="Bt5aDinGUWlxkMjQN304-71" value="&lt;b&gt;&lt;span style=&quot;text-align: left; background-color: initial;&quot;&gt;BFF A&lt;/span&gt;&lt;span style=&quot;white-space-collapse: preserve;&quot; data-src-align=&quot;0:13&quot; class=&quot;EzKURWReUAB5oZgtQNkl&quot;&gt;dministrator&lt;/span&gt;&lt;/b&gt;&lt;div&gt;&lt;div style=&quot;text-align: left;&quot;&gt;&lt;br&gt;&lt;/div&gt;&lt;span style=&quot;background-color: initial;&quot;&gt;&lt;div style=&quot;&quot;&gt;&lt;div style=&quot;text-align: left;&quot;&gt;&lt;br&gt;&lt;/div&gt;&lt;span style=&quot;background-color: initial;&quot;&gt;&lt;div style=&quot;text-align: left;&quot;&gt;&lt;span style=&quot;background-color: initial;&quot;&gt;&lt;br&gt;&lt;/span&gt;&lt;/div&gt;&lt;div style=&quot;&quot;&gt;&lt;div style=&quot;text-align: left;&quot;&gt;&lt;br&gt;&lt;/div&gt;&lt;/div&gt;&lt;/span&gt;&lt;/div&gt;&lt;/span&gt;&lt;/div&gt;" style="rounded=1;whiteSpace=wrap;html=1;direction=south;verticalAlign=top;strokeColor=#CC0000;strokeWidth=3;fillColor=#E6E6E6;" parent="1" vertex="1">
          <mxGeometry x="443.25" y="641" width="172.75" height="240" as="geometry" />
        </mxCell>
        <mxCell id="Bt5aDinGUWlxkMjQN304-95" value="" style="group" parent="1" vertex="1" connectable="0">
          <mxGeometry x="1797" y="921" width="514" height="244" as="geometry" />
        </mxCell>
        <mxCell id="Bt5aDinGUWlxkMjQN304-96" value="" style="rounded=1;whiteSpace=wrap;html=1;arcSize=5;fillColor=#fff2cc;strokeColor=#D6B656;" parent="Bt5aDinGUWlxkMjQN304-95" vertex="1">
          <mxGeometry width="514" height="244" as="geometry" />
        </mxCell>
        <mxCell id="Bt5aDinGUWlxkMjQN304-97" value="Яндекс.Pay" style="text;html=1;align=center;verticalAlign=middle;whiteSpace=wrap;rounded=1;shadow=0;fontSize=23;fontStyle=1" parent="Bt5aDinGUWlxkMjQN304-95" vertex="1">
          <mxGeometry width="150" height="49" as="geometry" />
        </mxCell>
        <mxCell id="Bt5aDinGUWlxkMjQN304-113" value="" style="group" parent="Bt5aDinGUWlxkMjQN304-95" vertex="1" connectable="0">
          <mxGeometry x="-10" y="199" width="260" height="39" as="geometry" />
        </mxCell>
        <mxCell id="Bt5aDinGUWlxkMjQN304-114" value="" style="rounded=1;whiteSpace=wrap;html=1;fillColor=#ffe6cc;strokeColor=#d79b00;" parent="Bt5aDinGUWlxkMjQN304-113" vertex="1">
          <mxGeometry x="10" width="250" height="39" as="geometry" />
        </mxCell>
        <mxCell id="Bt5aDinGUWlxkMjQN304-115" value="" style="sketch=0;outlineConnect=0;fontColor=#232F3E;gradientColor=none;fillColor=#232F3D;strokeColor=none;dashed=0;verticalLabelPosition=bottom;verticalAlign=top;align=center;html=1;fontSize=12;fontStyle=0;aspect=fixed;pointerEvents=1;shape=mxgraph.aws4.gear;rounded=1;" parent="Bt5aDinGUWlxkMjQN304-113" vertex="1">
          <mxGeometry x="230.00000000000003" y="11" width="16.346153846153847" height="16.346153846153847" as="geometry" />
        </mxCell>
        <mxCell id="Bt5aDinGUWlxkMjQN304-116" value="Подтвердить отмену платежа" style="text;html=1;align=center;verticalAlign=middle;whiteSpace=wrap;rounded=1;fontSize=13;" parent="Bt5aDinGUWlxkMjQN304-113" vertex="1">
          <mxGeometry y="4.5" width="210.00000000000003" height="30" as="geometry" />
        </mxCell>
        <mxCell id="Bt5aDinGUWlxkMjQN304-98" value="" style="strokeWidth=2;html=1;shape=mxgraph.flowchart.database;whiteSpace=wrap;rounded=1;movable=1;resizable=1;rotatable=1;deletable=1;editable=1;locked=0;connectable=1;" parent="1" vertex="1">
          <mxGeometry x="2077" y="981" width="220" height="171" as="geometry" />
        </mxCell>
        <mxCell id="Bt5aDinGUWlxkMjQN304-99" value="&lt;p style=&quot;margin: 0px 0px 0px 13px; text-indent: -13px; font-variant-numeric: normal; font-variant-east-asian: normal; font-variant-alternates: normal; font-kerning: auto; font-optical-sizing: auto; font-feature-settings: normal; font-variation-settings: normal; font-variant-position: normal; font-stretch: normal; font-size: 14px; line-height: normal; text-align: start;&quot; class=&quot;p1&quot;&gt;&lt;span style=&quot;font-size: 12px; text-align: center; text-indent: 0px;&quot;&gt;[Транзакция.Статус]&lt;/span&gt;&lt;br&gt;&lt;/p&gt;" style="rounded=1;whiteSpace=wrap;html=1;fillColor=#B8B8B8;strokeColor=#FFD966;" parent="1" vertex="1">
          <mxGeometry x="2127" y="1071" width="119" height="21" as="geometry" />
        </mxCell>
        <mxCell id="Bt5aDinGUWlxkMjQN304-100" value="&lt;p style=&quot;margin: 0px 0px 0px 13px; text-indent: -13px; font-variant-numeric: normal; font-variant-east-asian: normal; font-variant-alternates: normal; font-kerning: auto; font-optical-sizing: auto; font-feature-settings: normal; font-variation-settings: normal; font-variant-position: normal; font-stretch: normal; font-size: 14px; line-height: normal; text-align: start;&quot; class=&quot;p1&quot;&gt;&lt;span style=&quot;font-size: 12px; text-align: center; text-indent: 0px;&quot;&gt;[Транзакция.ID]&lt;/span&gt;&lt;br&gt;&lt;/p&gt;" style="rounded=1;whiteSpace=wrap;html=1;fillColor=#B8B8B8;strokeColor=#FFD966;" parent="1" vertex="1">
          <mxGeometry x="2127" y="1101" width="119" height="21" as="geometry" />
        </mxCell>
        <mxCell id="Bt5aDinGUWlxkMjQN304-101" value="" style="group" parent="1" vertex="1" connectable="0">
          <mxGeometry x="1787" y="971" width="260" height="39" as="geometry" />
        </mxCell>
        <mxCell id="Bt5aDinGUWlxkMjQN304-102" value="" style="rounded=1;whiteSpace=wrap;html=1;fillColor=#ffe6cc;strokeColor=#d79b00;" parent="Bt5aDinGUWlxkMjQN304-101" vertex="1">
          <mxGeometry x="10" width="250" height="39" as="geometry" />
        </mxCell>
        <mxCell id="Bt5aDinGUWlxkMjQN304-103" value="" style="sketch=0;outlineConnect=0;fontColor=#232F3E;gradientColor=none;fillColor=#232F3D;strokeColor=none;dashed=0;verticalLabelPosition=bottom;verticalAlign=top;align=center;html=1;fontSize=12;fontStyle=0;aspect=fixed;pointerEvents=1;shape=mxgraph.aws4.gear;rounded=1;" parent="Bt5aDinGUWlxkMjQN304-101" vertex="1">
          <mxGeometry x="230" y="11" width="17" height="17" as="geometry" />
        </mxCell>
        <mxCell id="Bt5aDinGUWlxkMjQN304-104" value="Инициировать платёж" style="text;html=1;align=center;verticalAlign=middle;whiteSpace=wrap;rounded=1;fontSize=13;" parent="Bt5aDinGUWlxkMjQN304-101" vertex="1">
          <mxGeometry y="4.5" width="170" height="30" as="geometry" />
        </mxCell>
        <mxCell id="Bt5aDinGUWlxkMjQN304-105" value="" style="group" parent="1" vertex="1" connectable="0">
          <mxGeometry x="1787" y="1021" width="260" height="39" as="geometry" />
        </mxCell>
        <mxCell id="Bt5aDinGUWlxkMjQN304-106" value="" style="rounded=1;whiteSpace=wrap;html=1;fillColor=#ffe6cc;strokeColor=#d79b00;" parent="Bt5aDinGUWlxkMjQN304-105" vertex="1">
          <mxGeometry x="10" width="250" height="39" as="geometry" />
        </mxCell>
        <mxCell id="Bt5aDinGUWlxkMjQN304-107" value="" style="sketch=0;outlineConnect=0;fontColor=#232F3E;gradientColor=none;fillColor=#232F3D;strokeColor=none;dashed=0;verticalLabelPosition=bottom;verticalAlign=top;align=center;html=1;fontSize=12;fontStyle=0;aspect=fixed;pointerEvents=1;shape=mxgraph.aws4.gear;rounded=1;" parent="Bt5aDinGUWlxkMjQN304-105" vertex="1">
          <mxGeometry x="230" y="11" width="17" height="17" as="geometry" />
        </mxCell>
        <mxCell id="Bt5aDinGUWlxkMjQN304-108" value="Подтвердить платёж" style="text;html=1;align=center;verticalAlign=middle;whiteSpace=wrap;rounded=1;fontSize=13;" parent="Bt5aDinGUWlxkMjQN304-105" vertex="1">
          <mxGeometry y="4.5" width="170" height="30" as="geometry" />
        </mxCell>
        <mxCell id="Bt5aDinGUWlxkMjQN304-109" value="" style="group" parent="1" vertex="1" connectable="0">
          <mxGeometry x="1797" y="1071" width="250" height="39" as="geometry" />
        </mxCell>
        <mxCell id="Bt5aDinGUWlxkMjQN304-110" value="" style="rounded=1;whiteSpace=wrap;html=1;fillColor=#ffe6cc;strokeColor=#d79b00;" parent="Bt5aDinGUWlxkMjQN304-109" vertex="1">
          <mxGeometry width="250" height="39" as="geometry" />
        </mxCell>
        <mxCell id="Bt5aDinGUWlxkMjQN304-111" value="" style="sketch=0;outlineConnect=0;fontColor=#232F3E;gradientColor=none;fillColor=#232F3D;strokeColor=none;dashed=0;verticalLabelPosition=bottom;verticalAlign=top;align=center;html=1;fontSize=12;fontStyle=0;aspect=fixed;pointerEvents=1;shape=mxgraph.aws4.gear;rounded=1;" parent="Bt5aDinGUWlxkMjQN304-109" vertex="1">
          <mxGeometry x="220" y="11" width="17" height="17" as="geometry" />
        </mxCell>
        <mxCell id="Bt5aDinGUWlxkMjQN304-112" value="Предоставить статус платежа" style="text;html=1;align=center;verticalAlign=middle;whiteSpace=wrap;rounded=1;fontSize=13;" parent="Bt5aDinGUWlxkMjQN304-109" vertex="1">
          <mxGeometry y="4.5" width="200" height="30" as="geometry" />
        </mxCell>
        <mxCell id="Bt5aDinGUWlxkMjQN304-117" value="" style="endArrow=classic;html=1;rounded=0;exitX=0.988;exitY=0.166;exitDx=0;exitDy=0;exitPerimeter=0;" parent="1" source="Xtlks4UdEk3piKS54iS9-47" target="Bt5aDinGUWlxkMjQN304-104" edge="1">
          <mxGeometry width="50" height="50" relative="1" as="geometry">
            <mxPoint x="1069.5" y="887.15" as="sourcePoint" />
            <mxPoint x="1597.5" y="829.9955056179773" as="targetPoint" />
            <Array as="points">
              <mxPoint x="1280" y="1030" />
              <mxPoint x="1280" y="990" />
            </Array>
          </mxGeometry>
        </mxCell>
        <mxCell id="Bt5aDinGUWlxkMjQN304-118" value="&lt;span style=&quot;white-space: pre-wrap; background-color: rgb(251, 251, 251); font-size: 12px; text-align: left;&quot;&gt; Initiate Payment &lt;/span&gt;" style="edgeLabel;html=1;align=center;verticalAlign=middle;resizable=0;points=[];" parent="Bt5aDinGUWlxkMjQN304-117" vertex="1" connectable="0">
          <mxGeometry x="-0.0436" relative="1" as="geometry">
            <mxPoint x="33" as="offset" />
          </mxGeometry>
        </mxCell>
        <mxCell id="Bt5aDinGUWlxkMjQN304-121" value="" style="endArrow=classic;html=1;rounded=0;exitX=1;exitY=0.25;exitDx=0;exitDy=0;" parent="1" source="Xtlks4UdEk3piKS54iS9-47" target="Bt5aDinGUWlxkMjQN304-108" edge="1">
          <mxGeometry width="50" height="50" relative="1" as="geometry">
            <mxPoint x="1257.5" y="760" as="sourcePoint" />
            <mxPoint x="1680" y="1041" as="targetPoint" />
            <Array as="points">
              <mxPoint x="1340" y="1040" />
            </Array>
          </mxGeometry>
        </mxCell>
        <mxCell id="Bt5aDinGUWlxkMjQN304-122" value="Confirm&lt;div&gt;Payment&lt;/div&gt;" style="edgeLabel;html=1;align=center;verticalAlign=middle;resizable=0;points=[];" parent="Bt5aDinGUWlxkMjQN304-121" vertex="1" connectable="0">
          <mxGeometry x="0.1962" y="-1" relative="1" as="geometry">
            <mxPoint x="-65" y="-1" as="offset" />
          </mxGeometry>
        </mxCell>
        <mxCell id="Bt5aDinGUWlxkMjQN304-123" value="" style="endArrow=classic;html=1;rounded=0;exitX=1;exitY=0.5;exitDx=0;exitDy=0;entryX=0;entryY=0.5;entryDx=0;entryDy=0;" parent="1" source="Xtlks4UdEk3piKS54iS9-47" target="Bt5aDinGUWlxkMjQN304-112" edge="1">
          <mxGeometry width="50" height="50" relative="1" as="geometry">
            <mxPoint x="1187.5" y="760" as="sourcePoint" />
            <mxPoint x="1237.5" y="710" as="targetPoint" />
            <Array as="points">
              <mxPoint x="1210" y="1070" />
              <mxPoint x="1210" y="1090" />
            </Array>
          </mxGeometry>
        </mxCell>
        <mxCell id="Bt5aDinGUWlxkMjQN304-124" value="GetStatus&lt;div&gt;Payment&lt;/div&gt;" style="edgeLabel;html=1;align=center;verticalAlign=middle;resizable=0;points=[];" parent="Bt5aDinGUWlxkMjQN304-123" vertex="1" connectable="0">
          <mxGeometry x="0.3334" relative="1" as="geometry">
            <mxPoint x="-109" y="-8" as="offset" />
          </mxGeometry>
        </mxCell>
        <mxCell id="Bt5aDinGUWlxkMjQN304-125" value="" style="endArrow=classic;html=1;rounded=0;exitX=1.004;exitY=0.65;exitDx=0;exitDy=0;exitPerimeter=0;" parent="1" source="Xtlks4UdEk3piKS54iS9-47" target="Bt5aDinGUWlxkMjQN304-116" edge="1">
          <mxGeometry width="50" height="50" relative="1" as="geometry">
            <mxPoint x="1067.3089999999997" y="1066.7119999999995" as="sourcePoint" />
            <mxPoint x="1690" y="1151.75" as="targetPoint" />
            <Array as="points">
              <mxPoint x="1160" y="1090" />
              <mxPoint x="1160" y="1140" />
            </Array>
          </mxGeometry>
        </mxCell>
        <mxCell id="Bt5aDinGUWlxkMjQN304-126" value="&lt;span style=&quot;white-space: pre-wrap; background-color: rgb(251, 251, 251); font-size: 12px; text-align: left;&quot; data-src-align=&quot;0:12&quot; class=&quot;EzKURWReUAB5oZgtQNkl&quot;&gt;ConfirmC&lt;/span&gt;&lt;span style=&quot;white-space: pre-wrap; background-color: rgb(251, 251, 251); font-size: 12px; text-align: left;&quot; data-src-align=&quot;13:6&quot; class=&quot;EzKURWReUAB5oZgtQNkl&quot;&gt;ancellation&lt;/span&gt;&lt;div&gt;&lt;span style=&quot;white-space: pre-wrap; background-color: rgb(251, 251, 251); font-size: 12px; text-align: left;&quot; data-src-align=&quot;13:6&quot; class=&quot;EzKURWReUAB5oZgtQNkl&quot;&gt;Payment&lt;/span&gt;&lt;/div&gt;" style="edgeLabel;html=1;align=center;verticalAlign=middle;resizable=0;points=[];" parent="Bt5aDinGUWlxkMjQN304-125" vertex="1" connectable="0">
          <mxGeometry x="0.2479" y="1" relative="1" as="geometry">
            <mxPoint x="-63" as="offset" />
          </mxGeometry>
        </mxCell>
        <mxCell id="Bt5aDinGUWlxkMjQN304-134" value="&lt;span style=&quot;white-space-collapse: preserve;&quot; data-src-align=&quot;0:14&quot; class=&quot;EzKURWReUAB5oZgtQNkl&quot;&gt;&lt;b&gt;Authentication&lt;/b&gt;&lt;/span&gt;" style="rounded=1;whiteSpace=wrap;html=1;direction=south;rotation=90;strokeColor=#CC0000;strokeWidth=3;verticalAlign=top;fillColor=#E6E6E6;" parent="1" vertex="1">
          <mxGeometry x="-8.13" y="318" width="495" height="78" as="geometry" />
        </mxCell>
        <mxCell id="Bt5aDinGUWlxkMjQN304-136" value="LAN" style="text;html=1;align=center;verticalAlign=middle;whiteSpace=wrap;rounded=0;fontStyle=1;fontSize=34;" parent="1" vertex="1">
          <mxGeometry x="49" y="-240" width="60" height="30" as="geometry" />
        </mxCell>
        <mxCell id="Bt5aDinGUWlxkMjQN304-143" value="WAN" style="text;html=1;align=center;verticalAlign=middle;whiteSpace=wrap;rounded=0;fontStyle=1;fontSize=34;" parent="1" vertex="1">
          <mxGeometry x="-19" y="-622.5" width="60" height="30" as="geometry" />
        </mxCell>
        <mxCell id="Bt5aDinGUWlxkMjQN304-152" value="&lt;b&gt;Notification&lt;/b&gt;&lt;div&gt;&lt;b&gt;&lt;br&gt;&lt;/b&gt;&lt;div&gt;&lt;br&gt;&lt;/div&gt;&lt;/div&gt;&lt;div&gt;&lt;br&gt;&lt;/div&gt;" style="rounded=1;whiteSpace=wrap;html=1;verticalAlign=top;strokeColor=#CC0000;strokeWidth=3;fillColor=#E6E6E6;" parent="1" vertex="1">
          <mxGeometry x="457.63" y="253.5" width="163.13" height="150" as="geometry" />
        </mxCell>
        <mxCell id="DXrkzp5svh5QhC7ay0Ss-2" value="&lt;div style=&quot;&quot;&gt;&lt;font color=&quot;#ffffff&quot;&gt;&lt;span style=&quot;background-color: initial;&quot;&gt;RegClient&lt;/span&gt;&lt;br&gt;&lt;span style=&quot;background-color: initial;&quot;&gt;GetClient&lt;/span&gt;&lt;br&gt;&lt;span style=&quot;background-color: initial;&quot;&gt;SaveClient&lt;/span&gt;&lt;br&gt;&lt;/font&gt;&lt;/div&gt;&lt;div style=&quot;&quot;&gt;&lt;font color=&quot;#ffffff&quot;&gt;SetRoles&lt;/font&gt;&lt;/div&gt;" style="rounded=1;whiteSpace=wrap;html=1;align=left;fillColor=#0066CC;" parent="1" vertex="1">
          <mxGeometry x="1218.32" y="-90" width="161.68" height="60" as="geometry" />
        </mxCell>
        <mxCell id="DXrkzp5svh5QhC7ay0Ss-4" value="&lt;div style=&quot;&quot;&gt;&lt;span style=&quot;background-color: initial;&quot;&gt;Create&lt;/span&gt;&lt;span style=&quot;background-color: initial;&quot;&gt;SupportRequest&lt;/span&gt;&lt;/div&gt;&lt;span style=&quot;background-color: initial;&quot;&gt;&lt;div style=&quot;&quot;&gt;&lt;span style=&quot;background-color: initial;&quot;&gt;Save&lt;/span&gt;&lt;span style=&quot;background-color: initial;&quot;&gt;SupportRequest&lt;/span&gt;&lt;/div&gt;&lt;/span&gt;&lt;span style=&quot;background-color: initial;&quot;&gt;&lt;div style=&quot;&quot;&gt;&lt;span style=&quot;background-color: initial;&quot;&gt;ChangeStarusRequest&lt;/span&gt;&lt;/div&gt;&lt;/span&gt;&lt;span style=&quot;background-color: initial;&quot;&gt;&lt;div style=&quot;&quot;&gt;&lt;span style=&quot;background-color: initial;&quot;&gt;Get&lt;/span&gt;&lt;span style=&quot;background-color: initial;&quot;&gt;SupportRequest&lt;/span&gt;&lt;/div&gt;&lt;/span&gt;&lt;span style=&quot;background-color: initial;&quot;&gt;&lt;div style=&quot;&quot;&gt;&lt;span style=&quot;background-color: initial;&quot;&gt;Get&lt;/span&gt;&lt;span style=&quot;background-color: initial;&quot;&gt;SupportRequest&lt;/span&gt;&lt;span style=&quot;background-color: initial;&quot;&gt;s&lt;/span&gt;&lt;/div&gt;&lt;/span&gt;" style="rounded=1;whiteSpace=wrap;html=1;align=left;fillColor=#0066CC;fontColor=#FFFFFF;" parent="1" vertex="1">
          <mxGeometry x="457.63" y="115" width="152.37" height="80" as="geometry" />
        </mxCell>
        <mxCell id="Bt5aDinGUWlxkMjQN304-4" value="" style="endArrow=classic;startArrow=classic;html=1;rounded=0;strokeColor=#FF0000;strokeWidth=3;entryX=0;entryY=0.25;entryDx=0;entryDy=0;" parent="1" target="Xtlks4UdEk3piKS54iS9-5" edge="1">
          <mxGeometry width="50" height="50" relative="1" as="geometry">
            <mxPoint x="610" y="140" as="sourcePoint" />
            <mxPoint x="876" y="-40" as="targetPoint" />
            <Array as="points">
              <mxPoint x="650" y="140" />
              <mxPoint x="650" y="-20" />
            </Array>
          </mxGeometry>
        </mxCell>
        <mxCell id="Bt5aDinGUWlxkMjQN304-59" value="&lt;b&gt;&lt;font color=&quot;#ff3333&quot;&gt;Поток 6&lt;/font&gt;&lt;/b&gt;" style="edgeLabel;html=1;align=center;verticalAlign=middle;resizable=0;points=[];" parent="Bt5aDinGUWlxkMjQN304-4" vertex="1" connectable="0">
          <mxGeometry x="0.026" y="6" relative="1" as="geometry">
            <mxPoint x="149" y="6" as="offset" />
          </mxGeometry>
        </mxCell>
        <mxCell id="DXrkzp5svh5QhC7ay0Ss-5" value="&lt;span style=&quot;background-color: initial;&quot;&gt;GetClient&lt;/span&gt;&lt;br style=&quot;&quot;&gt;&lt;span style=&quot;background-color: initial;&quot;&gt;SaveClient&lt;/span&gt;&lt;br style=&quot;&quot;&gt;&lt;span style=&quot;background-color: initial;&quot;&gt;SetRoles&lt;/span&gt;&lt;br style=&quot;&quot;&gt;&lt;span style=&quot;background-color: initial;&quot;&gt;GetClients&lt;/span&gt;" style="rounded=1;whiteSpace=wrap;html=1;align=left;fontColor=#FFFFFF;fillColor=#0066CC;" parent="1" vertex="1">
          <mxGeometry x="457.63" y="40" width="150.75" height="60" as="geometry" />
        </mxCell>
        <mxCell id="Xtlks4UdEk3piKS54iS9-1" value="&lt;font color=&quot;#ffffff&quot;&gt;&lt;span style=&quot;background-color: initial;&quot;&gt;RegClient&lt;/span&gt;&lt;br style=&quot;&quot;&gt;&lt;span style=&quot;background-color: initial;&quot;&gt;GetClient&lt;/span&gt;&lt;br style=&quot;&quot;&gt;&lt;span style=&quot;background-color: initial;&quot;&gt;SaveClient&lt;/span&gt;&lt;br style=&quot;&quot;&gt;&lt;span style=&quot;background-color: initial;&quot;&gt;SetRoles&lt;/span&gt;&lt;br style=&quot;&quot;&gt;&lt;span style=&quot;background-color: initial;&quot;&gt;GetClients&lt;/span&gt;&lt;/font&gt;" style="rounded=1;whiteSpace=wrap;html=1;fillColor=#0066CC;align=left;" parent="1" vertex="1">
          <mxGeometry x="879.38" y="-205" width="150" height="80" as="geometry" />
        </mxCell>
        <mxCell id="Bt5aDinGUWlxkMjQN304-144" value="БД&lt;div&gt;Clients&lt;/div&gt;" style="shape=cylinder3;whiteSpace=wrap;html=1;boundedLbl=1;backgroundOutline=1;size=15;strokeColor=#FF3333;fillColor=#b0e3e6;" parent="1" vertex="1">
          <mxGeometry x="1027" y="-140" width="113" height="70" as="geometry" />
        </mxCell>
        <mxCell id="Xtlks4UdEk3piKS54iS9-2" value="" style="endArrow=classic;startArrow=classic;html=1;rounded=0;strokeColor=#FF0000;strokeWidth=3;exitX=1;exitY=0.5;exitDx=0;exitDy=0;entryX=0;entryY=0.5;entryDx=0;entryDy=0;" parent="1" source="DXrkzp5svh5QhC7ay0Ss-5" target="Xtlks4UdEk3piKS54iS9-1" edge="1">
          <mxGeometry width="50" height="50" relative="1" as="geometry">
            <mxPoint x="620" y="165" as="sourcePoint" />
            <mxPoint x="870" y="-47" as="targetPoint" />
            <Array as="points">
              <mxPoint x="630" y="70" />
              <mxPoint x="630" y="-165" />
            </Array>
          </mxGeometry>
        </mxCell>
        <mxCell id="Xtlks4UdEk3piKS54iS9-4" value="&lt;b&gt;&lt;font color=&quot;#cc0000&quot;&gt;Поток 2&lt;/font&gt;&lt;/b&gt;" style="edgeLabel;html=1;align=center;verticalAlign=middle;resizable=0;points=[];" parent="Xtlks4UdEk3piKS54iS9-2" vertex="1" connectable="0">
          <mxGeometry x="0.7048" y="3" relative="1" as="geometry">
            <mxPoint as="offset" />
          </mxGeometry>
        </mxCell>
        <mxCell id="Xtlks4UdEk3piKS54iS9-5" value="&lt;font color=&quot;#ffffff&quot;&gt;&lt;span style=&quot;&quot;&gt;Create&lt;/span&gt;&lt;br style=&quot;&quot;&gt;&lt;span style=&quot;&quot;&gt;Save&lt;/span&gt;&lt;br style=&quot;&quot;&gt;&lt;span style=&quot;&quot;&gt;ChangeStarusRequest&lt;/span&gt;&lt;br style=&quot;&quot;&gt;&lt;span style=&quot;&quot;&gt;GetRequest&lt;/span&gt;&lt;br style=&quot;&quot;&gt;&lt;span style=&quot;&quot;&gt;GetRequests&lt;/span&gt;&lt;/font&gt;" style="rounded=1;whiteSpace=wrap;html=1;align=left;fillColor=#0066CC;" parent="1" vertex="1">
          <mxGeometry x="879.38" y="-40" width="147" height="80" as="geometry" />
        </mxCell>
        <mxCell id="Bt5aDinGUWlxkMjQN304-172" value="БД&lt;div&gt;SupportRequest&lt;br&gt;&lt;/div&gt;" style="shape=cylinder3;whiteSpace=wrap;html=1;boundedLbl=1;backgroundOutline=1;size=15;strokeColor=#FF3333;fillColor=#b0e3e6;" parent="1" vertex="1">
          <mxGeometry x="1026.38" y="10" width="113.62" height="70" as="geometry" />
        </mxCell>
        <mxCell id="Xtlks4UdEk3piKS54iS9-6" value="&lt;div style=&quot;&quot;&gt;CreateOrder&lt;/div&gt;&lt;div style=&quot;&quot;&gt;GetOrder&lt;/div&gt;&lt;div style=&quot;&quot;&gt;GetOrders&lt;/div&gt;&lt;div style=&quot;&quot;&gt;SaveOrder&lt;/div&gt;&lt;div style=&quot;&quot;&gt;DeleteOrder&lt;/div&gt;&lt;div style=&quot;&quot;&gt;ApproveOrder&lt;/div&gt;" style="rounded=1;whiteSpace=wrap;html=1;align=left;fillColor=#0066CC;fontColor=#FFFFFF;" parent="1" vertex="1">
          <mxGeometry x="1220" y="80" width="160" height="100" as="geometry" />
        </mxCell>
        <mxCell id="Xtlks4UdEk3piKS54iS9-13" value="" style="endArrow=classic;startArrow=classic;html=1;rounded=0;strokeColor=#FF0000;strokeWidth=3;entryX=0;entryY=0.25;entryDx=0;entryDy=0;exitX=1;exitY=0.25;exitDx=0;exitDy=0;" parent="1" source="Xtlks4UdEk3piKS54iS9-5" target="Xtlks4UdEk3piKS54iS9-16" edge="1">
          <mxGeometry width="50" height="50" relative="1" as="geometry">
            <mxPoint x="903" y="170.5" as="sourcePoint" />
            <mxPoint x="1180" y="10" as="targetPoint" />
            <Array as="points">
              <mxPoint x="1140" y="-20" />
              <mxPoint x="1140" y="5" />
            </Array>
          </mxGeometry>
        </mxCell>
        <mxCell id="Xtlks4UdEk3piKS54iS9-15" value="&lt;b&gt;&lt;font color=&quot;#cc0000&quot;&gt;Поток 5&lt;/font&gt;&lt;/b&gt;" style="edgeLabel;html=1;align=center;verticalAlign=middle;resizable=0;points=[];" parent="Xtlks4UdEk3piKS54iS9-13" vertex="1" connectable="0">
          <mxGeometry x="-0.2588" relative="1" as="geometry">
            <mxPoint as="offset" />
          </mxGeometry>
        </mxCell>
        <mxCell id="Xtlks4UdEk3piKS54iS9-16" value="&lt;div style=&quot;&quot;&gt;&lt;span style=&quot;background-color: initial;&quot;&gt;Create&lt;/span&gt;&lt;span style=&quot;background-color: initial;&quot;&gt;SupportRequest&lt;/span&gt;&lt;/div&gt;&lt;span style=&quot;background-color: initial;&quot;&gt;&lt;div style=&quot;&quot;&gt;&lt;span style=&quot;background-color: initial;&quot;&gt;Save&lt;/span&gt;&lt;span style=&quot;background-color: initial;&quot;&gt;SupportRequest&lt;/span&gt;&lt;/div&gt;&lt;/span&gt;&lt;span style=&quot;background-color: initial;&quot;&gt;&lt;div style=&quot;&quot;&gt;&lt;span style=&quot;background-color: initial;&quot;&gt;ChangeStarusRequest&lt;/span&gt;&lt;/div&gt;&lt;/span&gt;&lt;span style=&quot;background-color: initial;&quot;&gt;&lt;div style=&quot;&quot;&gt;&lt;span style=&quot;background-color: initial;&quot;&gt;Get&lt;/span&gt;&lt;span style=&quot;background-color: initial;&quot;&gt;SupportRequest&lt;/span&gt;&lt;/div&gt;&lt;/span&gt;&lt;span style=&quot;background-color: initial;&quot;&gt;&lt;div style=&quot;&quot;&gt;&lt;span style=&quot;background-color: initial;&quot;&gt;Get&lt;/span&gt;&lt;span style=&quot;background-color: initial;&quot;&gt;SupportRequest&lt;/span&gt;&lt;span style=&quot;background-color: initial;&quot;&gt;s&lt;/span&gt;&lt;/div&gt;&lt;/span&gt;" style="rounded=1;whiteSpace=wrap;html=1;align=left;fillColor=#0066CC;fontColor=#FFFFFF;" parent="1" vertex="1">
          <mxGeometry x="1218.32" y="-14" width="161.68" height="80" as="geometry" />
        </mxCell>
        <mxCell id="Xtlks4UdEk3piKS54iS9-21" value="&lt;span style=&quot;background-color: initial;&quot;&gt;Create&lt;/span&gt;&lt;br style=&quot;&quot;&gt;&lt;span style=&quot;background-color: initial;&quot;&gt;Delete&lt;/span&gt;&lt;br style=&quot;&quot;&gt;&lt;span style=&quot;background-color: initial;&quot;&gt;Save&lt;/span&gt;&lt;br style=&quot;&quot;&gt;&lt;span style=&quot;background-color: initial;&quot;&gt;Approve&lt;/span&gt;&lt;br style=&quot;&quot;&gt;&lt;span style=&quot;background-color: initial;&quot;&gt;GetOrders&lt;/span&gt;&lt;br style=&quot;&quot;&gt;&lt;span style=&quot;background-color: initial;&quot;&gt;GetOrder&lt;/span&gt;&lt;br style=&quot;&quot;&gt;&lt;span style=&quot;background-color: initial;&quot;&gt;OrderStatistics&lt;/span&gt;&lt;div&gt;ChangingOrderNotification&lt;span style=&quot;background-color: initial;&quot;&gt;&lt;br&gt;&lt;/span&gt;&lt;/div&gt;" style="rounded=1;whiteSpace=wrap;html=1;align=left;fillColor=#0066CC;fontColor=#FFFFFF;" parent="1" vertex="1">
          <mxGeometry x="880" y="125.5" width="150" height="131.5" as="geometry" />
        </mxCell>
        <mxCell id="Xtlks4UdEk3piKS54iS9-22" value="БД&lt;div&gt;Order&lt;/div&gt;" style="shape=cylinder3;whiteSpace=wrap;html=1;boundedLbl=1;backgroundOutline=1;size=15;strokeColor=#FF3333;fillColor=#b0e3e6;" parent="1" vertex="1">
          <mxGeometry x="1026.38" y="240" width="113.62" height="70" as="geometry" />
        </mxCell>
        <mxCell id="Xtlks4UdEk3piKS54iS9-23" value="" style="endArrow=classic;startArrow=classic;html=1;rounded=0;strokeColor=#FF0000;strokeWidth=3;exitX=1;exitY=0.5;exitDx=0;exitDy=0;entryX=0;entryY=0.5;entryDx=0;entryDy=0;" parent="1" source="Xtlks4UdEk3piKS54iS9-21" target="Xtlks4UdEk3piKS54iS9-6" edge="1">
          <mxGeometry width="50" height="50" relative="1" as="geometry">
            <mxPoint x="1051" y="-28" as="sourcePoint" />
            <mxPoint x="1190" y="20" as="targetPoint" />
            <Array as="points">
              <mxPoint x="1120" y="191" />
              <mxPoint x="1120" y="130" />
            </Array>
          </mxGeometry>
        </mxCell>
        <mxCell id="Xtlks4UdEk3piKS54iS9-25" value="&lt;b&gt;&lt;font color=&quot;#cc0000&quot;&gt;Поток 3&lt;/font&gt;&lt;/b&gt;" style="edgeLabel;html=1;align=center;verticalAlign=middle;resizable=0;points=[];" parent="Xtlks4UdEk3piKS54iS9-23" vertex="1" connectable="0">
          <mxGeometry x="0.3625" relative="1" as="geometry">
            <mxPoint x="22" as="offset" />
          </mxGeometry>
        </mxCell>
        <mxCell id="Xtlks4UdEk3piKS54iS9-26" value="&lt;div style=&quot;&quot;&gt;&lt;b&gt;Поток 3&lt;/b&gt;&lt;/div&gt;&lt;div style=&quot;&quot;&gt;&lt;span style=&quot;font-family: monospace; font-size: 0px; text-wrap: nowrap;&quot;&gt;%3CmxGraphModel%3E%3Croot%3E%3CmxCell%20id%3D%220%22%2F%3E%3CmxCell%20id%3D%221%22%20parent%3D%220%22%2F%3E%3CmxCell%20id%3D%222%22%20value%3D%22%26lt%3Bdiv%20style%3D%26quot%3B%26quot%3B%26gt%3B%26lt%3Bb%26gt%3B%D0%9F%D0%BE%D1%82%D0%BE%D0%BA%201%26lt%3B%2Fb%26gt%3B%26lt%3B%2Fdiv%26gt%3B%26lt%3Bdiv%20style%3D%26quot%3B%26quot%3B%26gt%3B%26lt%3Bdiv%26gt%3B%26lt%3Bspan%20style%3D%26quot%3Bbackground-color%3A%20initial%3B%26quot%3B%26gt%3BRegClient%26lt%3B%2Fspan%26gt%3B%26lt%3Bbr%26gt%3B%26lt%3Bspan%20style%3D%26quot%3Bbackground-color%3A%20initial%3B%26quot%3B%26gt%3BGetClient%26lt%3B%2Fspan%26gt%3B%26lt%3Bbr%26gt%3B%26lt%3Bspan%20style%3D%26quot%3Bbackground-color%3A%20initial%3B%26quot%3B%26gt%3BSaveClient%26lt%3B%2Fspan%26gt%3B%26lt%3Bbr%26gt%3B%26lt%3B%2Fdiv%26gt%3B%26lt%3Bdiv%26gt%3BSetRoles%26lt%3B%2Fdiv%26gt%3B%26lt%3Bdiv%26gt%3B%26lt%3Bfont%20color%3D%26quot%3B%23330000%26quot%3B%26gt%3B%26lt%3Bbr%26gt%3B%26lt%3B%2Ffont%26gt%3B%26lt%3B%2Fdiv%26gt%3B%26lt%3Bdiv%26gt%3B%26lt%3Bfont%20color%3D%26quot%3B%23330000%26quot%3B%26gt%3B%26lt%3Bb%26gt%3B%D0%9F%D0%BE%D1%82%D0%BE%D0%BA%202%26lt%3B%2Fb%26gt%3B%26lt%3B%2Ffont%26gt%3B%26lt%3B%2Fdiv%26gt%3B%26lt%3Bdiv%26gt%3B%26lt%3Bfont%20color%3D%26quot%3B%23330000%26quot%3B%26gt%3B%26lt%3Bspan%20style%3D%26quot%3Bbackground-color%3A%20initial%3B%26quot%3B%26gt%3BGetClient%26lt%3B%2Fspan%26gt%3B%26lt%3Bbr%20style%3D%26quot%3B%26quot%3B%26gt%3B%26lt%3Bspan%20style%3D%26quot%3Bbackground-color%3A%20initial%3B%26quot%3B%26gt%3BSaveClient%26lt%3B%2Fspan%26gt%3B%26lt%3Bbr%20style%3D%26quot%3B%26quot%3B%26gt%3B%26lt%3Bspan%20style%3D%26quot%3Bbackground-color%3A%20initial%3B%26quot%3B%26gt%3BSetRoles%26lt%3B%2Fspan%26gt%3B%26lt%3Bbr%20style%3D%26quot%3B%26quot%3B%26gt%3B%26lt%3Bspan%20style%3D%26quot%3Bbackground-color%3A%20initial%3B%26quot%3B%26gt%3BGetClients%26lt%3B%2Fspan%26gt%3B%26lt%3B%2Ffont%26gt%3B%26lt%3Bbr%26gt%3B%26lt%3B%2Fdiv%26gt%3B%26lt%3B%2Fdiv%26gt%3B%26lt%3Bspan%20style%3D%26quot%3Bbackground-color%3A%20initial%3B%26quot%3B%26gt%3B%26lt%3Bdiv%20style%3D%26quot%3B%26quot%3B%26gt%3B%26lt%3Bbr%26gt%3B%26lt%3B%2Fdiv%26gt%3B%26lt%3Bdiv%20style%3D%26quot%3B%26quot%3B%26gt%3B%26lt%3Bspan%20style%3D%26quot%3Btext-align%3A%20center%3B%20background-color%3A%20initial%3B%26quot%3B%26gt%3B%26lt%3Bdiv%20style%3D%26quot%3Btext-align%3A%20left%3B%26quot%3B%26gt%3B%26lt%3Bb%20style%3D%26quot%3Bfont-size%3A%2011px%3B%20text-align%3A%20center%3B%20text-wrap%3A%20nowrap%3B%26quot%3B%26gt%3B%D0%9F%D0%BE%D1%82%D0%BE%D0%BA%205%2C6%26lt%3B%2Fb%26gt%3B%26lt%3Bspan%20style%3D%26quot%3Bbackground-color%3A%20initial%3B%26quot%3B%26gt%3B%26lt%3Bbr%26gt%3B%26lt%3B%2Fspan%26gt%3B%26lt%3B%2Fdiv%26gt%3B%26lt%3Bdiv%20style%3D%26quot%3Btext-align%3A%20left%3B%26quot%3B%26gt%3B%26lt%3Bdiv%26gt%3B%26lt%3Bspan%20style%3D%26quot%3Bbackground-color%3A%20initial%3B%26quot%3B%26gt%3BCreate%26lt%3B%2Fspan%26gt%3B%26lt%3Bspan%20style%3D%26quot%3Bbackground-color%3A%20initial%3B%26quot%3B%26gt%3BSupportRequest%26lt%3B%2Fspan%26gt%3B%26lt%3B%2Fdiv%26gt%3B%26lt%3Bspan%20style%3D%26quot%3Btext-align%3A%20center%3B%20background-color%3A%20initial%3B%26quot%3B%26gt%3B%26lt%3Bdiv%20style%3D%26quot%3Btext-align%3A%20left%3B%26quot%3B%26gt%3B%26lt%3Bspan%20style%3D%26quot%3Bbackground-color%3A%20initial%3B%26quot%3B%26gt%3BSave%26lt%3B%2Fspan%26gt%3B%26lt%3Bspan%20style%3D%26quot%3Bbackground-color%3A%20initial%3B%26quot%3B%26gt%3BSupportRequest%26lt%3B%2Fspan%26gt%3B%26lt%3B%2Fdiv%26gt%3B%26lt%3B%2Fspan%26gt%3B%26lt%3Bspan%20style%3D%26quot%3Btext-align%3A%20center%3B%20background-color%3A%20initial%3B%26quot%3B%26gt%3B%26lt%3Bdiv%20style%3D%26quot%3Btext-align%3A%20left%3B%26quot%3B%26gt%3B%26lt%3Bspan%20style%3D%26quot%3Bbackground-color%3A%20initial%3B%26quot%3B%26gt%3BChangeStarusRequest%26lt%3B%2Fspan%26gt%3B%26lt%3B%2Fdiv%26gt%3B%26lt%3B%2Fspan%26gt%3B%26lt%3Bspan%20style%3D%26quot%3Btext-align%3A%20center%3B%20background-color%3A%20initial%3B%26quot%3B%26gt%3B%26lt%3Bdiv%20style%3D%26quot%3Btext-align%3A%20left%3B%26quot%3B%26gt%3B%26lt%3Bspan%20style%3D%26quot%3Bbackground-color%3A%20initial%3B%26quot%3B%26gt%3BGet%26lt%3B%2Fspan%26gt%3B%26lt%3Bspan%20style%3D%26quot%3Bbackground-color%3A%20initial%3B%26quot%3B%26gt%3BSupportRequest%26lt%3B%2Fspan%26gt%3B%26lt%3B%2Fdiv%26gt%3B%26lt%3B%2Fspan%26gt%3B%26lt%3Bspan%20style%3D%26quot%3Btext-align%3A%20center%3B%20background-color%3A%20initial%3B%26quot%3B%26gt%3B%26lt%3Bdiv%20style%3D%26quot%3Btext-align%3A%20left%3B%26quot%3B%26gt%3B%26lt%3Bspan%20style%3D%26quot%3Bbackground-color%3A%20initial%3B%26quot%3B%26gt%3BGet%26lt%3B%2Fspan%26gt%3B%26lt%3Bspan%20style%3D%26quot%3Bbackground-color%3A%20initial%3B%26quot%3B%26gt%3BSupportRequests%26lt%3B%2Fspan%26gt%3B%26lt%3B%2Fdiv%26gt%3B%26lt%3Bdiv%20style%3D%26quot%3Btext-align%3A%20left%3B%26quot%3B%26gt%3B%26lt%3Bbr%26gt%3B%26lt%3B%2Fdiv%26gt%3B%26lt%3B%2Fspan%26gt%3B%26lt%3B%2Fdiv%26gt%3B%26lt%3B%2Fspan%26gt%3B%26lt%3B%2Fdiv%26gt%3B%26lt%3B%2Fspan%26gt%3B%22%20style%3D%22rounded%3D0%3BwhiteSpace%3Dwrap%3Bhtml%3D1%3Balign%3Dleft%3BstrokeColor%3Dnone%3B%22%20vertex%3D%221%22%20parent%3D%221%22%3E%3CmxGeometry%20x%3D%22822.5%22%20y%3D%22-582.5%22%20width%3D%22167.5%22%20height%3D%22260%22%20as%3D%22geometry%22%2F%3E%3C%2FmxCell%3E%3C%2Froot%3E%3C%2FmxGraphModel%3&lt;/span&gt;&lt;span style=&quot;background-color: initial;&quot;&gt;CreateOrder&lt;/span&gt;&lt;/div&gt;&lt;span style=&quot;background-color: initial;&quot;&gt;&lt;div style=&quot;&quot;&gt;&lt;span style=&quot;text-align: center; background-color: initial;&quot;&gt;&lt;div style=&quot;text-align: left;&quot;&gt;&lt;span style=&quot;text-align: center; background-color: initial;&quot;&gt;&lt;div style=&quot;text-align: left;&quot;&gt;&lt;div style=&quot;&quot;&gt;GetOrder&lt;/div&gt;&lt;div style=&quot;&quot;&gt;GetOrders&lt;/div&gt;&lt;div style=&quot;&quot;&gt;SaveOrder&lt;/div&gt;&lt;div style=&quot;&quot;&gt;DeleteOrder&lt;/div&gt;&lt;div style=&quot;&quot;&gt;ApproveOrder&lt;/div&gt;&lt;div style=&quot;&quot;&gt;&lt;br&gt;&lt;/div&gt;&lt;div style=&quot;&quot;&gt;&lt;b&gt;Поток 4&lt;/b&gt;&lt;br&gt;&lt;/div&gt;&lt;div style=&quot;&quot;&gt;&lt;div style=&quot;&quot;&gt;&lt;span style=&quot;background-color: initial;&quot;&gt;Create&lt;/span&gt;&lt;span style=&quot;background-color: initial;&quot;&gt;Service&lt;/span&gt;&lt;/div&gt;&lt;span style=&quot;background-color: initial;&quot;&gt;DeleteService&lt;/span&gt;&lt;/div&gt;&lt;div style=&quot;&quot;&gt;&lt;span style=&quot;background-color: initial;&quot;&gt;SaveService&lt;/span&gt;&lt;/div&gt;&lt;div style=&quot;&quot;&gt;&lt;span style=&quot;background-color: initial;&quot;&gt;GetService&lt;/span&gt;&lt;/div&gt;&lt;div style=&quot;&quot;&gt;&lt;span style=&quot;background-color: initial;&quot;&gt;GetServices&lt;/span&gt;&lt;/div&gt;&lt;/div&gt;&lt;/span&gt;&lt;/div&gt;&lt;/span&gt;&lt;/div&gt;&lt;/span&gt;" style="rounded=0;whiteSpace=wrap;html=1;align=left;strokeColor=none;verticalAlign=top;" parent="1" vertex="1">
          <mxGeometry x="1218.32" y="-622.25" width="120" height="228" as="geometry" />
        </mxCell>
        <mxCell id="Xtlks4UdEk3piKS54iS9-27" value="&lt;div style=&quot;&quot;&gt;&lt;span style=&quot;background-color: initial;&quot;&gt;Create&lt;/span&gt;&lt;/div&gt;&lt;span style=&quot;background-color: initial;&quot;&gt;&lt;div style=&quot;&quot;&gt;&lt;span style=&quot;background-color: initial;&quot;&gt;Delete&lt;/span&gt;&lt;/div&gt;&lt;/span&gt;&lt;span style=&quot;background-color: initial;&quot;&gt;&lt;div style=&quot;&quot;&gt;&lt;span style=&quot;background-color: initial;&quot;&gt;Save&lt;/span&gt;&lt;/div&gt;&lt;/span&gt;&lt;span style=&quot;background-color: initial;&quot;&gt;&lt;div style=&quot;&quot;&gt;&lt;span style=&quot;background-color: initial;&quot;&gt;GetService&lt;/span&gt;&lt;/div&gt;&lt;/span&gt;&lt;span style=&quot;background-color: initial;&quot;&gt;&lt;div style=&quot;&quot;&gt;&lt;span style=&quot;background-color: initial;&quot;&gt;GetServices&lt;/span&gt;&lt;/div&gt;&lt;/span&gt;" style="rounded=1;whiteSpace=wrap;html=1;align=left;fillColor=#0066CC;fontColor=#FFFFFF;" parent="1" vertex="1">
          <mxGeometry x="882.5" y="350" width="157.5" height="90" as="geometry" />
        </mxCell>
        <mxCell id="Xtlks4UdEk3piKS54iS9-28" value="БД&lt;div&gt;Service&lt;/div&gt;" style="shape=cylinder3;whiteSpace=wrap;html=1;boundedLbl=1;backgroundOutline=1;size=15;strokeColor=#FF3333;fillColor=#b0e3e6;" parent="1" vertex="1">
          <mxGeometry x="1031.75" y="430" width="108.25" height="70" as="geometry" />
        </mxCell>
        <mxCell id="Xtlks4UdEk3piKS54iS9-30" value="&lt;div style=&quot;&quot;&gt;&lt;span style=&quot;background-color: initial;&quot;&gt;Create&lt;/span&gt;&lt;span style=&quot;background-color: initial;&quot;&gt;Service&lt;/span&gt;&lt;/div&gt;&lt;span style=&quot;background-color: initial;&quot;&gt;&lt;div style=&quot;&quot;&gt;&lt;span style=&quot;background-color: initial;&quot;&gt;Delete&lt;/span&gt;&lt;span style=&quot;background-color: initial;&quot;&gt;Service&lt;/span&gt;&lt;/div&gt;&lt;/span&gt;&lt;span style=&quot;background-color: initial;&quot;&gt;&lt;div style=&quot;&quot;&gt;&lt;span style=&quot;background-color: initial;&quot;&gt;Save&lt;/span&gt;&lt;span style=&quot;background-color: initial;&quot;&gt;Service&lt;/span&gt;&lt;/div&gt;&lt;/span&gt;&lt;span style=&quot;background-color: initial;&quot;&gt;&lt;div style=&quot;&quot;&gt;&lt;span style=&quot;background-color: initial;&quot;&gt;GetService&lt;/span&gt;&lt;/div&gt;&lt;/span&gt;&lt;span style=&quot;background-color: initial;&quot;&gt;&lt;div style=&quot;&quot;&gt;&lt;span style=&quot;background-color: initial;&quot;&gt;GetServices&lt;/span&gt;&lt;/div&gt;&lt;/span&gt;" style="rounded=1;whiteSpace=wrap;html=1;align=left;fillColor=#0066CC;fontColor=#FFFFFF;" parent="1" vertex="1">
          <mxGeometry x="1220" y="195" width="160" height="80" as="geometry" />
        </mxCell>
        <mxCell id="Xtlks4UdEk3piKS54iS9-31" value="" style="endArrow=classic;startArrow=classic;html=1;rounded=0;strokeColor=#FF0000;strokeWidth=3;entryX=0;entryY=0.5;entryDx=0;entryDy=0;exitX=0.984;exitY=0.371;exitDx=0;exitDy=0;exitPerimeter=0;" parent="1" source="Xtlks4UdEk3piKS54iS9-27" target="Xtlks4UdEk3piKS54iS9-30" edge="1">
          <mxGeometry width="50" height="50" relative="1" as="geometry">
            <mxPoint x="1093" y="375.25" as="sourcePoint" />
            <mxPoint x="1240" y="362.25" as="targetPoint" />
            <Array as="points">
              <mxPoint x="1160" y="383" />
              <mxPoint x="1160" y="235" />
            </Array>
          </mxGeometry>
        </mxCell>
        <mxCell id="Xtlks4UdEk3piKS54iS9-33" value="&lt;b&gt;&lt;font color=&quot;#cc0000&quot;&gt;Поток 4&lt;/font&gt;&lt;/b&gt;" style="edgeLabel;html=1;align=center;verticalAlign=middle;resizable=0;points=[];" parent="Xtlks4UdEk3piKS54iS9-31" vertex="1" connectable="0">
          <mxGeometry x="-0.0633" y="3" relative="1" as="geometry">
            <mxPoint x="6" y="-21" as="offset" />
          </mxGeometry>
        </mxCell>
        <mxCell id="Xtlks4UdEk3piKS54iS9-34" value="&lt;div style=&quot;text-align: left;&quot;&gt;&lt;span style=&quot;background-color: initial;&quot;&gt;Create&lt;/span&gt;&lt;/div&gt;&lt;span style=&quot;background-color: initial;&quot;&gt;&lt;div style=&quot;text-align: left;&quot;&gt;&lt;span style=&quot;background-color: initial;&quot;&gt;Delete&lt;/span&gt;&lt;/div&gt;&lt;/span&gt;&lt;span style=&quot;background-color: initial;&quot;&gt;&lt;div style=&quot;text-align: left;&quot;&gt;&lt;span style=&quot;background-color: initial;&quot;&gt;Save&lt;/span&gt;&lt;/div&gt;&lt;/span&gt;&lt;span style=&quot;background-color: initial;&quot;&gt;&lt;div style=&quot;text-align: left;&quot;&gt;&lt;span style=&quot;background-color: initial;&quot;&gt;GetAuction&lt;/span&gt;&lt;/div&gt;&lt;/span&gt;&lt;span style=&quot;background-color: initial;&quot;&gt;&lt;div style=&quot;text-align: left;&quot;&gt;&lt;span style=&quot;background-color: initial;&quot;&gt;GetAuctions&lt;/span&gt;&lt;/div&gt;&lt;/span&gt;&lt;span style=&quot;white-space-collapse: preserve; background-color: initial;&quot;&gt;&lt;div style=&quot;text-align: left;&quot;&gt;&lt;span style=&quot;background-color: initial;&quot;&gt;CreateRequestOnAuction&lt;/span&gt;&lt;/div&gt;&lt;/span&gt;&lt;span style=&quot;background-color: initial;&quot;&gt;&lt;div style=&quot;text-align: left;&quot;&gt;&lt;span style=&quot;background-color: initial;&quot;&gt;UpdateBids&lt;/span&gt;&lt;/div&gt;&lt;/span&gt;&lt;span style=&quot;background-color: initial;&quot;&gt;&lt;div style=&quot;text-align: left;&quot;&gt;&lt;span style=&quot;background-color: initial;&quot;&gt;NotificationP&lt;/span&gt;&lt;span class=&quot;EzKURWReUAB5oZgtQNkl&quot; data-src-align=&quot;0:8&quot; style=&quot;background-color: initial; white-space-collapse: preserve;&quot;&gt;articipant&lt;/span&gt;&lt;/div&gt;&lt;/span&gt;&lt;span style=&quot;background-color: initial;&quot;&gt;&lt;div style=&quot;text-align: left;&quot;&gt;&lt;span style=&quot;background-color: initial;&quot;&gt;ProcessNewRequest&lt;/span&gt;&lt;/div&gt;&lt;/span&gt;&lt;span style=&quot;background-color: initial;&quot;&gt;&lt;div style=&quot;text-align: left;&quot;&gt;&lt;span style=&quot;background-color: initial;&quot;&gt;UpdateStatus&lt;/span&gt;&lt;/div&gt;&lt;/span&gt;" style="rounded=1;whiteSpace=wrap;html=1;fillColor=#0066CC;fontColor=#FFFFFF;strokeColor=default;align=center;verticalAlign=middle;fontFamily=Helvetica;fontSize=12;" parent="1" vertex="1">
          <mxGeometry x="886" y="564" width="154" height="160" as="geometry" />
        </mxCell>
        <mxCell id="Xtlks4UdEk3piKS54iS9-35" value="БД&lt;div&gt;Auction&lt;/div&gt;" style="shape=cylinder3;whiteSpace=wrap;html=1;boundedLbl=1;backgroundOutline=1;size=15;strokeColor=#FF3333;fillColor=#b0e3e6;" parent="1" vertex="1">
          <mxGeometry x="1031.75" y="690" width="108.25" height="70" as="geometry" />
        </mxCell>
        <mxCell id="Xtlks4UdEk3piKS54iS9-36" value="&lt;div style=&quot;text-align: left;&quot;&gt;&lt;span style=&quot;background-color: initial;&quot;&gt;Create&lt;/span&gt;&lt;span style=&quot;background-color: initial;&quot;&gt;Auction&lt;/span&gt;&lt;/div&gt;&lt;span style=&quot;background-color: initial;&quot;&gt;&lt;div style=&quot;text-align: left;&quot;&gt;&lt;span style=&quot;background-color: initial;&quot;&gt;Delete&lt;/span&gt;&lt;span style=&quot;background-color: initial;&quot;&gt;Auction&lt;/span&gt;&lt;/div&gt;&lt;/span&gt;&lt;span style=&quot;background-color: initial;&quot;&gt;&lt;div style=&quot;text-align: left;&quot;&gt;&lt;span style=&quot;background-color: initial;&quot;&gt;Save&lt;/span&gt;&lt;span style=&quot;background-color: initial;&quot;&gt;Auction&lt;/span&gt;&lt;/div&gt;&lt;/span&gt;&lt;span style=&quot;background-color: initial;&quot;&gt;&lt;div style=&quot;text-align: left;&quot;&gt;&lt;span style=&quot;background-color: initial;&quot;&gt;GetAuction&lt;/span&gt;&lt;/div&gt;&lt;/span&gt;&lt;span style=&quot;background-color: initial;&quot;&gt;&lt;div style=&quot;text-align: left;&quot;&gt;&lt;span style=&quot;background-color: initial;&quot;&gt;GetAuctions&lt;/span&gt;&lt;/div&gt;&lt;/span&gt;&lt;span style=&quot;white-space-collapse: preserve; background-color: initial;&quot;&gt;&lt;div style=&quot;text-align: left;&quot;&gt;&lt;span style=&quot;background-color: initial;&quot;&gt;CreateRequestOnAuction&lt;/span&gt;&lt;/div&gt;&lt;/span&gt;&lt;span style=&quot;background-color: initial;&quot;&gt;&lt;div style=&quot;text-align: left;&quot;&gt;&lt;span style=&quot;background-color: initial;&quot;&gt;UpdateBids&lt;/span&gt;&lt;/div&gt;&lt;/span&gt;&lt;span style=&quot;background-color: initial;&quot;&gt;&lt;div style=&quot;text-align: left;&quot;&gt;&lt;span style=&quot;background-color: initial;&quot;&gt;NotificationP&lt;/span&gt;&lt;span class=&quot;EzKURWReUAB5oZgtQNkl&quot; data-src-align=&quot;0:8&quot; style=&quot;background-color: initial; white-space-collapse: preserve;&quot;&gt;articipant&lt;/span&gt;&lt;/div&gt;&lt;/span&gt;&lt;span style=&quot;background-color: initial;&quot;&gt;&lt;div style=&quot;text-align: left;&quot;&gt;&lt;span style=&quot;background-color: initial;&quot;&gt;ProcessNewRequest&lt;/span&gt;&lt;/div&gt;&lt;/span&gt;&lt;span style=&quot;background-color: initial;&quot;&gt;&lt;div style=&quot;text-align: left;&quot;&gt;&lt;span style=&quot;background-color: initial;&quot;&gt;UpdateStatus&lt;/span&gt;&lt;span style=&quot;background-color: initial;&quot;&gt;Auction&lt;/span&gt;&lt;/div&gt;&lt;/span&gt;" style="rounded=1;whiteSpace=wrap;html=1;fillColor=#0066CC;fontColor=#FFFFFF;strokeColor=default;align=center;verticalAlign=middle;fontFamily=Helvetica;fontSize=12;" parent="1" vertex="1">
          <mxGeometry x="1220" y="295" width="160" height="160" as="geometry" />
        </mxCell>
        <mxCell id="Xtlks4UdEk3piKS54iS9-37" value="" style="endArrow=classic;startArrow=classic;html=1;rounded=0;strokeColor=#FF0000;strokeWidth=3;entryX=-0.004;entryY=0.638;entryDx=0;entryDy=0;exitX=1.007;exitY=0.466;exitDx=0;exitDy=0;exitPerimeter=0;entryPerimeter=0;" parent="1" source="Xtlks4UdEk3piKS54iS9-34" target="Xtlks4UdEk3piKS54iS9-36" edge="1">
          <mxGeometry width="50" height="50" relative="1" as="geometry">
            <mxPoint x="1050" y="615" as="sourcePoint" />
            <mxPoint x="1203" y="470" as="targetPoint" />
            <Array as="points">
              <mxPoint x="1160" y="640" />
              <mxPoint x="1160" y="397" />
            </Array>
          </mxGeometry>
        </mxCell>
        <mxCell id="Xtlks4UdEk3piKS54iS9-39" value="&lt;b&gt;&lt;font color=&quot;#cc0000&quot;&gt;Поток 7&lt;/font&gt;&lt;/b&gt;" style="edgeLabel;html=1;align=center;verticalAlign=middle;resizable=0;points=[];" parent="Xtlks4UdEk3piKS54iS9-37" vertex="1" connectable="0">
          <mxGeometry x="0.1207" relative="1" as="geometry">
            <mxPoint x="3" y="-113" as="offset" />
          </mxGeometry>
        </mxCell>
        <mxCell id="Xtlks4UdEk3piKS54iS9-40" value="&lt;div style=&quot;&quot;&gt;&lt;b&gt;Поток 7&lt;/b&gt;&lt;/div&gt;&lt;div style=&quot;&quot;&gt;&lt;div style=&quot;&quot;&gt;&lt;span style=&quot;background-color: initial;&quot;&gt;Create&lt;/span&gt;&lt;span style=&quot;background-color: initial;&quot;&gt;Auction&lt;/span&gt;&lt;/div&gt;&lt;span style=&quot;text-align: center; background-color: initial;&quot;&gt;&lt;div style=&quot;text-align: left;&quot;&gt;&lt;span style=&quot;background-color: initial;&quot;&gt;Delete&lt;/span&gt;&lt;span style=&quot;background-color: initial;&quot;&gt;Auction&lt;/span&gt;&lt;/div&gt;&lt;/span&gt;&lt;span style=&quot;text-align: center; background-color: initial;&quot;&gt;&lt;div style=&quot;text-align: left;&quot;&gt;&lt;span style=&quot;background-color: initial;&quot;&gt;Save&lt;/span&gt;&lt;span style=&quot;background-color: initial;&quot;&gt;Auction&lt;/span&gt;&lt;/div&gt;&lt;/span&gt;&lt;span style=&quot;text-align: center; background-color: initial;&quot;&gt;&lt;div style=&quot;text-align: left;&quot;&gt;&lt;span style=&quot;background-color: initial;&quot;&gt;GetAuction&lt;/span&gt;&lt;/div&gt;&lt;/span&gt;&lt;span style=&quot;text-align: center; background-color: initial;&quot;&gt;&lt;div style=&quot;text-align: left;&quot;&gt;&lt;span style=&quot;background-color: initial;&quot;&gt;GetAuctions&lt;/span&gt;&lt;/div&gt;&lt;/span&gt;&lt;span style=&quot;text-align: center; white-space-collapse: preserve; background-color: initial;&quot;&gt;&lt;div style=&quot;text-align: left;&quot;&gt;&lt;span style=&quot;background-color: initial;&quot;&gt;CreateRequestOnAuction&lt;/span&gt;&lt;/div&gt;&lt;/span&gt;&lt;span style=&quot;text-align: center; background-color: initial;&quot;&gt;&lt;div style=&quot;text-align: left;&quot;&gt;&lt;span style=&quot;background-color: initial;&quot;&gt;UpdateBids&lt;/span&gt;&lt;/div&gt;&lt;/span&gt;&lt;span style=&quot;text-align: center; background-color: initial;&quot;&gt;&lt;div style=&quot;text-align: left;&quot;&gt;&lt;span style=&quot;background-color: initial;&quot;&gt;NotificationP&lt;/span&gt;&lt;span style=&quot;background-color: initial; white-space-collapse: preserve;&quot; class=&quot;EzKURWReUAB5oZgtQNkl&quot; data-src-align=&quot;0:8&quot;&gt;articipant&lt;/span&gt;&lt;/div&gt;&lt;/span&gt;&lt;span style=&quot;text-align: center; background-color: initial;&quot;&gt;&lt;div style=&quot;text-align: left;&quot;&gt;&lt;span style=&quot;background-color: initial;&quot;&gt;ProcessNewRequest&lt;/span&gt;&lt;/div&gt;&lt;/span&gt;&lt;span style=&quot;text-align: center; background-color: initial;&quot;&gt;&lt;div style=&quot;text-align: left;&quot;&gt;&lt;span style=&quot;background-color: initial;&quot;&gt;UpdateStatus&lt;/span&gt;&lt;span style=&quot;background-color: initial;&quot;&gt;Auction&lt;/span&gt;&lt;/div&gt;&lt;div style=&quot;text-align: left;&quot;&gt;&lt;span style=&quot;background-color: initial;&quot;&gt;&lt;br&gt;&lt;/span&gt;&lt;/div&gt;&lt;div style=&quot;text-align: left;&quot;&gt;&lt;span style=&quot;background-color: initial;&quot;&gt;&lt;b&gt;Поток 8&lt;/b&gt;&lt;/span&gt;&lt;/div&gt;&lt;div style=&quot;text-align: left;&quot;&gt;&lt;div style=&quot;&quot;&gt;&lt;span style=&quot;background-color: initial; white-space-collapse: preserve;&quot;&gt;Create&lt;/span&gt;&lt;span style=&quot;background-color: initial;&quot;&gt;Application&lt;/span&gt;&lt;/div&gt;&lt;span style=&quot;white-space-collapse: preserve; background-color: initial;&quot;&gt;Delete&lt;/span&gt;&lt;span style=&quot;background-color: initial;&quot;&gt;Application&lt;/span&gt;&lt;/div&gt;&lt;/span&gt;&lt;span style=&quot;text-align: center; background-color: initial;&quot;&gt;&lt;div style=&quot;text-align: left;&quot;&gt;&lt;span style=&quot;white-space-collapse: preserve; background-color: initial;&quot;&gt;Save&lt;/span&gt;&lt;span style=&quot;background-color: initial;&quot;&gt;Application&lt;/span&gt;&lt;/div&gt;&lt;/span&gt;&lt;span style=&quot;text-align: center; background-color: initial;&quot;&gt;&lt;div style=&quot;text-align: left;&quot;&gt;&lt;span style=&quot;background-color: initial;&quot;&gt;GetApplication&lt;/span&gt;&lt;/div&gt;&lt;div style=&quot;text-align: left;&quot;&gt;&lt;span style=&quot;background-color: initial;&quot;&gt;GetApplications&lt;/span&gt;&lt;/div&gt;&lt;div style=&quot;text-align: left;&quot;&gt;&lt;span style=&quot;white-space-collapse: preserve; background-color: initial;&quot;&gt;UpdateStatus&lt;/span&gt;&lt;/div&gt;&lt;/span&gt;&lt;/div&gt;&lt;div style=&quot;&quot;&gt;&lt;span style=&quot;font-family: monospace; font-size: 0px; text-wrap: nowrap;&quot;&gt;%3CmxGraphModel%3E%3Croot%3E%3CmxCell%20id%3D%220%22%2F%3E%3CmxCell%20id%3D%221%22%20parent%3D%220%22%2F%3E%3CmxCell%20id%3D%222%22%20value%3D%22%26lt%3Bdiv%20style%3D%26quot%3B%26quot%3B%26gt%3B%26lt%3Bb%26gt%3B%D0%9F%D0%BE%D1%82%D0%BE%D0%BA%203%26lt%3B%2Fb%26gt%3B%26lt%3B%2Fdiv%26gt%3B%26lt%3Bdiv%20style%3D%26quot%3B%26quot%3B%26gt%3B%26lt%3Bspan%20style%3D%26quot%3Bfont-family%3A%20monospace%3B%20font-size%3A%200px%3B%20text-wrap%3A%20nowrap%3B%26quot%3B%26gt%3B%253CmxGraphModel%253E%253Croot%253E%253CmxCell%2520id%253D%25220%2522%252F%253E%253CmxCell%2520id%253D%25221%2522%2520parent%253D%25220%2522%252F%253E%253CmxCell%2520id%253D%25222%2522%2520value%253D%2522%2526lt%253Bdiv%2520style%253D%2526quot%253B%2526quot%253B%2526gt%253B%2526lt%253Bb%2526gt%253B%25D0%259F%25D0%25BE%25D1%2582%25D0%25BE%25D0%25BA%25201%2526lt%253B%252Fb%2526gt%253B%2526lt%253B%252Fdiv%2526gt%253B%2526lt%253Bdiv%2520style%253D%2526quot%253B%2526quot%253B%2526gt%253B%2526lt%253Bdiv%2526gt%253B%2526lt%253Bspan%2520style%253D%2526quot%253Bbackground-color%253A%2520initial%253B%2526quot%253B%2526gt%253BRegClient%2526lt%253B%252Fspan%2526gt%253B%2526lt%253Bbr%2526gt%253B%2526lt%253Bspan%2520style%253D%2526quot%253Bbackground-color%253A%2520initial%253B%2526quot%253B%2526gt%253BGetClient%2526lt%253B%252Fspan%2526gt%253B%2526lt%253Bbr%2526gt%253B%2526lt%253Bspan%2520style%253D%2526quot%253Bbackground-color%253A%2520initial%253B%2526quot%253B%2526gt%253BSaveClient%2526lt%253B%252Fspan%2526gt%253B%2526lt%253Bbr%2526gt%253B%2526lt%253B%252Fdiv%2526gt%253B%2526lt%253Bdiv%2526gt%253BSetRoles%2526lt%253B%252Fdiv%2526gt%253B%2526lt%253Bdiv%2526gt%253B%2526lt%253Bfont%2520color%253D%2526quot%253B%2523330000%2526quot%253B%2526gt%253B%2526lt%253Bbr%2526gt%253B%2526lt%253B%252Ffont%2526gt%253B%2526lt%253B%252Fdiv%2526gt%253B%2526lt%253Bdiv%2526gt%253B%2526lt%253Bfont%2520color%253D%2526quot%253B%2523330000%2526quot%253B%2526gt%253B%2526lt%253Bb%2526gt%253B%25D0%259F%25D0%25BE%25D1%2582%25D0%25BE%25D0%25BA%25202%2526lt%253B%252Fb%2526gt%253B%2526lt%253B%252Ffont%2526gt%253B%2526lt%253B%252Fdiv%2526gt%253B%2526lt%253Bdiv%2526gt%253B%2526lt%253Bfont%2520color%253D%2526quot%253B%2523330000%2526quot%253B%2526gt%253B%2526lt%253Bspan%2520style%253D%2526quot%253Bbackground-color%253A%2520initial%253B%2526quot%253B%2526gt%253BGetClient%2526lt%253B%252Fspan%2526gt%253B%2526lt%253Bbr%2520style%253D%2526quot%253B%2526quot%253B%2526gt%253B%2526lt%253Bspan%2520style%253D%2526quot%253Bbackground-color%253A%2520initial%253B%2526quot%253B%2526gt%253BSaveClient%2526lt%253B%252Fspan%2526gt%253B%2526lt%253Bbr%2520style%253D%2526quot%253B%2526quot%253B%2526gt%253B%2526lt%253Bspan%2520style%253D%2526quot%253Bbackground-color%253A%2520initial%253B%2526quot%253B%2526gt%253BSetRoles%2526lt%253B%252Fspan%2526gt%253B%2526lt%253Bbr%2520style%253D%2526quot%253B%2526quot%253B%2526gt%253B%2526lt%253Bspan%2520style%253D%2526quot%253Bbackground-color%253A%2520initial%253B%2526quot%253B%2526gt%253BGetClients%2526lt%253B%252Fspan%2526gt%253B%2526lt%253B%252Ffont%2526gt%253B%2526lt%253Bbr%2526gt%253B%2526lt%253B%252Fdiv%2526gt%253B%2526lt%253B%252Fdiv%2526gt%253B%2526lt%253Bspan%2520style%253D%2526quot%253Bbackground-color%253A%2520initial%253B%2526quot%253B%2526gt%253B%2526lt%253Bdiv%2520style%253D%2526quot%253B%2526quot%253B%2526gt%253B%2526lt%253Bbr%2526gt%253B%2526lt%253B%252Fdiv%2526gt%253B%2526lt%253Bdiv%2520style%253D%2526quot%253B%2526quot%253B%2526gt%253B%2526lt%253Bspan%2520style%253D%2526quot%253Btext-align%253A%2520center%253B%2520background-color%253A%2520initial%253B%2526quot%253B%2526gt%253B%2526lt%253Bdiv%2520style%253D%2526quot%253Btext-align%253A%2520left%253B%2526quot%253B%2526gt%253B%2526lt%253Bb%2520style%253D%2526quot%253Bfont-size%253A%252011px%253B%2520text-align%253A%2520center%253B%2520text-wrap%253A%2520nowrap%253B%2526quot%253B%2526gt%253B%25D0%259F%25D0%25BE%25D1%2582%25D0%25BE%25D0%25BA%25205%252C6%2526lt%253B%252Fb%2526gt%253B%2526lt%253Bspan%2520style%253D%2526quot%253Bbackground-color%253A%2520initial%253B%2526quot%253B%2526gt%253B%2526lt%253Bbr%2526gt%253B%2526lt%253B%252Fspan%2526gt%253B%2526lt%253B%252Fdiv%2526gt%253B%2526lt%253Bdiv%2520style%253D%2526quot%253Btext-align%253A%2520left%253B%2526quot%253B%2526gt%253B%2526lt%253Bdiv%2526gt%253B%2526lt%253Bspan%2520style%253D%2526quot%253Bbackground-color%253A%2520initial%253B%2526quot%253B%2526gt%253BCreate%2526lt%253B%252Fspan%2526gt%253B%2526lt%253Bspan%2520style%253D%2526quot%253Bbackground-color%253A%2520initial%253B%2526quot%253B%2526gt%253BSupportRequest%2526lt%253B%252Fspan%2526gt%253B%2526lt%253B%252Fdiv%2526gt%253B%2526lt%253Bspan%2520style%253D%2526quot%253Btext-align%253A%2520center%253B%2520background-color%253A%2520initial%253B%2526quot%253B%2526gt%253B%2526lt%253Bdiv%2520style%253D%2526quot%253Btext-align%253A%2520left%253B%2526quot%253B%2526gt%253B%2526lt%253Bspan%2520style%253D%2526quot%253Bbackground-color%253A%2520initial%253B%2526quot%253B%2526gt%253BSave%2526lt%253B%252Fspan%2526gt%253B%2526lt%253Bspan%2520style%253D%2526quot%253Bbackground-color%253A%2520initial%253B%2526quot%253B%2526gt%253BSupportRequest%2526lt%253B%252Fspan%2526gt%253B%2526lt%253B%252Fdiv%2526gt%253B%2526lt%253B%252Fspan%2526gt%253B%2526lt%253Bspan%2520style%253D%2526quot%253Btext-align%253A%2520center%253B%2520background-color%253A%2520initial%253B%2526quot%253B%2526gt%253B%2526lt%253Bdiv%2520style%253D%2526quot%253Btext-align%253A%2520left%253B%2526quot%253B%2526gt%253B%2526lt%253Bspan%2520style%253D%2526quot%253Bbackground-color%253A%2520initial%253B%2526quot%253B%2526gt%253BChangeStarusRequest%2526lt%253B%252Fspan%2526gt%253B%2526lt%253B%252Fdiv%2526gt%253B%2526lt%253B%252Fspan%2526gt%253B%2526lt%253Bspan%2520style%253D%2526quot%253Btext-align%253A%2520center%253B%2520background-color%253A%2520initial%253B%2526quot%253B%2526gt%253B%2526lt%253Bdiv%2520style%253D%2526quot%253Btext-align%253A%2520left%253B%2526quot%253B%2526gt%253B%2526lt%253Bspan%2520style%253D%2526quot%253Bbackground-color%253A%2520initial%253B%2526quot%253B%2526gt%253BGet%2526lt%253B%252Fspan%2526gt%253B%2526lt%253Bspan%2520style%253D%2526quot%253Bbackground-color%253A%2520initial%253B%2526quot%253B%2526gt%253BSupportRequest%2526lt%253B%252Fspan%2526gt%253B%2526lt%253B%252Fdiv%2526gt%253B%2526lt%253B%252Fspan%2526gt%253B%2526lt%253Bspan%2520style%253D%2526quot%253Btext-align%253A%2520center%253B%2520background-color%253A%2520initial%253B%2526quot%253B%2526gt%253B%2526lt%253Bdiv%2520style%253D%2526quot%253Btext-align%253A%2520left%253B%2526quot%253B%2526gt%253B%2526lt%253Bspan%2520style%253D%2526quot%253Bbackground-color%253A%2520initial%253B%2526quot%253B%2526gt%253BGet%2526lt%253B%252Fspan%2526gt%253B%2526lt%253Bspan%2520style%253D%2526quot%253Bbackground-color%253A%2520initial%253B%2526quot%253B%2526gt%253BSupportRequests%2526lt%253B%252Fspan%2526gt%253B%2526lt%253B%252Fdiv%2526gt%253B%2526lt%253Bdiv%2520style%253D%2526quot%253Btext-align%253A%2520left%253B%2526quot%253B%2526gt%253B%2526lt%253Bbr%2526gt%253B%2526lt%253B%252Fdiv%2526gt%253B%2526lt%253B%252Fspan%2526gt%253B%2526lt%253B%252Fdiv%2526gt%253B%2526lt%253B%252Fspan%2526gt%253B%2526lt%253B%252Fdiv%2526gt%253B%2526lt%253B%252Fspan%2526gt%253B%2522%2520style%253D%2522rounded%253D0%253BwhiteSpace%253Dwrap%253Bhtml%253D1%253Balign%253Dleft%253BstrokeColor%253Dnone%253B%2522%2520vertex%253D%25221%2522%2520parent%253D%25221%2522%253E%253CmxGeometry%2520x%253D%2522822.5%2522%2520y%253D%2522-582.5%2522%2520width%253D%2522167.5%2522%2520height%253D%2522260%2522%2520as%253D%2522geometry%2522%252F%253E%253C%252FmxCell%253E%253C%252Froot%253E%253C%252FmxGraphModel%253%26lt%3B%2Fspan%26gt%3B%26lt%3Bspan%20style%3D%26quot%3Bbackground-color%3A%20initial%3B%26quot%3B%26gt%3BCreateOrder%26lt%3B%2Fspan%26gt%3B%26lt%3B%2Fdiv%26gt%3B%26lt%3Bspan%20style%3D%26quot%3Bbackground-color%3A%20initial%3B%26quot%3B%26gt%3B%26lt%3Bdiv%20style%3D%26quot%3B%26quot%3B%26gt%3B%26lt%3Bspan%20style%3D%26quot%3Btext-align%3A%20center%3B%20background-color%3A%20initial%3B%26quot%3B%26gt%3B%26lt%3Bdiv%20style%3D%26quot%3Btext-align%3A%20left%3B%26quot%3B%26gt%3B%26lt%3Bspan%20style%3D%26quot%3Btext-align%3A%20center%3B%20background-color%3A%20initial%3B%26quot%3B%26gt%3B%26lt%3Bdiv%20style%3D%26quot%3Btext-align%3A%20left%3B%26quot%3B%26gt%3B%26lt%3Bdiv%20style%3D%26quot%3B%26quot%3B%26gt%3BGetOrder%26lt%3B%2Fdiv%26gt%3B%26lt%3Bdiv%20style%3D%26quot%3B%26quot%3B%26gt%3BGetOrders%26lt%3B%2Fdiv%26gt%3B%26lt%3Bdiv%20style%3D%26quot%3B%26quot%3B%26gt%3BSaveOrder%26lt%3B%2Fdiv%26gt%3B%26lt%3Bdiv%20style%3D%26quot%3B%26quot%3B%26gt%3BDeleteOrder%26lt%3B%2Fdiv%26gt%3B%26lt%3Bdiv%20style%3D%26quot%3B%26quot%3B%26gt%3BApproveOrder%26lt%3B%2Fdiv%26gt%3B%26lt%3Bdiv%20style%3D%26quot%3B%26quot%3B%26gt%3B%26lt%3Bbr%26gt%3B%26lt%3B%2Fdiv%26gt%3B%26lt%3Bdiv%20style%3D%26quot%3B%26quot%3B%26gt%3B%26lt%3Bb%26gt%3B%D0%9F%D0%BE%D1%82%D0%BE%D0%BA%204%26lt%3B%2Fb%26gt%3B%26lt%3Bbr%26gt%3B%26lt%3B%2Fdiv%26gt%3B%26lt%3Bdiv%20style%3D%26quot%3B%26quot%3B%26gt%3B%26lt%3Bdiv%20style%3D%26quot%3B%26quot%3B%26gt%3B%26lt%3Bspan%20style%3D%26quot%3Bbackground-color%3A%20initial%3B%26quot%3B%26gt%3BCreate%26lt%3B%2Fspan%26gt%3B%26lt%3Bspan%20style%3D%26quot%3Bbackground-color%3A%20initial%3B%26quot%3B%26gt%3BService%26lt%3B%2Fspan%26gt%3B%26lt%3B%2Fdiv%26gt%3B%26lt%3Bspan%20style%3D%26quot%3Bbackground-color%3A%20initial%3B%26quot%3B%26gt%3BDeleteService%26lt%3B%2Fspan%26gt%3B%26lt%3B%2Fdiv%26gt%3B%26lt%3Bdiv%20style%3D%26quot%3B%26quot%3B%26gt%3B%26lt%3Bspan%20style%3D%26quot%3Bbackground-color%3A%20initial%3B%26quot%3B%26gt%3BSaveService%26lt%3B%2Fspan%26gt%3B%26lt%3B%2Fdiv%26gt%3B%26lt%3Bdiv%20style%3D%26quot%3B%26quot%3B%26gt%3B%26lt%3Bspan%20style%3D%26quot%3Bbackground-color%3A%20initial%3B%26quot%3B%26gt%3BGetService%26lt%3B%2Fspan%26gt%3B%26lt%3B%2Fdiv%26gt%3B%26lt%3Bdiv%20style%3D%26quot%3B%26quot%3B%26gt%3B%26lt%3Bspan%20style%3D%26quot%3Bbackground-color%3A%20initial%3B%26quot%3B%26gt%3BGetServices%26lt%3B%2Fspan%26gt%3B%26lt%3B%2Fdiv%26gt%3B%26lt%3B%2Fdiv%26gt%3B%26lt%3B%2Fspan%26gt%3B%26lt%3B%2Fdiv%26gt%3B%26lt%3B%2Fspan%26gt%3B%26lt%3B%2Fdiv%26gt%3B%26lt%3B%2Fspan%26gt%3B%22%20style%3D%22rounded%3D0%3BwhiteSpace%3Dwrap%3Bhtml%3D1%3Balign%3Dleft%3BstrokeColor%3Dnone%3BverticalAlign%3Dtop%3B%22%20vertex%3D%221%22%20parent%3D%221%22%3E%3CmxGeometry%20x%3D%22990%22%20y%3D%22-598%22%20width%3D%22167.5%22%20height%3D%22228%22%20as%3D%22geometry%22%2F%3E%3C%2FmxCell%3E%3C%2Froot%3E%3C%2FmxGraphModel%3E&lt;/span&gt;&lt;br&gt;&lt;/div&gt;&lt;div style=&quot;&quot;&gt;&lt;span style=&quot;font-family: monospace; font-size: 0px; text-wrap: nowrap;&quot;&gt;&lt;br&gt;&lt;/span&gt;&lt;/div&gt;&lt;div style=&quot;&quot;&gt;&lt;span style=&quot;color: rgba(0, 0, 0, 0); font-family: monospace; font-size: 0px; text-wrap: nowrap;&quot;&gt;&lt;br&gt;&lt;/span&gt;&lt;/div&gt;" style="rounded=0;whiteSpace=wrap;html=1;align=left;strokeColor=none;verticalAlign=top;" parent="1" vertex="1">
          <mxGeometry x="1348.26" y="-622.5" width="160" height="288" as="geometry" />
        </mxCell>
        <mxCell id="Xtlks4UdEk3piKS54iS9-41" value="&lt;div style=&quot;&quot;&gt;&lt;span style=&quot;background-color: initial; white-space-collapse: preserve;&quot;&gt;Create&lt;/span&gt;&lt;/div&gt;&lt;span style=&quot;white-space-collapse: preserve; background-color: initial;&quot;&gt;&lt;div style=&quot;&quot;&gt;&lt;span style=&quot;background-color: initial;&quot;&gt;Delete&lt;/span&gt;&lt;/div&gt;&lt;/span&gt;&lt;span style=&quot;white-space-collapse: preserve; background-color: initial;&quot;&gt;&lt;div style=&quot;&quot;&gt;&lt;span style=&quot;background-color: initial;&quot;&gt;Save&lt;/span&gt;&lt;/div&gt;&lt;/span&gt;&lt;span style=&quot;background-color: initial;&quot;&gt;&lt;div style=&quot;&quot;&gt;&lt;span style=&quot;background-color: initial;&quot;&gt;GetApplication&lt;/span&gt;&lt;/div&gt;&lt;/span&gt;&lt;span style=&quot;background-color: initial;&quot;&gt;&lt;div style=&quot;&quot;&gt;&lt;span style=&quot;background-color: initial;&quot;&gt;GetApplications&lt;/span&gt;&lt;/div&gt;&lt;/span&gt;&lt;span style=&quot;white-space-collapse: preserve; background-color: initial;&quot;&gt;&lt;div style=&quot;&quot;&gt;&lt;span style=&quot;background-color: initial;&quot;&gt;UpdateStatus&lt;/span&gt;&lt;/div&gt;&lt;/span&gt;" style="rounded=1;whiteSpace=wrap;html=1;align=left;fillColor=#0066CC;fontColor=#FFFFFF;" parent="1" vertex="1">
          <mxGeometry x="886" y="799.5" width="164" height="100" as="geometry" />
        </mxCell>
        <mxCell id="Xtlks4UdEk3piKS54iS9-42" value="БД&lt;div&gt;&lt;span style=&quot;white-space-collapse: preserve;&quot;&gt;Application&lt;/span&gt;&lt;br&gt;&lt;/div&gt;" style="shape=cylinder3;whiteSpace=wrap;html=1;boundedLbl=1;backgroundOutline=1;size=15;strokeColor=#FF3333;fillColor=#b0e3e6;" parent="1" vertex="1">
          <mxGeometry x="1042.5" y="891" width="107.5" height="70" as="geometry" />
        </mxCell>
        <mxCell id="Xtlks4UdEk3piKS54iS9-43" value="&lt;div style=&quot;&quot;&gt;&lt;span style=&quot;background-color: initial; white-space-collapse: preserve;&quot;&gt;Create&lt;/span&gt;&lt;span style=&quot;background-color: initial;&quot;&gt;Application&lt;/span&gt;&lt;/div&gt;&lt;span style=&quot;white-space-collapse: preserve; background-color: initial;&quot;&gt;&lt;div style=&quot;&quot;&gt;&lt;span style=&quot;background-color: initial;&quot;&gt;Delete&lt;/span&gt;&lt;span style=&quot;background-color: initial; white-space-collapse: collapse;&quot;&gt;Application&lt;/span&gt;&lt;/div&gt;&lt;/span&gt;&lt;span style=&quot;white-space-collapse: preserve; background-color: initial;&quot;&gt;&lt;div style=&quot;&quot;&gt;&lt;span style=&quot;background-color: initial;&quot;&gt;Save&lt;/span&gt;&lt;span style=&quot;background-color: initial; white-space-collapse: collapse;&quot;&gt;Application&lt;/span&gt;&lt;/div&gt;&lt;/span&gt;&lt;span style=&quot;background-color: initial;&quot;&gt;&lt;div style=&quot;&quot;&gt;&lt;span style=&quot;background-color: initial;&quot;&gt;GetApplication&lt;/span&gt;&lt;/div&gt;&lt;/span&gt;&lt;span style=&quot;background-color: initial;&quot;&gt;&lt;div style=&quot;&quot;&gt;&lt;span style=&quot;background-color: initial;&quot;&gt;GetApplications&lt;/span&gt;&lt;/div&gt;&lt;/span&gt;&lt;span style=&quot;white-space-collapse: preserve; background-color: initial;&quot;&gt;&lt;div style=&quot;&quot;&gt;&lt;span style=&quot;background-color: initial;&quot;&gt;UpdateStatus&lt;/span&gt;&lt;span style=&quot;background-color: initial; white-space-collapse: collapse;&quot;&gt;Application&lt;/span&gt;&lt;/div&gt;&lt;/span&gt;" style="rounded=1;whiteSpace=wrap;html=1;align=left;fillColor=#0066CC;fontColor=#FFFFFF;" parent="1" vertex="1">
          <mxGeometry x="1220" y="475" width="160" height="100" as="geometry" />
        </mxCell>
        <mxCell id="Xtlks4UdEk3piKS54iS9-44" value="" style="endArrow=classic;startArrow=classic;html=1;rounded=0;strokeColor=#FF0000;strokeWidth=3;entryX=0;entryY=0.75;entryDx=0;entryDy=0;exitX=1;exitY=0.5;exitDx=0;exitDy=0;" parent="1" source="Xtlks4UdEk3piKS54iS9-41" target="Xtlks4UdEk3piKS54iS9-43" edge="1">
          <mxGeometry width="50" height="50" relative="1" as="geometry">
            <mxPoint x="1100" y="848" as="sourcePoint" />
            <mxPoint x="1258" y="630" as="targetPoint" />
            <Array as="points">
              <mxPoint x="1180" y="848" />
              <mxPoint x="1180" y="550" />
            </Array>
          </mxGeometry>
        </mxCell>
        <mxCell id="Xtlks4UdEk3piKS54iS9-46" value="&lt;b&gt;&lt;font color=&quot;#cc0000&quot;&gt;Поток 8&lt;/font&gt;&lt;/b&gt;" style="edgeLabel;html=1;align=center;verticalAlign=middle;resizable=0;points=[];" parent="Xtlks4UdEk3piKS54iS9-44" vertex="1" connectable="0">
          <mxGeometry x="0.442" y="2" relative="1" as="geometry">
            <mxPoint x="-58" y="209" as="offset" />
          </mxGeometry>
        </mxCell>
        <mxCell id="Xtlks4UdEk3piKS54iS9-47" value="&lt;div style=&quot;text-align: left;&quot;&gt;&lt;span style=&quot;background-color: initial; white-space-collapse: preserve;&quot;&gt;Initiate&lt;/span&gt;&lt;/div&gt;&lt;span style=&quot;white-space-collapse: preserve; background-color: initial;&quot;&gt;&lt;div style=&quot;text-align: left;&quot;&gt;&lt;span style=&quot;background-color: initial;&quot;&gt;Confirm&lt;/span&gt;&lt;/div&gt;&lt;/span&gt;&lt;span style=&quot;white-space-collapse: preserve; background-color: initial;&quot;&gt;&lt;div style=&quot;text-align: left;&quot;&gt;&lt;span style=&quot;background-color: initial;&quot;&gt;AccountingTransaction&lt;/span&gt;&lt;/div&gt;&lt;/span&gt;&lt;span style=&quot;white-space-collapse: preserve; background-color: initial;&quot;&gt;&lt;div style=&quot;text-align: left;&quot;&gt;&lt;span style=&quot;background-color: initial;&quot;&gt;GetStatus&lt;/span&gt;&lt;/div&gt;&lt;/span&gt;&lt;span class=&quot;EzKURWReUAB5oZgtQNkl&quot; data-src-align=&quot;0:12&quot; style=&quot;white-space-collapse: preserve; background-color: initial;&quot;&gt;&lt;div style=&quot;text-align: left;&quot;&gt;&lt;span class=&quot;EzKURWReUAB5oZgtQNkl&quot; data-src-align=&quot;0:12&quot; style=&quot;background-color: initial;&quot;&gt;ConfirmC&lt;/span&gt;&lt;span class=&quot;EzKURWReUAB5oZgtQNkl&quot; data-src-align=&quot;13:6&quot; style=&quot;background-color: initial;&quot;&gt;ancellation&lt;/span&gt;&lt;/div&gt;&lt;/span&gt;&lt;span style=&quot;white-space-collapse: preserve; background-color: initial;&quot;&gt;&lt;div style=&quot;text-align: left;&quot;&gt;&lt;span style=&quot;background-color: initial;&quot;&gt;GetPaymentTransaction&lt;/span&gt;&lt;/div&gt;&lt;/span&gt;&lt;span style=&quot;white-space-collapse: preserve; background-color: initial;&quot;&gt;&lt;div style=&quot;text-align: left;&quot;&gt;&lt;span style=&quot;background-color: initial;&quot;&gt;GetPaymentTransactions&lt;/span&gt;&lt;/div&gt;&lt;/span&gt;" style="rounded=1;whiteSpace=wrap;html=1;fillColor=#0066CC;fontColor=#FFFFFF;" parent="1" vertex="1">
          <mxGeometry x="880.5" y="1009" width="165" height="125" as="geometry" />
        </mxCell>
        <mxCell id="Xtlks4UdEk3piKS54iS9-50" value="БД&lt;div&gt;&lt;span style=&quot;white-space-collapse: preserve;&quot; data-src-align=&quot;0:9&quot; class=&quot;EzKURWReUAB5oZgtQNkl&quot;&gt;PaymentT&lt;/span&gt;&lt;span style=&quot;white-space-collapse: preserve;&quot; data-src-align=&quot;10:8&quot; class=&quot;EzKURWReUAB5oZgtQNkl&quot;&gt;ransaction&lt;/span&gt;&lt;br&gt;&lt;/div&gt;" style="shape=cylinder3;whiteSpace=wrap;html=1;boundedLbl=1;backgroundOutline=1;size=15;strokeColor=#FF3333;fillColor=#b0e3e6;" parent="1" vertex="1">
          <mxGeometry x="1031.75" y="1125" width="118.25" height="70" as="geometry" />
        </mxCell>
        <mxCell id="Xtlks4UdEk3piKS54iS9-51" value="" style="endArrow=classic;startArrow=classic;html=1;rounded=0;strokeColor=#FF0000;strokeWidth=3;entryX=0;entryY=0.75;entryDx=0;entryDy=0;exitX=0.99;exitY=0.328;exitDx=0;exitDy=0;exitPerimeter=0;" parent="1" target="Xtlks4UdEk3piKS54iS9-53" edge="1">
          <mxGeometry width="50" height="50" relative="1" as="geometry">
            <mxPoint x="1045.5000000000002" y="1050" as="sourcePoint" />
            <mxPoint x="1299.1499999999999" y="720" as="targetPoint" />
            <Array as="points">
              <mxPoint x="1170" y="1050" />
              <mxPoint x="1170" y="690" />
            </Array>
          </mxGeometry>
        </mxCell>
        <mxCell id="Xtlks4UdEk3piKS54iS9-52" value="&lt;b&gt;&lt;font color=&quot;#cc0000&quot;&gt;Поток 9&lt;/font&gt;&lt;/b&gt;" style="edgeLabel;html=1;align=center;verticalAlign=middle;resizable=0;points=[];" parent="Xtlks4UdEk3piKS54iS9-51" vertex="1" connectable="0">
          <mxGeometry x="0.442" y="2" relative="1" as="geometry">
            <mxPoint x="2" y="198" as="offset" />
          </mxGeometry>
        </mxCell>
        <mxCell id="Xtlks4UdEk3piKS54iS9-53" value="&lt;div style=&quot;text-align: left;&quot;&gt;&lt;span style=&quot;background-color: initial; white-space-collapse: preserve;&quot;&gt;Initiate&lt;/span&gt;&lt;span style=&quot;white-space-collapse: preserve; background-color: initial;&quot;&gt;Transaction&lt;/span&gt;&lt;/div&gt;&lt;span style=&quot;white-space-collapse: preserve; background-color: initial;&quot;&gt;&lt;div style=&quot;text-align: left;&quot;&gt;&lt;span style=&quot;background-color: initial;&quot;&gt;Confirm&lt;/span&gt;&lt;span style=&quot;background-color: initial;&quot;&gt;Transaction&lt;/span&gt;&lt;/div&gt;&lt;/span&gt;&lt;span style=&quot;white-space-collapse: preserve; background-color: initial;&quot;&gt;&lt;div style=&quot;text-align: left;&quot;&gt;&lt;span style=&quot;background-color: initial;&quot;&gt;AccountingTransaction&lt;/span&gt;&lt;/div&gt;&lt;/span&gt;&lt;span style=&quot;white-space-collapse: preserve; background-color: initial;&quot;&gt;&lt;div style=&quot;text-align: left;&quot;&gt;&lt;span style=&quot;background-color: initial;&quot;&gt;GetStatus&lt;/span&gt;&lt;span style=&quot;background-color: initial;&quot;&gt;Transaction&lt;/span&gt;&lt;/div&gt;&lt;/span&gt;&lt;span class=&quot;EzKURWReUAB5oZgtQNkl&quot; data-src-align=&quot;0:12&quot; style=&quot;white-space-collapse: preserve; background-color: initial;&quot;&gt;&lt;div style=&quot;text-align: left;&quot;&gt;&lt;span class=&quot;EzKURWReUAB5oZgtQNkl&quot; data-src-align=&quot;0:12&quot; style=&quot;background-color: initial;&quot;&gt;ConfirmC&lt;/span&gt;&lt;span class=&quot;EzKURWReUAB5oZgtQNkl&quot; data-src-align=&quot;13:6&quot; style=&quot;background-color: initial;&quot;&gt;ancellation&lt;/span&gt;&lt;/div&gt;&lt;/span&gt;&lt;span style=&quot;white-space-collapse: preserve; background-color: initial;&quot;&gt;&lt;div style=&quot;text-align: left;&quot;&gt;&lt;span style=&quot;background-color: initial;&quot;&gt;GetPaymentTransaction&lt;/span&gt;&lt;/div&gt;&lt;/span&gt;&lt;span style=&quot;white-space-collapse: preserve; background-color: initial;&quot;&gt;&lt;div style=&quot;text-align: left;&quot;&gt;&lt;span style=&quot;background-color: initial;&quot;&gt;GetPaymentTransactions&lt;/span&gt;&lt;/div&gt;&lt;/span&gt;" style="rounded=1;whiteSpace=wrap;html=1;fillColor=#0066CC;fontColor=#FFFFFF;" parent="1" vertex="1">
          <mxGeometry x="1220" y="595" width="160" height="125" as="geometry" />
        </mxCell>
        <mxCell id="Xtlks4UdEk3piKS54iS9-55" value="&lt;div style=&quot;&quot;&gt;&lt;b style=&quot;background-color: initial;&quot;&gt;Поток 9&lt;/b&gt;&lt;/div&gt;&lt;div style=&quot;&quot;&gt;&lt;span style=&quot;text-align: center; background-color: initial;&quot;&gt;&lt;div style=&quot;text-align: left;&quot;&gt;&lt;div style=&quot;&quot;&gt;&lt;span style=&quot;background-color: initial; white-space-collapse: preserve;&quot;&gt;Create&lt;/span&gt;&lt;span style=&quot;background-color: initial;&quot;&gt;Application&lt;/span&gt;&lt;/div&gt;&lt;span style=&quot;white-space-collapse: preserve; background-color: initial;&quot;&gt;Delete&lt;/span&gt;&lt;span style=&quot;background-color: initial;&quot;&gt;Application&lt;/span&gt;&lt;/div&gt;&lt;/span&gt;&lt;span style=&quot;text-align: center; background-color: initial;&quot;&gt;&lt;div style=&quot;text-align: left;&quot;&gt;&lt;span style=&quot;white-space-collapse: preserve; background-color: initial;&quot;&gt;Save&lt;/span&gt;&lt;span style=&quot;background-color: initial;&quot;&gt;Application&lt;/span&gt;&lt;/div&gt;&lt;/span&gt;&lt;span style=&quot;text-align: center; background-color: initial;&quot;&gt;&lt;div style=&quot;text-align: left;&quot;&gt;&lt;span style=&quot;background-color: initial;&quot;&gt;GetApplication&lt;/span&gt;&lt;/div&gt;&lt;div style=&quot;text-align: left;&quot;&gt;&lt;span style=&quot;background-color: initial;&quot;&gt;GetApplications&lt;/span&gt;&lt;/div&gt;&lt;div style=&quot;text-align: left;&quot;&gt;&lt;span style=&quot;white-space-collapse: preserve; background-color: initial;&quot;&gt;UpdateStatus&lt;/span&gt;&lt;/div&gt;&lt;div style=&quot;text-align: left;&quot;&gt;&lt;span style=&quot;white-space-collapse: preserve; background-color: initial;&quot;&gt;&lt;br&gt;&lt;/span&gt;&lt;/div&gt;&lt;div style=&quot;text-align: left;&quot;&gt;&lt;span style=&quot;white-space-collapse: preserve; background-color: initial;&quot;&gt;&lt;b&gt;Поток10&lt;/b&gt;&lt;/span&gt;&lt;/div&gt;&lt;div style=&quot;text-align: left;&quot;&gt;&lt;div style=&quot;&quot;&gt;&lt;span style=&quot;background-color: initial; white-space-collapse: preserve;&quot;&gt;Save&lt;/span&gt;&lt;span style=&quot;background-color: initial;&quot;&gt;Application&lt;/span&gt;&lt;/div&gt;&lt;span style=&quot;text-align: center; background-color: initial;&quot;&gt;&lt;div style=&quot;text-align: left;&quot;&gt;&lt;span style=&quot;background-color: initial;&quot;&gt;GetApplication&lt;/span&gt;&lt;/div&gt;&lt;/span&gt;&lt;span style=&quot;text-align: center; background-color: initial;&quot;&gt;&lt;div style=&quot;text-align: left;&quot;&gt;&lt;span style=&quot;background-color: initial;&quot;&gt;GetApplications&lt;/span&gt;&lt;/div&gt;&lt;/span&gt;&lt;span style=&quot;text-align: center; white-space-collapse: preserve; background-color: initial;&quot;&gt;&lt;div style=&quot;text-align: left;&quot;&gt;&lt;span style=&quot;background-color: initial;&quot;&gt;UpdateStatus&lt;/span&gt;&lt;span style=&quot;background-color: initial; white-space-collapse: collapse;&quot;&gt;Application&lt;/span&gt;&lt;/div&gt;&lt;/span&gt;&lt;/div&gt;&lt;/span&gt;&lt;/div&gt;&lt;div style=&quot;&quot;&gt;&lt;span style=&quot;font-family: monospace; font-size: 0px; text-wrap: nowrap;&quot;&gt;%3CmxGraphModel%3E%3Croot%3E%3CmxCell%20id%3D%220%22%2F%3E%3CmxCell%20id%3D%221%22%20parent%3D%220%22%2F%3E%3CmxCell%20id%3D%222%22%20value%3D%22%26lt%3Bdiv%20style%3D%26quot%3B%26quot%3B%26gt%3B%26lt%3Bb%26gt%3B%D0%9F%D0%BE%D1%82%D0%BE%D0%BA%203%26lt%3B%2Fb%26gt%3B%26lt%3B%2Fdiv%26gt%3B%26lt%3Bdiv%20style%3D%26quot%3B%26quot%3B%26gt%3B%26lt%3Bspan%20style%3D%26quot%3Bfont-family%3A%20monospace%3B%20font-size%3A%200px%3B%20text-wrap%3A%20nowrap%3B%26quot%3B%26gt%3B%253CmxGraphModel%253E%253Croot%253E%253CmxCell%2520id%253D%25220%2522%252F%253E%253CmxCell%2520id%253D%25221%2522%2520parent%253D%25220%2522%252F%253E%253CmxCell%2520id%253D%25222%2522%2520value%253D%2522%2526lt%253Bdiv%2520style%253D%2526quot%253B%2526quot%253B%2526gt%253B%2526lt%253Bb%2526gt%253B%25D0%259F%25D0%25BE%25D1%2582%25D0%25BE%25D0%25BA%25201%2526lt%253B%252Fb%2526gt%253B%2526lt%253B%252Fdiv%2526gt%253B%2526lt%253Bdiv%2520style%253D%2526quot%253B%2526quot%253B%2526gt%253B%2526lt%253Bdiv%2526gt%253B%2526lt%253Bspan%2520style%253D%2526quot%253Bbackground-color%253A%2520initial%253B%2526quot%253B%2526gt%253BRegClient%2526lt%253B%252Fspan%2526gt%253B%2526lt%253Bbr%2526gt%253B%2526lt%253Bspan%2520style%253D%2526quot%253Bbackground-color%253A%2520initial%253B%2526quot%253B%2526gt%253BGetClient%2526lt%253B%252Fspan%2526gt%253B%2526lt%253Bbr%2526gt%253B%2526lt%253Bspan%2520style%253D%2526quot%253Bbackground-color%253A%2520initial%253B%2526quot%253B%2526gt%253BSaveClient%2526lt%253B%252Fspan%2526gt%253B%2526lt%253Bbr%2526gt%253B%2526lt%253B%252Fdiv%2526gt%253B%2526lt%253Bdiv%2526gt%253BSetRoles%2526lt%253B%252Fdiv%2526gt%253B%2526lt%253Bdiv%2526gt%253B%2526lt%253Bfont%2520color%253D%2526quot%253B%2523330000%2526quot%253B%2526gt%253B%2526lt%253Bbr%2526gt%253B%2526lt%253B%252Ffont%2526gt%253B%2526lt%253B%252Fdiv%2526gt%253B%2526lt%253Bdiv%2526gt%253B%2526lt%253Bfont%2520color%253D%2526quot%253B%2523330000%2526quot%253B%2526gt%253B%2526lt%253Bb%2526gt%253B%25D0%259F%25D0%25BE%25D1%2582%25D0%25BE%25D0%25BA%25202%2526lt%253B%252Fb%2526gt%253B%2526lt%253B%252Ffont%2526gt%253B%2526lt%253B%252Fdiv%2526gt%253B%2526lt%253Bdiv%2526gt%253B%2526lt%253Bfont%2520color%253D%2526quot%253B%2523330000%2526quot%253B%2526gt%253B%2526lt%253Bspan%2520style%253D%2526quot%253Bbackground-color%253A%2520initial%253B%2526quot%253B%2526gt%253BGetClient%2526lt%253B%252Fspan%2526gt%253B%2526lt%253Bbr%2520style%253D%2526quot%253B%2526quot%253B%2526gt%253B%2526lt%253Bspan%2520style%253D%2526quot%253Bbackground-color%253A%2520initial%253B%2526quot%253B%2526gt%253BSaveClient%2526lt%253B%252Fspan%2526gt%253B%2526lt%253Bbr%2520style%253D%2526quot%253B%2526quot%253B%2526gt%253B%2526lt%253Bspan%2520style%253D%2526quot%253Bbackground-color%253A%2520initial%253B%2526quot%253B%2526gt%253BSetRoles%2526lt%253B%252Fspan%2526gt%253B%2526lt%253Bbr%2520style%253D%2526quot%253B%2526quot%253B%2526gt%253B%2526lt%253Bspan%2520style%253D%2526quot%253Bbackground-color%253A%2520initial%253B%2526quot%253B%2526gt%253BGetClients%2526lt%253B%252Fspan%2526gt%253B%2526lt%253B%252Ffont%2526gt%253B%2526lt%253Bbr%2526gt%253B%2526lt%253B%252Fdiv%2526gt%253B%2526lt%253B%252Fdiv%2526gt%253B%2526lt%253Bspan%2520style%253D%2526quot%253Bbackground-color%253A%2520initial%253B%2526quot%253B%2526gt%253B%2526lt%253Bdiv%2520style%253D%2526quot%253B%2526quot%253B%2526gt%253B%2526lt%253Bbr%2526gt%253B%2526lt%253B%252Fdiv%2526gt%253B%2526lt%253Bdiv%2520style%253D%2526quot%253B%2526quot%253B%2526gt%253B%2526lt%253Bspan%2520style%253D%2526quot%253Btext-align%253A%2520center%253B%2520background-color%253A%2520initial%253B%2526quot%253B%2526gt%253B%2526lt%253Bdiv%2520style%253D%2526quot%253Btext-align%253A%2520left%253B%2526quot%253B%2526gt%253B%2526lt%253Bb%2520style%253D%2526quot%253Bfont-size%253A%252011px%253B%2520text-align%253A%2520center%253B%2520text-wrap%253A%2520nowrap%253B%2526quot%253B%2526gt%253B%25D0%259F%25D0%25BE%25D1%2582%25D0%25BE%25D0%25BA%25205%252C6%2526lt%253B%252Fb%2526gt%253B%2526lt%253Bspan%2520style%253D%2526quot%253Bbackground-color%253A%2520initial%253B%2526quot%253B%2526gt%253B%2526lt%253Bbr%2526gt%253B%2526lt%253B%252Fspan%2526gt%253B%2526lt%253B%252Fdiv%2526gt%253B%2526lt%253Bdiv%2520style%253D%2526quot%253Btext-align%253A%2520left%253B%2526quot%253B%2526gt%253B%2526lt%253Bdiv%2526gt%253B%2526lt%253Bspan%2520style%253D%2526quot%253Bbackground-color%253A%2520initial%253B%2526quot%253B%2526gt%253BCreate%2526lt%253B%252Fspan%2526gt%253B%2526lt%253Bspan%2520style%253D%2526quot%253Bbackground-color%253A%2520initial%253B%2526quot%253B%2526gt%253BSupportRequest%2526lt%253B%252Fspan%2526gt%253B%2526lt%253B%252Fdiv%2526gt%253B%2526lt%253Bspan%2520style%253D%2526quot%253Btext-align%253A%2520center%253B%2520background-color%253A%2520initial%253B%2526quot%253B%2526gt%253B%2526lt%253Bdiv%2520style%253D%2526quot%253Btext-align%253A%2520left%253B%2526quot%253B%2526gt%253B%2526lt%253Bspan%2520style%253D%2526quot%253Bbackground-color%253A%2520initial%253B%2526quot%253B%2526gt%253BSave%2526lt%253B%252Fspan%2526gt%253B%2526lt%253Bspan%2520style%253D%2526quot%253Bbackground-color%253A%2520initial%253B%2526quot%253B%2526gt%253BSupportRequest%2526lt%253B%252Fspan%2526gt%253B%2526lt%253B%252Fdiv%2526gt%253B%2526lt%253B%252Fspan%2526gt%253B%2526lt%253Bspan%2520style%253D%2526quot%253Btext-align%253A%2520center%253B%2520background-color%253A%2520initial%253B%2526quot%253B%2526gt%253B%2526lt%253Bdiv%2520style%253D%2526quot%253Btext-align%253A%2520left%253B%2526quot%253B%2526gt%253B%2526lt%253Bspan%2520style%253D%2526quot%253Bbackground-color%253A%2520initial%253B%2526quot%253B%2526gt%253BChangeStarusRequest%2526lt%253B%252Fspan%2526gt%253B%2526lt%253B%252Fdiv%2526gt%253B%2526lt%253B%252Fspan%2526gt%253B%2526lt%253Bspan%2520style%253D%2526quot%253Btext-align%253A%2520center%253B%2520background-color%253A%2520initial%253B%2526quot%253B%2526gt%253B%2526lt%253Bdiv%2520style%253D%2526quot%253Btext-align%253A%2520left%253B%2526quot%253B%2526gt%253B%2526lt%253Bspan%2520style%253D%2526quot%253Bbackground-color%253A%2520initial%253B%2526quot%253B%2526gt%253BGet%2526lt%253B%252Fspan%2526gt%253B%2526lt%253Bspan%2520style%253D%2526quot%253Bbackground-color%253A%2520initial%253B%2526quot%253B%2526gt%253BSupportRequest%2526lt%253B%252Fspan%2526gt%253B%2526lt%253B%252Fdiv%2526gt%253B%2526lt%253B%252Fspan%2526gt%253B%2526lt%253Bspan%2520style%253D%2526quot%253Btext-align%253A%2520center%253B%2520background-color%253A%2520initial%253B%2526quot%253B%2526gt%253B%2526lt%253Bdiv%2520style%253D%2526quot%253Btext-align%253A%2520left%253B%2526quot%253B%2526gt%253B%2526lt%253Bspan%2520style%253D%2526quot%253Bbackground-color%253A%2520initial%253B%2526quot%253B%2526gt%253BGet%2526lt%253B%252Fspan%2526gt%253B%2526lt%253Bspan%2520style%253D%2526quot%253Bbackground-color%253A%2520initial%253B%2526quot%253B%2526gt%253BSupportRequests%2526lt%253B%252Fspan%2526gt%253B%2526lt%253B%252Fdiv%2526gt%253B%2526lt%253Bdiv%2520style%253D%2526quot%253Btext-align%253A%2520left%253B%2526quot%253B%2526gt%253B%2526lt%253Bbr%2526gt%253B%2526lt%253B%252Fdiv%2526gt%253B%2526lt%253B%252Fspan%2526gt%253B%2526lt%253B%252Fdiv%2526gt%253B%2526lt%253B%252Fspan%2526gt%253B%2526lt%253B%252Fdiv%2526gt%253B%2526lt%253B%252Fspan%2526gt%253B%2522%2520style%253D%2522rounded%253D0%253BwhiteSpace%253Dwrap%253Bhtml%253D1%253Balign%253Dleft%253BstrokeColor%253Dnone%253B%2522%2520vertex%253D%25221%2522%2520parent%253D%25221%2522%253E%253CmxGeometry%2520x%253D%2522822.5%2522%2520y%253D%2522-582.5%2522%2520width%253D%2522167.5%2522%2520height%253D%2522260%2522%2520as%253D%2522geometry%2522%252F%253E%253C%252FmxCell%253E%253C%252Froot%253E%253C%252FmxGraphModel%253%26lt%3B%2Fspan%26gt%3B%26lt%3Bspan%20style%3D%26quot%3Bbackground-color%3A%20initial%3B%26quot%3B%26gt%3BCreateOrder%26lt%3B%2Fspan%26gt%3B%26lt%3B%2Fdiv%26gt%3B%26lt%3Bspan%20style%3D%26quot%3Bbackground-color%3A%20initial%3B%26quot%3B%26gt%3B%26lt%3Bdiv%20style%3D%26quot%3B%26quot%3B%26gt%3B%26lt%3Bspan%20style%3D%26quot%3Btext-align%3A%20center%3B%20background-color%3A%20initial%3B%26quot%3B%26gt%3B%26lt%3Bdiv%20style%3D%26quot%3Btext-align%3A%20left%3B%26quot%3B%26gt%3B%26lt%3Bspan%20style%3D%26quot%3Btext-align%3A%20center%3B%20background-color%3A%20initial%3B%26quot%3B%26gt%3B%26lt%3Bdiv%20style%3D%26quot%3Btext-align%3A%20left%3B%26quot%3B%26gt%3B%26lt%3Bdiv%20style%3D%26quot%3B%26quot%3B%26gt%3BGetOrder%26lt%3B%2Fdiv%26gt%3B%26lt%3Bdiv%20style%3D%26quot%3B%26quot%3B%26gt%3BGetOrders%26lt%3B%2Fdiv%26gt%3B%26lt%3Bdiv%20style%3D%26quot%3B%26quot%3B%26gt%3BSaveOrder%26lt%3B%2Fdiv%26gt%3B%26lt%3Bdiv%20style%3D%26quot%3B%26quot%3B%26gt%3BDeleteOrder%26lt%3B%2Fdiv%26gt%3B%26lt%3Bdiv%20style%3D%26quot%3B%26quot%3B%26gt%3BApproveOrder%26lt%3B%2Fdiv%26gt%3B%26lt%3Bdiv%20style%3D%26quot%3B%26quot%3B%26gt%3B%26lt%3Bbr%26gt%3B%26lt%3B%2Fdiv%26gt%3B%26lt%3Bdiv%20style%3D%26quot%3B%26quot%3B%26gt%3B%26lt%3Bb%26gt%3B%D0%9F%D0%BE%D1%82%D0%BE%D0%BA%204%26lt%3B%2Fb%26gt%3B%26lt%3Bbr%26gt%3B%26lt%3B%2Fdiv%26gt%3B%26lt%3Bdiv%20style%3D%26quot%3B%26quot%3B%26gt%3B%26lt%3Bdiv%20style%3D%26quot%3B%26quot%3B%26gt%3B%26lt%3Bspan%20style%3D%26quot%3Bbackground-color%3A%20initial%3B%26quot%3B%26gt%3BCreate%26lt%3B%2Fspan%26gt%3B%26lt%3Bspan%20style%3D%26quot%3Bbackground-color%3A%20initial%3B%26quot%3B%26gt%3BService%26lt%3B%2Fspan%26gt%3B%26lt%3B%2Fdiv%26gt%3B%26lt%3Bspan%20style%3D%26quot%3Bbackground-color%3A%20initial%3B%26quot%3B%26gt%3BDeleteService%26lt%3B%2Fspan%26gt%3B%26lt%3B%2Fdiv%26gt%3B%26lt%3Bdiv%20style%3D%26quot%3B%26quot%3B%26gt%3B%26lt%3Bspan%20style%3D%26quot%3Bbackground-color%3A%20initial%3B%26quot%3B%26gt%3BSaveService%26lt%3B%2Fspan%26gt%3B%26lt%3B%2Fdiv%26gt%3B%26lt%3Bdiv%20style%3D%26quot%3B%26quot%3B%26gt%3B%26lt%3Bspan%20style%3D%26quot%3Bbackground-color%3A%20initial%3B%26quot%3B%26gt%3BGetService%26lt%3B%2Fspan%26gt%3B%26lt%3B%2Fdiv%26gt%3B%26lt%3Bdiv%20style%3D%26quot%3B%26quot%3B%26gt%3B%26lt%3Bspan%20style%3D%26quot%3Bbackground-color%3A%20initial%3B%26quot%3B%26gt%3BGetServices%26lt%3B%2Fspan%26gt%3B%26lt%3B%2Fdiv%26gt%3B%26lt%3B%2Fdiv%26gt%3B%26lt%3B%2Fspan%26gt%3B%26lt%3B%2Fdiv%26gt%3B%26lt%3B%2Fspan%26gt%3B%26lt%3B%2Fdiv%26gt%3B%26lt%3B%2Fspan%26gt%3B%22%20style%3D%22rounded%3D0%3BwhiteSpace%3Dwrap%3Bhtml%3D1%3Balign%3Dleft%3BstrokeColor%3Dnone%3BverticalAlign%3Dtop%3B%22%20vertex%3D%221%22%20parent%3D%221%22%3E%3CmxGeometry%20x%3D%22990%22%20y%3D%22-598%22%20width%3D%22167.5%22%20height%3D%22228%22%20as%3D%22geometry%22%2F%3E%3C%2FmxCell%3E%3C%2Froot%3E%3C%2FmxGraphModel%3E&lt;/span&gt;&lt;br&gt;&lt;/div&gt;&lt;div style=&quot;&quot;&gt;&lt;span style=&quot;font-family: monospace; font-size: 0px; text-wrap: nowrap;&quot;&gt;&lt;br&gt;&lt;/span&gt;&lt;/div&gt;&lt;div style=&quot;&quot;&gt;&lt;span style=&quot;font-family: monospace; font-size: 0px; text-wrap: nowrap;&quot;&gt;&lt;br&gt;&lt;/span&gt;&lt;/div&gt;&lt;div style=&quot;&quot;&gt;&lt;span style=&quot;color: rgba(0, 0, 0, 0); font-family: monospace; font-size: 0px; text-wrap: nowrap;&quot;&gt;&lt;br&gt;&lt;/span&gt;&lt;/div&gt;" style="rounded=0;whiteSpace=wrap;html=1;align=left;strokeColor=none;verticalAlign=top;" parent="1" vertex="1">
          <mxGeometry x="1519.81" y="-622.25" width="149.37" height="203.5" as="geometry" />
        </mxCell>
        <mxCell id="Xtlks4UdEk3piKS54iS9-56" value="&lt;div style=&quot;text-align: left;&quot;&gt;&lt;span style=&quot;background-color: initial; white-space-collapse: preserve;&quot;&gt;Save&lt;/span&gt;&lt;span style=&quot;background-color: initial;&quot;&gt;Application&lt;/span&gt;&lt;/div&gt;&lt;span style=&quot;background-color: initial;&quot;&gt;&lt;div style=&quot;text-align: left;&quot;&gt;&lt;span style=&quot;background-color: initial;&quot;&gt;GetApplication&lt;/span&gt;&lt;/div&gt;&lt;/span&gt;&lt;span style=&quot;background-color: initial;&quot;&gt;&lt;div style=&quot;text-align: left;&quot;&gt;&lt;span style=&quot;background-color: initial;&quot;&gt;GetApplications&lt;/span&gt;&lt;/div&gt;&lt;/span&gt;&lt;span style=&quot;white-space-collapse: preserve; background-color: initial;&quot;&gt;&lt;div style=&quot;text-align: left;&quot;&gt;&lt;span style=&quot;background-color: initial;&quot;&gt;UpdateStatus&lt;/span&gt;&lt;span style=&quot;background-color: initial; white-space-collapse: collapse;&quot;&gt;Application&lt;/span&gt;&lt;/div&gt;&lt;/span&gt;" style="rounded=1;whiteSpace=wrap;html=1;fillColor=#0066CC;fontColor=#FFFFFF;" parent="1" vertex="1">
          <mxGeometry x="455.5" y="743" width="152" height="76" as="geometry" />
        </mxCell>
        <mxCell id="Xtlks4UdEk3piKS54iS9-57" value="&lt;div style=&quot;&quot;&gt;&lt;span style=&quot;background-color: initial;&quot;&gt;Save&lt;/span&gt;&lt;span style=&quot;background-color: initial;&quot;&gt;Auction&lt;/span&gt;&lt;/div&gt;&lt;span style=&quot;background-color: initial;&quot;&gt;&lt;div style=&quot;&quot;&gt;&lt;span style=&quot;background-color: initial;&quot;&gt;GetAuction&lt;/span&gt;&lt;/div&gt;&lt;/span&gt;&lt;span style=&quot;background-color: initial;&quot;&gt;&lt;div style=&quot;&quot;&gt;&lt;span style=&quot;background-color: initial;&quot;&gt;GetAuctions&lt;/span&gt;&lt;/div&gt;&lt;/span&gt;" style="rounded=1;whiteSpace=wrap;html=1;align=left;fillColor=#0066CC;fontColor=#FFFFFF;" parent="1" vertex="1">
          <mxGeometry x="457.63" y="670" width="147.75" height="65" as="geometry" />
        </mxCell>
        <mxCell id="Xtlks4UdEk3piKS54iS9-58" value="" style="endArrow=classic;startArrow=none;html=1;rounded=0;strokeColor=#FF0000;strokeWidth=3;entryX=0;entryY=0.5;entryDx=0;entryDy=0;startFill=0;exitX=0.552;exitY=0.016;exitDx=0;exitDy=0;exitPerimeter=0;" parent="1" source="Bt5aDinGUWlxkMjQN304-71" target="Xtlks4UdEk3piKS54iS9-41" edge="1">
          <mxGeometry width="50" height="50" relative="1" as="geometry">
            <mxPoint x="620" y="780" as="sourcePoint" />
            <mxPoint x="880" y="852" as="targetPoint" />
            <Array as="points">
              <mxPoint x="754" y="773" />
              <mxPoint x="754" y="850" />
            </Array>
          </mxGeometry>
        </mxCell>
        <mxCell id="Xtlks4UdEk3piKS54iS9-59" value="&lt;b&gt;&lt;font color=&quot;#cc0000&quot;&gt;Поток 10&lt;/font&gt;&lt;/b&gt;" style="edgeLabel;html=1;align=center;verticalAlign=middle;resizable=0;points=[];" parent="Xtlks4UdEk3piKS54iS9-58" vertex="1" connectable="0">
          <mxGeometry x="0.442" y="2" relative="1" as="geometry">
            <mxPoint x="13" y="2" as="offset" />
          </mxGeometry>
        </mxCell>
        <mxCell id="Xtlks4UdEk3piKS54iS9-60" value="" style="endArrow=classic;startArrow=classic;html=1;rounded=0;strokeColor=#FF0000;strokeWidth=3;entryX=0.5;entryY=1;entryDx=0;entryDy=0;dashed=1;" parent="1" source="Bt5aDinGUWlxkMjQN304-10" target="Bt5aDinGUWlxkMjQN304-71" edge="1">
          <mxGeometry width="50" height="50" relative="1" as="geometry">
            <mxPoint x="420" y="438" as="sourcePoint" />
            <mxPoint x="664" y="510" as="targetPoint" />
            <Array as="points">
              <mxPoint x="400" y="470" />
              <mxPoint x="400" y="761" />
            </Array>
          </mxGeometry>
        </mxCell>
        <mxCell id="Xtlks4UdEk3piKS54iS9-61" value="&lt;b&gt;&lt;font color=&quot;#cc0000&quot;&gt;Поток 11&lt;/font&gt;&lt;/b&gt;" style="edgeLabel;html=1;align=center;verticalAlign=middle;resizable=0;points=[];" parent="Xtlks4UdEk3piKS54iS9-60" vertex="1" connectable="0">
          <mxGeometry x="0.442" y="2" relative="1" as="geometry">
            <mxPoint x="-2" y="-86" as="offset" />
          </mxGeometry>
        </mxCell>
        <mxCell id="Xtlks4UdEk3piKS54iS9-64" value="&lt;div style=&quot;&quot;&gt;&lt;b style=&quot;background-color: initial;&quot;&gt;Поток 11&lt;/b&gt;&lt;/div&gt;&lt;div style=&quot;&quot;&gt;&lt;span style=&quot;text-align: center; background-color: initial;&quot;&gt;&lt;div style=&quot;text-align: left;&quot;&gt;&lt;div style=&quot;&quot;&gt;&lt;div style=&quot;&quot;&gt;&lt;span style=&quot;background-color: initial;&quot;&gt;Save&lt;/span&gt;&lt;span style=&quot;background-color: initial;&quot;&gt;Auction&lt;/span&gt;&lt;/div&gt;&lt;span style=&quot;background-color: initial;&quot;&gt;GetAuction&lt;/span&gt;&lt;/div&gt;&lt;div style=&quot;&quot;&gt;&lt;span style=&quot;background-color: initial;&quot;&gt;GetAuctions&lt;/span&gt;&lt;/div&gt;&lt;div style=&quot;&quot;&gt;&lt;div style=&quot;&quot;&gt;&lt;span style=&quot;background-color: initial; white-space-collapse: preserve;&quot;&gt;Save&lt;/span&gt;&lt;span style=&quot;background-color: initial;&quot;&gt;Application&lt;/span&gt;&lt;/div&gt;&lt;span style=&quot;text-align: center; background-color: initial;&quot;&gt;&lt;div style=&quot;text-align: left;&quot;&gt;&lt;span style=&quot;background-color: initial;&quot;&gt;GetApplication&lt;/span&gt;&lt;/div&gt;&lt;/span&gt;&lt;span style=&quot;text-align: center; background-color: initial;&quot;&gt;&lt;div style=&quot;text-align: left;&quot;&gt;&lt;span style=&quot;background-color: initial;&quot;&gt;GetApplications&lt;/span&gt;&lt;/div&gt;&lt;/span&gt;&lt;span style=&quot;text-align: center; white-space-collapse: preserve; background-color: initial;&quot;&gt;&lt;div style=&quot;text-align: left;&quot;&gt;&lt;span style=&quot;background-color: initial;&quot;&gt;UpdateStatus&lt;/span&gt;&lt;span style=&quot;background-color: initial; white-space-collapse: collapse;&quot;&gt;Application&lt;/span&gt;&lt;/div&gt;&lt;div style=&quot;text-align: left;&quot;&gt;UserActivityReport&lt;span style=&quot;background-color: initial; white-space-collapse: collapse;&quot;&gt;&lt;br&gt;&lt;/span&gt;&lt;/div&gt;&lt;div style=&quot;text-align: left;&quot;&gt;&lt;span style=&quot;background-color: initial; white-space-collapse: collapse;&quot;&gt;&lt;br&gt;&lt;/span&gt;&lt;/div&gt;&lt;div style=&quot;text-align: left;&quot;&gt;&lt;span style=&quot;background-color: initial; white-space-collapse: collapse;&quot;&gt;&lt;b&gt;Поток12&lt;/b&gt;&lt;/span&gt;&lt;/div&gt;&lt;div style=&quot;text-align: left;&quot;&gt;&lt;span style=&quot;white-space-collapse: collapse; background-color: initial;&quot;&gt;GetClient&lt;/span&gt;&lt;br style=&quot;white-space-collapse: collapse;&quot;&gt;&lt;span style=&quot;white-space-collapse: collapse; background-color: initial;&quot;&gt;SaveClient&lt;/span&gt;&lt;br style=&quot;white-space-collapse: collapse;&quot;&gt;&lt;span style=&quot;white-space-collapse: collapse; background-color: initial;&quot;&gt;SetRoles&lt;/span&gt;&lt;br style=&quot;white-space-collapse: collapse;&quot;&gt;&lt;span style=&quot;white-space-collapse: collapse; background-color: initial;&quot;&gt;GetClients&lt;/span&gt;&lt;span style=&quot;background-color: initial; white-space-collapse: collapse;&quot;&gt;&lt;b&gt;&lt;br&gt;&lt;/b&gt;&lt;/span&gt;&lt;/div&gt;&lt;div style=&quot;text-align: left;&quot;&gt;&lt;div style=&quot;white-space-collapse: collapse;&quot;&gt;&lt;span style=&quot;background-color: initial;&quot;&gt;Create&lt;/span&gt;&lt;span style=&quot;background-color: initial;&quot;&gt;SupportRequest&lt;/span&gt;&lt;/div&gt;&lt;span style=&quot;white-space-collapse: collapse; background-color: initial;&quot;&gt;SaveSupportRequest&lt;/span&gt;&lt;/div&gt;&lt;div style=&quot;text-align: left;&quot;&gt;&lt;span style=&quot;white-space-collapse: collapse; background-color: initial;&quot;&gt;ChangeStarusRequest&lt;/span&gt;&lt;/div&gt;&lt;div style=&quot;text-align: left;&quot;&gt;&lt;span style=&quot;white-space-collapse: collapse; background-color: initial;&quot;&gt;GetSupportRequest&lt;/span&gt;&lt;/div&gt;&lt;div style=&quot;text-align: left;&quot;&gt;&lt;span style=&quot;white-space-collapse: collapse; background-color: initial;&quot;&gt;GetSupportRequests&lt;/span&gt;&lt;/div&gt;&lt;/span&gt;&lt;/div&gt;&lt;/div&gt;&lt;/span&gt;&lt;/div&gt;&lt;div style=&quot;&quot;&gt;&lt;span style=&quot;font-family: monospace; font-size: 0px; text-wrap: nowrap;&quot;&gt;%3CmxGraphModel%3E%3Croot%3E%3CmxCell%20id%3D%220%22%2F%3E%3CmxCell%20id%3D%221%22%20parent%3D%220%22%2F%3E%3CmxCell%20id%3D%222%22%20value%3D%22%26lt%3Bdiv%20style%3D%26quot%3B%26quot%3B%26gt%3B%26lt%3Bb%26gt%3B%D0%9F%D0%BE%D1%82%D0%BE%D0%BA%203%26lt%3B%2Fb%26gt%3B%26lt%3B%2Fdiv%26gt%3B%26lt%3Bdiv%20style%3D%26quot%3B%26quot%3B%26gt%3B%26lt%3Bspan%20style%3D%26quot%3Bfont-family%3A%20monospace%3B%20font-size%3A%200px%3B%20text-wrap%3A%20nowrap%3B%26quot%3B%26gt%3B%253CmxGraphModel%253E%253Croot%253E%253CmxCell%2520id%253D%25220%2522%252F%253E%253CmxCell%2520id%253D%25221%2522%2520parent%253D%25220%2522%252F%253E%253CmxCell%2520id%253D%25222%2522%2520value%253D%2522%2526lt%253Bdiv%2520style%253D%2526quot%253B%2526quot%253B%2526gt%253B%2526lt%253Bb%2526gt%253B%25D0%259F%25D0%25BE%25D1%2582%25D0%25BE%25D0%25BA%25201%2526lt%253B%252Fb%2526gt%253B%2526lt%253B%252Fdiv%2526gt%253B%2526lt%253Bdiv%2520style%253D%2526quot%253B%2526quot%253B%2526gt%253B%2526lt%253Bdiv%2526gt%253B%2526lt%253Bspan%2520style%253D%2526quot%253Bbackground-color%253A%2520initial%253B%2526quot%253B%2526gt%253BRegClient%2526lt%253B%252Fspan%2526gt%253B%2526lt%253Bbr%2526gt%253B%2526lt%253Bspan%2520style%253D%2526quot%253Bbackground-color%253A%2520initial%253B%2526quot%253B%2526gt%253BGetClient%2526lt%253B%252Fspan%2526gt%253B%2526lt%253Bbr%2526gt%253B%2526lt%253Bspan%2520style%253D%2526quot%253Bbackground-color%253A%2520initial%253B%2526quot%253B%2526gt%253BSaveClient%2526lt%253B%252Fspan%2526gt%253B%2526lt%253Bbr%2526gt%253B%2526lt%253B%252Fdiv%2526gt%253B%2526lt%253Bdiv%2526gt%253BSetRoles%2526lt%253B%252Fdiv%2526gt%253B%2526lt%253Bdiv%2526gt%253B%2526lt%253Bfont%2520color%253D%2526quot%253B%2523330000%2526quot%253B%2526gt%253B%2526lt%253Bbr%2526gt%253B%2526lt%253B%252Ffont%2526gt%253B%2526lt%253B%252Fdiv%2526gt%253B%2526lt%253Bdiv%2526gt%253B%2526lt%253Bfont%2520color%253D%2526quot%253B%2523330000%2526quot%253B%2526gt%253B%2526lt%253Bb%2526gt%253B%25D0%259F%25D0%25BE%25D1%2582%25D0%25BE%25D0%25BA%25202%2526lt%253B%252Fb%2526gt%253B%2526lt%253B%252Ffont%2526gt%253B%2526lt%253B%252Fdiv%2526gt%253B%2526lt%253Bdiv%2526gt%253B%2526lt%253Bfont%2520color%253D%2526quot%253B%2523330000%2526quot%253B%2526gt%253B%2526lt%253Bspan%2520style%253D%2526quot%253Bbackground-color%253A%2520initial%253B%2526quot%253B%2526gt%253BGetClient%2526lt%253B%252Fspan%2526gt%253B%2526lt%253Bbr%2520style%253D%2526quot%253B%2526quot%253B%2526gt%253B%2526lt%253Bspan%2520style%253D%2526quot%253Bbackground-color%253A%2520initial%253B%2526quot%253B%2526gt%253BSaveClient%2526lt%253B%252Fspan%2526gt%253B%2526lt%253Bbr%2520style%253D%2526quot%253B%2526quot%253B%2526gt%253B%2526lt%253Bspan%2520style%253D%2526quot%253Bbackground-color%253A%2520initial%253B%2526quot%253B%2526gt%253BSetRoles%2526lt%253B%252Fspan%2526gt%253B%2526lt%253Bbr%2520style%253D%2526quot%253B%2526quot%253B%2526gt%253B%2526lt%253Bspan%2520style%253D%2526quot%253Bbackground-color%253A%2520initial%253B%2526quot%253B%2526gt%253BGetClients%2526lt%253B%252Fspan%2526gt%253B%2526lt%253B%252Ffont%2526gt%253B%2526lt%253Bbr%2526gt%253B%2526lt%253B%252Fdiv%2526gt%253B%2526lt%253B%252Fdiv%2526gt%253B%2526lt%253Bspan%2520style%253D%2526quot%253Bbackground-color%253A%2520initial%253B%2526quot%253B%2526gt%253B%2526lt%253Bdiv%2520style%253D%2526quot%253B%2526quot%253B%2526gt%253B%2526lt%253Bbr%2526gt%253B%2526lt%253B%252Fdiv%2526gt%253B%2526lt%253Bdiv%2520style%253D%2526quot%253B%2526quot%253B%2526gt%253B%2526lt%253Bspan%2520style%253D%2526quot%253Btext-align%253A%2520center%253B%2520background-color%253A%2520initial%253B%2526quot%253B%2526gt%253B%2526lt%253Bdiv%2520style%253D%2526quot%253Btext-align%253A%2520left%253B%2526quot%253B%2526gt%253B%2526lt%253Bb%2520style%253D%2526quot%253Bfont-size%253A%252011px%253B%2520text-align%253A%2520center%253B%2520text-wrap%253A%2520nowrap%253B%2526quot%253B%2526gt%253B%25D0%259F%25D0%25BE%25D1%2582%25D0%25BE%25D0%25BA%25205%252C6%2526lt%253B%252Fb%2526gt%253B%2526lt%253Bspan%2520style%253D%2526quot%253Bbackground-color%253A%2520initial%253B%2526quot%253B%2526gt%253B%2526lt%253Bbr%2526gt%253B%2526lt%253B%252Fspan%2526gt%253B%2526lt%253B%252Fdiv%2526gt%253B%2526lt%253Bdiv%2520style%253D%2526quot%253Btext-align%253A%2520left%253B%2526quot%253B%2526gt%253B%2526lt%253Bdiv%2526gt%253B%2526lt%253Bspan%2520style%253D%2526quot%253Bbackground-color%253A%2520initial%253B%2526quot%253B%2526gt%253BCreate%2526lt%253B%252Fspan%2526gt%253B%2526lt%253Bspan%2520style%253D%2526quot%253Bbackground-color%253A%2520initial%253B%2526quot%253B%2526gt%253BSupportRequest%2526lt%253B%252Fspan%2526gt%253B%2526lt%253B%252Fdiv%2526gt%253B%2526lt%253Bspan%2520style%253D%2526quot%253Btext-align%253A%2520center%253B%2520background-color%253A%2520initial%253B%2526quot%253B%2526gt%253B%2526lt%253Bdiv%2520style%253D%2526quot%253Btext-align%253A%2520left%253B%2526quot%253B%2526gt%253B%2526lt%253Bspan%2520style%253D%2526quot%253Bbackground-color%253A%2520initial%253B%2526quot%253B%2526gt%253BSave%2526lt%253B%252Fspan%2526gt%253B%2526lt%253Bspan%2520style%253D%2526quot%253Bbackground-color%253A%2520initial%253B%2526quot%253B%2526gt%253BSupportRequest%2526lt%253B%252Fspan%2526gt%253B%2526lt%253B%252Fdiv%2526gt%253B%2526lt%253B%252Fspan%2526gt%253B%2526lt%253Bspan%2520style%253D%2526quot%253Btext-align%253A%2520center%253B%2520background-color%253A%2520initial%253B%2526quot%253B%2526gt%253B%2526lt%253Bdiv%2520style%253D%2526quot%253Btext-align%253A%2520left%253B%2526quot%253B%2526gt%253B%2526lt%253Bspan%2520style%253D%2526quot%253Bbackground-color%253A%2520initial%253B%2526quot%253B%2526gt%253BChangeStarusRequest%2526lt%253B%252Fspan%2526gt%253B%2526lt%253B%252Fdiv%2526gt%253B%2526lt%253B%252Fspan%2526gt%253B%2526lt%253Bspan%2520style%253D%2526quot%253Btext-align%253A%2520center%253B%2520background-color%253A%2520initial%253B%2526quot%253B%2526gt%253B%2526lt%253Bdiv%2520style%253D%2526quot%253Btext-align%253A%2520left%253B%2526quot%253B%2526gt%253B%2526lt%253Bspan%2520style%253D%2526quot%253Bbackground-color%253A%2520initial%253B%2526quot%253B%2526gt%253BGet%2526lt%253B%252Fspan%2526gt%253B%2526lt%253Bspan%2520style%253D%2526quot%253Bbackground-color%253A%2520initial%253B%2526quot%253B%2526gt%253BSupportRequest%2526lt%253B%252Fspan%2526gt%253B%2526lt%253B%252Fdiv%2526gt%253B%2526lt%253B%252Fspan%2526gt%253B%2526lt%253Bspan%2520style%253D%2526quot%253Btext-align%253A%2520center%253B%2520background-color%253A%2520initial%253B%2526quot%253B%2526gt%253B%2526lt%253Bdiv%2520style%253D%2526quot%253Btext-align%253A%2520left%253B%2526quot%253B%2526gt%253B%2526lt%253Bspan%2520style%253D%2526quot%253Bbackground-color%253A%2520initial%253B%2526quot%253B%2526gt%253BGet%2526lt%253B%252Fspan%2526gt%253B%2526lt%253Bspan%2520style%253D%2526quot%253Bbackground-color%253A%2520initial%253B%2526quot%253B%2526gt%253BSupportRequests%2526lt%253B%252Fspan%2526gt%253B%2526lt%253B%252Fdiv%2526gt%253B%2526lt%253Bdiv%2520style%253D%2526quot%253Btext-align%253A%2520left%253B%2526quot%253B%2526gt%253B%2526lt%253Bbr%2526gt%253B%2526lt%253B%252Fdiv%2526gt%253B%2526lt%253B%252Fspan%2526gt%253B%2526lt%253B%252Fdiv%2526gt%253B%2526lt%253B%252Fspan%2526gt%253B%2526lt%253B%252Fdiv%2526gt%253B%2526lt%253B%252Fspan%2526gt%253B%2522%2520style%253D%2522rounded%253D0%253BwhiteSpace%253Dwrap%253Bhtml%253D1%253Balign%253Dleft%253BstrokeColor%253Dnone%253B%2522%2520vertex%253D%25221%2522%2520parent%253D%25221%2522%253E%253CmxGeometry%2520x%253D%2522822.5%2522%2520y%253D%2522-582.5%2522%2520width%253D%2522167.5%2522%2520height%253D%2522260%2522%2520as%253D%2522geometry%2522%252F%253E%253C%252FmxCell%253E%253C%252Froot%253E%253C%252FmxGraphModel%253%26lt%3B%2Fspan%26gt%3B%26lt%3Bspan%20style%3D%26quot%3Bbackground-color%3A%20initial%3B%26quot%3B%26gt%3BCreateOrder%26lt%3B%2Fspan%26gt%3B%26lt%3B%2Fdiv%26gt%3B%26lt%3Bspan%20style%3D%26quot%3Bbackground-color%3A%20initial%3B%26quot%3B%26gt%3B%26lt%3Bdiv%20style%3D%26quot%3B%26quot%3B%26gt%3B%26lt%3Bspan%20style%3D%26quot%3Btext-align%3A%20center%3B%20background-color%3A%20initial%3B%26quot%3B%26gt%3B%26lt%3Bdiv%20style%3D%26quot%3Btext-align%3A%20left%3B%26quot%3B%26gt%3B%26lt%3Bspan%20style%3D%26quot%3Btext-align%3A%20center%3B%20background-color%3A%20initial%3B%26quot%3B%26gt%3B%26lt%3Bdiv%20style%3D%26quot%3Btext-align%3A%20left%3B%26quot%3B%26gt%3B%26lt%3Bdiv%20style%3D%26quot%3B%26quot%3B%26gt%3BGetOrder%26lt%3B%2Fdiv%26gt%3B%26lt%3Bdiv%20style%3D%26quot%3B%26quot%3B%26gt%3BGetOrders%26lt%3B%2Fdiv%26gt%3B%26lt%3Bdiv%20style%3D%26quot%3B%26quot%3B%26gt%3BSaveOrder%26lt%3B%2Fdiv%26gt%3B%26lt%3Bdiv%20style%3D%26quot%3B%26quot%3B%26gt%3BDeleteOrder%26lt%3B%2Fdiv%26gt%3B%26lt%3Bdiv%20style%3D%26quot%3B%26quot%3B%26gt%3BApproveOrder%26lt%3B%2Fdiv%26gt%3B%26lt%3Bdiv%20style%3D%26quot%3B%26quot%3B%26gt%3B%26lt%3Bbr%26gt%3B%26lt%3B%2Fdiv%26gt%3B%26lt%3Bdiv%20style%3D%26quot%3B%26quot%3B%26gt%3B%26lt%3Bb%26gt%3B%D0%9F%D0%BE%D1%82%D0%BE%D0%BA%204%26lt%3B%2Fb%26gt%3B%26lt%3Bbr%26gt%3B%26lt%3B%2Fdiv%26gt%3B%26lt%3Bdiv%20style%3D%26quot%3B%26quot%3B%26gt%3B%26lt%3Bdiv%20style%3D%26quot%3B%26quot%3B%26gt%3B%26lt%3Bspan%20style%3D%26quot%3Bbackground-color%3A%20initial%3B%26quot%3B%26gt%3BCreate%26lt%3B%2Fspan%26gt%3B%26lt%3Bspan%20style%3D%26quot%3Bbackground-color%3A%20initial%3B%26quot%3B%26gt%3BService%26lt%3B%2Fspan%26gt%3B%26lt%3B%2Fdiv%26gt%3B%26lt%3Bspan%20style%3D%26quot%3Bbackground-color%3A%20initial%3B%26quot%3B%26gt%3BDeleteService%26lt%3B%2Fspan%26gt%3B%26lt%3B%2Fdiv%26gt%3B%26lt%3Bdiv%20style%3D%26quot%3B%26quot%3B%26gt%3B%26lt%3Bspan%20style%3D%26quot%3Bbackground-color%3A%20initial%3B%26quot%3B%26gt%3BSaveService%26lt%3B%2Fspan%26gt%3B%26lt%3B%2Fdiv%26gt%3B%26lt%3Bdiv%20style%3D%26quot%3B%26quot%3B%26gt%3B%26lt%3Bspan%20style%3D%26quot%3Bbackground-color%3A%20initial%3B%26quot%3B%26gt%3BGetService%26lt%3B%2Fspan%26gt%3B%26lt%3B%2Fdiv%26gt%3B%26lt%3Bdiv%20style%3D%26quot%3B%26quot%3B%26gt%3B%26lt%3Bspan%20style%3D%26quot%3Bbackground-color%3A%20initial%3B%26quot%3B%26gt%3BGetServices%26lt%3B%2Fspan%26gt%3B%26lt%3B%2Fdiv%26gt%3B%26lt%3B%2Fdiv%26gt%3B%26lt%3B%2Fspan%26gt%3B%26lt%3B%2Fdiv%26gt%3B%26lt%3B%2Fspan%26gt%3B%26lt%3B%2Fdiv%26gt%3B%26lt%3B%2Fspan%26gt%3B%22%20style%3D%22rounded%3D0%3BwhiteSpace%3Dwrap%3Bhtml%3D1%3Balign%3Dleft%3BstrokeColor%3Dnone%3BverticalAlign%3Dtop%3B%22%20vertex%3D%221%22%20parent%3D%221%22%3E%3CmxGeometry%20x%3D%22990%22%20y%3D%22-598%22%20width%3D%22167.5%22%20height%3D%22228%22%20as%3D%22geometry%22%2F%3E%3C%2FmxCell%3E%3C%2Froot%3E%3C%2FmxGraphModel%3E&lt;/span&gt;&lt;br&gt;&lt;/div&gt;&lt;div style=&quot;&quot;&gt;&lt;span style=&quot;font-family: monospace; font-size: 0px; text-wrap: nowrap;&quot;&gt;&lt;br&gt;&lt;/span&gt;&lt;/div&gt;&lt;div style=&quot;&quot;&gt;&lt;span style=&quot;font-family: monospace; font-size: 0px; text-wrap: nowrap;&quot;&gt;&lt;br&gt;&lt;/span&gt;&lt;/div&gt;&lt;div style=&quot;&quot;&gt;&lt;span style=&quot;color: rgba(0, 0, 0, 0); font-family: monospace; font-size: 0px; text-wrap: nowrap;&quot;&gt;&lt;br&gt;&lt;/span&gt;&lt;/div&gt;" style="rounded=0;whiteSpace=wrap;html=1;align=left;strokeColor=none;verticalAlign=top;" parent="1" vertex="1">
          <mxGeometry x="1690" y="-623.5" width="153" height="303.5" as="geometry" />
        </mxCell>
        <mxCell id="Xtlks4UdEk3piKS54iS9-65" value="" style="endArrow=classic;startArrow=classic;html=1;rounded=0;strokeColor=#FF0000;strokeWidth=3;exitX=1;exitY=0.3333333333333333;exitDx=0;exitDy=0;exitPerimeter=0;entryX=0.307;entryY=0.988;entryDx=0;entryDy=0;entryPerimeter=0;dashed=1;" parent="1" source="Bt5aDinGUWlxkMjQN304-1" target="Bt5aDinGUWlxkMjQN304-60" edge="1">
          <mxGeometry width="50" height="50" relative="1" as="geometry">
            <mxPoint x="286.87" y="206" as="sourcePoint" />
            <mxPoint x="486.87" y="510" as="targetPoint" />
            <Array as="points">
              <mxPoint x="390" y="204" />
              <mxPoint x="390" y="70" />
            </Array>
          </mxGeometry>
        </mxCell>
        <mxCell id="Xtlks4UdEk3piKS54iS9-66" value="&lt;b&gt;&lt;font color=&quot;#cc0000&quot;&gt;Поток 12&lt;/font&gt;&lt;/b&gt;" style="edgeLabel;html=1;align=center;verticalAlign=middle;resizable=0;points=[];" parent="Xtlks4UdEk3piKS54iS9-65" vertex="1" connectable="0">
          <mxGeometry x="0.442" y="2" relative="1" as="geometry">
            <mxPoint x="2" y="-33" as="offset" />
          </mxGeometry>
        </mxCell>
        <mxCell id="Xtlks4UdEk3piKS54iS9-67" value="&lt;div style=&quot;text-align: left;&quot;&gt;&lt;span style=&quot;background-color: initial; white-space-collapse: preserve;&quot;&gt;Authentication&lt;/span&gt;&lt;/div&gt;&lt;span class=&quot;EzKURWReUAB5oZgtQNkl&quot; data-src-align=&quot;17:12&quot; style=&quot;background-color: initial; white-space-collapse: preserve;&quot;&gt;&lt;div style=&quot;text-align: left;&quot;&gt;&lt;span class=&quot;EzKURWReUAB5oZgtQNkl&quot; data-src-align=&quot;17:12&quot; style=&quot;background-color: initial;&quot;&gt;Security&lt;/span&gt;&lt;span style=&quot;background-color: initial;&quot;&gt;T&lt;/span&gt;&lt;span class=&quot;EzKURWReUAB5oZgtQNkl&quot; data-src-align=&quot;10:6&quot; style=&quot;background-color: initial;&quot;&gt;oken&lt;/span&gt;&lt;span style=&quot;background-color: initial;&quot;&gt;Validation&lt;/span&gt;&lt;/div&gt;&lt;/span&gt;" style="rounded=1;whiteSpace=wrap;html=1;fillColor=#0066CC;fontColor=#FFFFFF;rotation=90;" parent="1" vertex="1">
          <mxGeometry x="150" y="340" width="163" height="40" as="geometry" />
        </mxCell>
        <mxCell id="Xtlks4UdEk3piKS54iS9-74" value="" style="endArrow=classic;startArrow=none;html=1;rounded=0;strokeColor=#FF0000;strokeWidth=3;exitX=0.25;exitY=1;exitDx=0;exitDy=0;startFill=0;" parent="1" source="Bt5aDinGUWlxkMjQN304-25" edge="1">
          <mxGeometry width="50" height="50" relative="1" as="geometry">
            <mxPoint x="770" y="521.75" as="sourcePoint" />
            <mxPoint x="880" y="1120" as="targetPoint" />
            <Array as="points">
              <mxPoint x="700" y="1120" />
            </Array>
          </mxGeometry>
        </mxCell>
        <mxCell id="Xtlks4UdEk3piKS54iS9-75" value="&lt;font color=&quot;#cc0000&quot;&gt;&lt;b&gt;GetPaymentTransactions&lt;/b&gt;&lt;/font&gt;" style="edgeLabel;html=1;align=center;verticalAlign=middle;resizable=0;points=[];" parent="Xtlks4UdEk3piKS54iS9-74" vertex="1" connectable="0">
          <mxGeometry x="0.442" y="2" relative="1" as="geometry">
            <mxPoint x="-1" y="-3" as="offset" />
          </mxGeometry>
        </mxCell>
        <mxCell id="Xtlks4UdEk3piKS54iS9-76" value="" style="endArrow=classic;startArrow=none;html=1;rounded=0;strokeColor=#FF0000;strokeWidth=3;exitX=0.5;exitY=1;exitDx=0;exitDy=0;entryX=0;entryY=0.75;entryDx=0;entryDy=0;startFill=0;" parent="1" source="Bt5aDinGUWlxkMjQN304-25" target="Xtlks4UdEk3piKS54iS9-41" edge="1">
          <mxGeometry width="50" height="50" relative="1" as="geometry">
            <mxPoint x="785" y="523" as="sourcePoint" />
            <mxPoint x="888" y="1120" as="targetPoint" />
            <Array as="points">
              <mxPoint x="735" y="875" />
            </Array>
          </mxGeometry>
        </mxCell>
        <mxCell id="Xtlks4UdEk3piKS54iS9-77" value="&lt;font color=&quot;#cc0000&quot;&gt;&lt;b&gt;GetApplications&lt;/b&gt;&lt;/font&gt;" style="edgeLabel;html=1;align=center;verticalAlign=middle;resizable=0;points=[];" parent="Xtlks4UdEk3piKS54iS9-76" vertex="1" connectable="0">
          <mxGeometry x="0.442" y="2" relative="1" as="geometry">
            <mxPoint x="21" y="-138" as="offset" />
          </mxGeometry>
        </mxCell>
        <mxCell id="Xtlks4UdEk3piKS54iS9-78" value="" style="endArrow=classic;startArrow=none;html=1;rounded=0;strokeColor=#FF0000;strokeWidth=3;exitX=0.704;exitY=0.991;exitDx=0;exitDy=0;entryX=0.022;entryY=0.455;entryDx=0;entryDy=0;startFill=0;exitPerimeter=0;entryPerimeter=0;" parent="1" source="Bt5aDinGUWlxkMjQN304-25" target="Xtlks4UdEk3piKS54iS9-34" edge="1">
          <mxGeometry width="50" height="50" relative="1" as="geometry">
            <mxPoint x="785" y="523" as="sourcePoint" />
            <mxPoint x="896" y="885" as="targetPoint" />
            <Array as="points">
              <mxPoint x="766" y="637" />
            </Array>
          </mxGeometry>
        </mxCell>
        <mxCell id="Xtlks4UdEk3piKS54iS9-79" value="&lt;font color=&quot;#cc0000&quot;&gt;&lt;b&gt;GetAuctions&lt;/b&gt;&lt;/font&gt;" style="edgeLabel;html=1;align=center;verticalAlign=middle;resizable=0;points=[];" parent="Xtlks4UdEk3piKS54iS9-78" vertex="1" connectable="0">
          <mxGeometry x="0.442" y="2" relative="1" as="geometry">
            <mxPoint x="-47" y="-26" as="offset" />
          </mxGeometry>
        </mxCell>
        <mxCell id="Xtlks4UdEk3piKS54iS9-80" value="" style="endArrow=classic;startArrow=none;html=1;rounded=0;strokeColor=#FF0000;strokeWidth=3;exitX=1;exitY=0.25;exitDx=0;exitDy=0;entryX=0;entryY=0.75;entryDx=0;entryDy=0;startFill=0;" parent="1" source="Bt5aDinGUWlxkMjQN304-25" target="Xtlks4UdEk3piKS54iS9-27" edge="1">
          <mxGeometry width="50" height="50" relative="1" as="geometry">
            <mxPoint x="816" y="522" as="sourcePoint" />
            <mxPoint x="899" y="623" as="targetPoint" />
            <Array as="points">
              <mxPoint x="830" y="425" />
              <mxPoint x="830" y="310" />
              <mxPoint x="850" y="310" />
              <mxPoint x="850" y="418" />
            </Array>
          </mxGeometry>
        </mxCell>
        <mxCell id="Xtlks4UdEk3piKS54iS9-81" value="&lt;font color=&quot;#cc0000&quot;&gt;&lt;b&gt;GetServices&lt;/b&gt;&lt;/font&gt;" style="edgeLabel;html=1;align=center;verticalAlign=middle;resizable=0;points=[];" parent="Xtlks4UdEk3piKS54iS9-80" vertex="1" connectable="0">
          <mxGeometry x="0.442" y="2" relative="1" as="geometry">
            <mxPoint x="-12" y="-58" as="offset" />
          </mxGeometry>
        </mxCell>
        <mxCell id="Xtlks4UdEk3piKS54iS9-82" value="&lt;div style=&quot;text-align: left;&quot;&gt;&lt;span class=&quot;EzKURWReUAB5oZgtQNkl&quot; data-src-align=&quot;23:8&quot; style=&quot;background-color: initial; white-space-collapse: preserve;&quot;&gt;SalesR&lt;/span&gt;&lt;span class=&quot;EzKURWReUAB5oZgtQNkl&quot; data-src-align=&quot;14:5&quot; style=&quot;background-color: initial; white-space-collapse: preserve;&quot;&gt;eport&lt;/span&gt;&lt;/div&gt;&lt;span style=&quot;white-space-collapse: preserve; background-color: initial;&quot;&gt;&lt;div style=&quot;text-align: left;&quot;&gt;&lt;span style=&quot;background-color: initial;&quot;&gt;UserActivityReport&lt;/span&gt;&lt;/div&gt;&lt;/span&gt;" style="rounded=1;whiteSpace=wrap;html=1;align=center;fillColor=#0066CC;strokeColor=#FFFFFF;fontColor=#FFFFFF;" parent="1" vertex="1">
          <mxGeometry x="675" y="444" width="120" height="50" as="geometry" />
        </mxCell>
        <mxCell id="Xtlks4UdEk3piKS54iS9-83" value="БД&lt;div&gt;Reports&lt;/div&gt;" style="shape=cylinder3;whiteSpace=wrap;html=1;boundedLbl=1;backgroundOutline=1;size=15;strokeColor=#FF3333;fillColor=#b0e3e6;" parent="1" vertex="1">
          <mxGeometry x="780" y="490" width="75" height="70" as="geometry" />
        </mxCell>
        <mxCell id="Xtlks4UdEk3piKS54iS9-84" value="" style="endArrow=classic;startArrow=none;html=1;rounded=0;strokeColor=#FF0000;strokeWidth=3;exitX=0.75;exitY=0;exitDx=0;exitDy=0;entryX=0;entryY=0.5;entryDx=0;entryDy=0;startFill=0;" parent="1" source="Bt5aDinGUWlxkMjQN304-25" target="Xtlks4UdEk3piKS54iS9-21" edge="1">
          <mxGeometry width="50" height="50" relative="1" as="geometry">
            <mxPoint x="776" y="522" as="sourcePoint" />
            <mxPoint x="899" y="623" as="targetPoint" />
            <Array as="points">
              <mxPoint x="773" y="191" />
            </Array>
          </mxGeometry>
        </mxCell>
        <mxCell id="Xtlks4UdEk3piKS54iS9-85" value="&lt;font color=&quot;#cc0000&quot;&gt;&lt;b&gt;GetOrders&lt;/b&gt;&lt;/font&gt;" style="edgeLabel;html=1;align=center;verticalAlign=middle;resizable=0;points=[];" parent="Xtlks4UdEk3piKS54iS9-84" vertex="1" connectable="0">
          <mxGeometry x="0.442" y="2" relative="1" as="geometry">
            <mxPoint x="-14" y="91" as="offset" />
          </mxGeometry>
        </mxCell>
        <mxCell id="Xtlks4UdEk3piKS54iS9-88" value="" style="endArrow=classic;startArrow=none;html=1;rounded=0;strokeColor=#FF0000;strokeWidth=3;exitX=0.25;exitY=0;exitDx=0;exitDy=0;startFill=0;entryX=0.016;entryY=0.898;entryDx=0;entryDy=0;entryPerimeter=0;" parent="1" source="Bt5aDinGUWlxkMjQN304-25" target="Xtlks4UdEk3piKS54iS9-1" edge="1">
          <mxGeometry width="50" height="50" relative="1" as="geometry">
            <mxPoint x="745" y="406" as="sourcePoint" />
            <mxPoint x="890" y="37" as="targetPoint" />
            <Array as="points">
              <mxPoint x="698" y="-133" />
            </Array>
          </mxGeometry>
        </mxCell>
        <mxCell id="Xtlks4UdEk3piKS54iS9-89" value="&lt;font color=&quot;#cc0000&quot;&gt;&lt;b&gt;GetClients&lt;/b&gt;&lt;/font&gt;" style="edgeLabel;html=1;align=center;verticalAlign=middle;resizable=0;points=[];rotation=-1;" parent="Xtlks4UdEk3piKS54iS9-88" vertex="1" connectable="0">
          <mxGeometry x="0.442" y="2" relative="1" as="geometry">
            <mxPoint x="64" y="-16" as="offset" />
          </mxGeometry>
        </mxCell>
        <mxCell id="Xtlks4UdEk3piKS54iS9-95" value="" style="endArrow=classic;startArrow=none;html=1;rounded=0;strokeColor=#FF0000;strokeWidth=3;exitX=0.004;exitY=0.362;exitDx=0;exitDy=0;entryX=0;entryY=0.75;entryDx=0;entryDy=0;startFill=0;exitPerimeter=0;" parent="1" source="Bt5aDinGUWlxkMjQN304-71" target="Xtlks4UdEk3piKS54iS9-82" edge="1">
          <mxGeometry width="50" height="50" relative="1" as="geometry">
            <mxPoint x="428" y="475" as="sourcePoint" />
            <mxPoint x="675" y="547" as="targetPoint" />
            <Array as="points">
              <mxPoint x="553" y="482" />
              <mxPoint x="610" y="482" />
            </Array>
          </mxGeometry>
        </mxCell>
        <mxCell id="Xtlks4UdEk3piKS54iS9-96" value="&lt;b&gt;&lt;font color=&quot;#cc0000&quot;&gt;Поток 13&lt;/font&gt;&lt;/b&gt;" style="edgeLabel;html=1;align=center;verticalAlign=middle;resizable=0;points=[];" parent="Xtlks4UdEk3piKS54iS9-95" vertex="1" connectable="0">
          <mxGeometry x="0.442" y="2" relative="1" as="geometry">
            <mxPoint x="6" y="2" as="offset" />
          </mxGeometry>
        </mxCell>
        <mxCell id="Xtlks4UdEk3piKS54iS9-97" value="&lt;div style=&quot;&quot;&gt;&lt;b style=&quot;background-color: initial;&quot;&gt;Поток 13&lt;/b&gt;&lt;/div&gt;&lt;div style=&quot;&quot;&gt;&lt;span style=&quot;text-align: center; background-color: initial;&quot;&gt;&lt;div style=&quot;text-align: left;&quot;&gt;&lt;div style=&quot;&quot;&gt;&lt;div style=&quot;&quot;&gt;&lt;span style=&quot;white-space-collapse: preserve;&quot;&gt;UserActivityReport&lt;/span&gt;&lt;br&gt;&lt;/div&gt;&lt;div style=&quot;&quot;&gt;&lt;span style=&quot;white-space-collapse: preserve;&quot;&gt;&lt;br&gt;&lt;/span&gt;&lt;/div&gt;&lt;div style=&quot;&quot;&gt;&lt;span style=&quot;white-space-collapse: preserve;&quot;&gt;&lt;b&gt;Поток 14&lt;/b&gt;&lt;/span&gt;&lt;/div&gt;&lt;div style=&quot;&quot;&gt;&lt;span style=&quot;white-space-collapse: preserve; background-color: initial;&quot; class=&quot;EzKURWReUAB5oZgtQNkl&quot; data-src-align=&quot;23:8&quot;&gt;SalesR&lt;/span&gt;&lt;span style=&quot;white-space-collapse: preserve; background-color: initial;&quot; class=&quot;EzKURWReUAB5oZgtQNkl&quot; data-src-align=&quot;14:5&quot;&gt;eport&lt;/span&gt;&lt;span style=&quot;white-space-collapse: preserve;&quot;&gt;&lt;b&gt;&lt;br&gt;&lt;/b&gt;&lt;/span&gt;&lt;/div&gt;&lt;/div&gt;&lt;/div&gt;&lt;/span&gt;&lt;/div&gt;&lt;div style=&quot;&quot;&gt;&lt;span style=&quot;font-family: monospace; font-size: 0px; text-wrap: nowrap;&quot;&gt;%3CmxGraphModel%3E%3Croot%3E%3CmxCell%20id%3D%220%22%2F%3E%3CmxCell%20id%3D%221%22%20parent%3D%220%22%2F%3E%3CmxCell%20id%3D%222%22%20value%3D%22%26lt%3Bdiv%20style%3D%26quot%3B%26quot%3B%26gt%3B%26lt%3Bb%26gt%3B%D0%9F%D0%BE%D1%82%D0%BE%D0%BA%203%26lt%3B%2Fb%26gt%3B%26lt%3B%2Fdiv%26gt%3B%26lt%3Bdiv%20style%3D%26quot%3B%26quot%3B%26gt%3B%26lt%3Bspan%20style%3D%26quot%3Bfont-family%3A%20monospace%3B%20font-size%3A%200px%3B%20text-wrap%3A%20nowrap%3B%26quot%3B%26gt%3B%253CmxGraphModel%253E%253Croot%253E%253CmxCell%2520id%253D%25220%2522%252F%253E%253CmxCell%2520id%253D%25221%2522%2520parent%253D%25220%2522%252F%253E%253CmxCell%2520id%253D%25222%2522%2520value%253D%2522%2526lt%253Bdiv%2520style%253D%2526quot%253B%2526quot%253B%2526gt%253B%2526lt%253Bb%2526gt%253B%25D0%259F%25D0%25BE%25D1%2582%25D0%25BE%25D0%25BA%25201%2526lt%253B%252Fb%2526gt%253B%2526lt%253B%252Fdiv%2526gt%253B%2526lt%253Bdiv%2520style%253D%2526quot%253B%2526quot%253B%2526gt%253B%2526lt%253Bdiv%2526gt%253B%2526lt%253Bspan%2520style%253D%2526quot%253Bbackground-color%253A%2520initial%253B%2526quot%253B%2526gt%253BRegClient%2526lt%253B%252Fspan%2526gt%253B%2526lt%253Bbr%2526gt%253B%2526lt%253Bspan%2520style%253D%2526quot%253Bbackground-color%253A%2520initial%253B%2526quot%253B%2526gt%253BGetClient%2526lt%253B%252Fspan%2526gt%253B%2526lt%253Bbr%2526gt%253B%2526lt%253Bspan%2520style%253D%2526quot%253Bbackground-color%253A%2520initial%253B%2526quot%253B%2526gt%253BSaveClient%2526lt%253B%252Fspan%2526gt%253B%2526lt%253Bbr%2526gt%253B%2526lt%253B%252Fdiv%2526gt%253B%2526lt%253Bdiv%2526gt%253BSetRoles%2526lt%253B%252Fdiv%2526gt%253B%2526lt%253Bdiv%2526gt%253B%2526lt%253Bfont%2520color%253D%2526quot%253B%2523330000%2526quot%253B%2526gt%253B%2526lt%253Bbr%2526gt%253B%2526lt%253B%252Ffont%2526gt%253B%2526lt%253B%252Fdiv%2526gt%253B%2526lt%253Bdiv%2526gt%253B%2526lt%253Bfont%2520color%253D%2526quot%253B%2523330000%2526quot%253B%2526gt%253B%2526lt%253Bb%2526gt%253B%25D0%259F%25D0%25BE%25D1%2582%25D0%25BE%25D0%25BA%25202%2526lt%253B%252Fb%2526gt%253B%2526lt%253B%252Ffont%2526gt%253B%2526lt%253B%252Fdiv%2526gt%253B%2526lt%253Bdiv%2526gt%253B%2526lt%253Bfont%2520color%253D%2526quot%253B%2523330000%2526quot%253B%2526gt%253B%2526lt%253Bspan%2520style%253D%2526quot%253Bbackground-color%253A%2520initial%253B%2526quot%253B%2526gt%253BGetClient%2526lt%253B%252Fspan%2526gt%253B%2526lt%253Bbr%2520style%253D%2526quot%253B%2526quot%253B%2526gt%253B%2526lt%253Bspan%2520style%253D%2526quot%253Bbackground-color%253A%2520initial%253B%2526quot%253B%2526gt%253BSaveClient%2526lt%253B%252Fspan%2526gt%253B%2526lt%253Bbr%2520style%253D%2526quot%253B%2526quot%253B%2526gt%253B%2526lt%253Bspan%2520style%253D%2526quot%253Bbackground-color%253A%2520initial%253B%2526quot%253B%2526gt%253BSetRoles%2526lt%253B%252Fspan%2526gt%253B%2526lt%253Bbr%2520style%253D%2526quot%253B%2526quot%253B%2526gt%253B%2526lt%253Bspan%2520style%253D%2526quot%253Bbackground-color%253A%2520initial%253B%2526quot%253B%2526gt%253BGetClients%2526lt%253B%252Fspan%2526gt%253B%2526lt%253B%252Ffont%2526gt%253B%2526lt%253Bbr%2526gt%253B%2526lt%253B%252Fdiv%2526gt%253B%2526lt%253B%252Fdiv%2526gt%253B%2526lt%253Bspan%2520style%253D%2526quot%253Bbackground-color%253A%2520initial%253B%2526quot%253B%2526gt%253B%2526lt%253Bdiv%2520style%253D%2526quot%253B%2526quot%253B%2526gt%253B%2526lt%253Bbr%2526gt%253B%2526lt%253B%252Fdiv%2526gt%253B%2526lt%253Bdiv%2520style%253D%2526quot%253B%2526quot%253B%2526gt%253B%2526lt%253Bspan%2520style%253D%2526quot%253Btext-align%253A%2520center%253B%2520background-color%253A%2520initial%253B%2526quot%253B%2526gt%253B%2526lt%253Bdiv%2520style%253D%2526quot%253Btext-align%253A%2520left%253B%2526quot%253B%2526gt%253B%2526lt%253Bb%2520style%253D%2526quot%253Bfont-size%253A%252011px%253B%2520text-align%253A%2520center%253B%2520text-wrap%253A%2520nowrap%253B%2526quot%253B%2526gt%253B%25D0%259F%25D0%25BE%25D1%2582%25D0%25BE%25D0%25BA%25205%252C6%2526lt%253B%252Fb%2526gt%253B%2526lt%253Bspan%2520style%253D%2526quot%253Bbackground-color%253A%2520initial%253B%2526quot%253B%2526gt%253B%2526lt%253Bbr%2526gt%253B%2526lt%253B%252Fspan%2526gt%253B%2526lt%253B%252Fdiv%2526gt%253B%2526lt%253Bdiv%2520style%253D%2526quot%253Btext-align%253A%2520left%253B%2526quot%253B%2526gt%253B%2526lt%253Bdiv%2526gt%253B%2526lt%253Bspan%2520style%253D%2526quot%253Bbackground-color%253A%2520initial%253B%2526quot%253B%2526gt%253BCreate%2526lt%253B%252Fspan%2526gt%253B%2526lt%253Bspan%2520style%253D%2526quot%253Bbackground-color%253A%2520initial%253B%2526quot%253B%2526gt%253BSupportRequest%2526lt%253B%252Fspan%2526gt%253B%2526lt%253B%252Fdiv%2526gt%253B%2526lt%253Bspan%2520style%253D%2526quot%253Btext-align%253A%2520center%253B%2520background-color%253A%2520initial%253B%2526quot%253B%2526gt%253B%2526lt%253Bdiv%2520style%253D%2526quot%253Btext-align%253A%2520left%253B%2526quot%253B%2526gt%253B%2526lt%253Bspan%2520style%253D%2526quot%253Bbackground-color%253A%2520initial%253B%2526quot%253B%2526gt%253BSave%2526lt%253B%252Fspan%2526gt%253B%2526lt%253Bspan%2520style%253D%2526quot%253Bbackground-color%253A%2520initial%253B%2526quot%253B%2526gt%253BSupportRequest%2526lt%253B%252Fspan%2526gt%253B%2526lt%253B%252Fdiv%2526gt%253B%2526lt%253B%252Fspan%2526gt%253B%2526lt%253Bspan%2520style%253D%2526quot%253Btext-align%253A%2520center%253B%2520background-color%253A%2520initial%253B%2526quot%253B%2526gt%253B%2526lt%253Bdiv%2520style%253D%2526quot%253Btext-align%253A%2520left%253B%2526quot%253B%2526gt%253B%2526lt%253Bspan%2520style%253D%2526quot%253Bbackground-color%253A%2520initial%253B%2526quot%253B%2526gt%253BChangeStarusRequest%2526lt%253B%252Fspan%2526gt%253B%2526lt%253B%252Fdiv%2526gt%253B%2526lt%253B%252Fspan%2526gt%253B%2526lt%253Bspan%2520style%253D%2526quot%253Btext-align%253A%2520center%253B%2520background-color%253A%2520initial%253B%2526quot%253B%2526gt%253B%2526lt%253Bdiv%2520style%253D%2526quot%253Btext-align%253A%2520left%253B%2526quot%253B%2526gt%253B%2526lt%253Bspan%2520style%253D%2526quot%253Bbackground-color%253A%2520initial%253B%2526quot%253B%2526gt%253BGet%2526lt%253B%252Fspan%2526gt%253B%2526lt%253Bspan%2520style%253D%2526quot%253Bbackground-color%253A%2520initial%253B%2526quot%253B%2526gt%253BSupportRequest%2526lt%253B%252Fspan%2526gt%253B%2526lt%253B%252Fdiv%2526gt%253B%2526lt%253B%252Fspan%2526gt%253B%2526lt%253Bspan%2520style%253D%2526quot%253Btext-align%253A%2520center%253B%2520background-color%253A%2520initial%253B%2526quot%253B%2526gt%253B%2526lt%253Bdiv%2520style%253D%2526quot%253Btext-align%253A%2520left%253B%2526quot%253B%2526gt%253B%2526lt%253Bspan%2520style%253D%2526quot%253Bbackground-color%253A%2520initial%253B%2526quot%253B%2526gt%253BGet%2526lt%253B%252Fspan%2526gt%253B%2526lt%253Bspan%2520style%253D%2526quot%253Bbackground-color%253A%2520initial%253B%2526quot%253B%2526gt%253BSupportRequests%2526lt%253B%252Fspan%2526gt%253B%2526lt%253B%252Fdiv%2526gt%253B%2526lt%253Bdiv%2520style%253D%2526quot%253Btext-align%253A%2520left%253B%2526quot%253B%2526gt%253B%2526lt%253Bbr%2526gt%253B%2526lt%253B%252Fdiv%2526gt%253B%2526lt%253B%252Fspan%2526gt%253B%2526lt%253B%252Fdiv%2526gt%253B%2526lt%253B%252Fspan%2526gt%253B%2526lt%253B%252Fdiv%2526gt%253B%2526lt%253B%252Fspan%2526gt%253B%2522%2520style%253D%2522rounded%253D0%253BwhiteSpace%253Dwrap%253Bhtml%253D1%253Balign%253Dleft%253BstrokeColor%253Dnone%253B%2522%2520vertex%253D%25221%2522%2520parent%253D%25221%2522%253E%253CmxGeometry%2520x%253D%2522822.5%2522%2520y%253D%2522-582.5%2522%2520width%253D%2522167.5%2522%2520height%253D%2522260%2522%2520as%253D%2522geometry%2522%252F%253E%253C%252FmxCell%253E%253C%252Froot%253E%253C%252FmxGraphModel%253%26lt%3B%2Fspan%26gt%3B%26lt%3Bspan%20style%3D%26quot%3Bbackground-color%3A%20initial%3B%26quot%3B%26gt%3BCreateOrder%26lt%3B%2Fspan%26gt%3B%26lt%3B%2Fdiv%26gt%3B%26lt%3Bspan%20style%3D%26quot%3Bbackground-color%3A%20initial%3B%26quot%3B%26gt%3B%26lt%3Bdiv%20style%3D%26quot%3B%26quot%3B%26gt%3B%26lt%3Bspan%20style%3D%26quot%3Btext-align%3A%20center%3B%20background-color%3A%20initial%3B%26quot%3B%26gt%3B%26lt%3Bdiv%20style%3D%26quot%3Btext-align%3A%20left%3B%26quot%3B%26gt%3B%26lt%3Bspan%20style%3D%26quot%3Btext-align%3A%20center%3B%20background-color%3A%20initial%3B%26quot%3B%26gt%3B%26lt%3Bdiv%20style%3D%26quot%3Btext-align%3A%20left%3B%26quot%3B%26gt%3B%26lt%3Bdiv%20style%3D%26quot%3B%26quot%3B%26gt%3BGetOrder%26lt%3B%2Fdiv%26gt%3B%26lt%3Bdiv%20style%3D%26quot%3B%26quot%3B%26gt%3BGetOrders%26lt%3B%2Fdiv%26gt%3B%26lt%3Bdiv%20style%3D%26quot%3B%26quot%3B%26gt%3BSaveOrder%26lt%3B%2Fdiv%26gt%3B%26lt%3Bdiv%20style%3D%26quot%3B%26quot%3B%26gt%3BDeleteOrder%26lt%3B%2Fdiv%26gt%3B%26lt%3Bdiv%20style%3D%26quot%3B%26quot%3B%26gt%3BApproveOrder%26lt%3B%2Fdiv%26gt%3B%26lt%3Bdiv%20style%3D%26quot%3B%26quot%3B%26gt%3B%26lt%3Bbr%26gt%3B%26lt%3B%2Fdiv%26gt%3B%26lt%3Bdiv%20style%3D%26quot%3B%26quot%3B%26gt%3B%26lt%3Bb%26gt%3B%D0%9F%D0%BE%D1%82%D0%BE%D0%BA%204%26lt%3B%2Fb%26gt%3B%26lt%3Bbr%26gt%3B%26lt%3B%2Fdiv%26gt%3B%26lt%3Bdiv%20style%3D%26quot%3B%26quot%3B%26gt%3B%26lt%3Bdiv%20style%3D%26quot%3B%26quot%3B%26gt%3B%26lt%3Bspan%20style%3D%26quot%3Bbackground-color%3A%20initial%3B%26quot%3B%26gt%3BCreate%26lt%3B%2Fspan%26gt%3B%26lt%3Bspan%20style%3D%26quot%3Bbackground-color%3A%20initial%3B%26quot%3B%26gt%3BService%26lt%3B%2Fspan%26gt%3B%26lt%3B%2Fdiv%26gt%3B%26lt%3Bspan%20style%3D%26quot%3Bbackground-color%3A%20initial%3B%26quot%3B%26gt%3BDeleteService%26lt%3B%2Fspan%26gt%3B%26lt%3B%2Fdiv%26gt%3B%26lt%3Bdiv%20style%3D%26quot%3B%26quot%3B%26gt%3B%26lt%3Bspan%20style%3D%26quot%3Bbackground-color%3A%20initial%3B%26quot%3B%26gt%3BSaveService%26lt%3B%2Fspan%26gt%3B%26lt%3B%2Fdiv%26gt%3B%26lt%3Bdiv%20style%3D%26quot%3B%26quot%3B%26gt%3B%26lt%3Bspan%20style%3D%26quot%3Bbackground-color%3A%20initial%3B%26quot%3B%26gt%3BGetService%26lt%3B%2Fspan%26gt%3B%26lt%3B%2Fdiv%26gt%3B%26lt%3Bdiv%20style%3D%26quot%3B%26quot%3B%26gt%3B%26lt%3Bspan%20style%3D%26quot%3Bbackground-color%3A%20initial%3B%26quot%3B%26gt%3BGetServices%26lt%3B%2Fspan%26gt%3B%26lt%3B%2Fdiv%26gt%3B%26lt%3B%2Fdiv%26gt%3B%26lt%3B%2Fspan%26gt%3B%26lt%3B%2Fdiv%26gt%3B%26lt%3B%2Fspan%26gt%3B%26lt%3B%2Fdiv%26gt%3B%26lt%3B%2Fspan%26gt%3B%22%20style%3D%22rounded%3D0%3BwhiteSpace%3Dwrap%3Bhtml%3D1%3Balign%3Dleft%3BstrokeColor%3Dnone%3BverticalAlign%3Dtop%3B%22%20vertex%3D%221%22%20parent%3D%221%22%3E%3CmxGeometry%20x%3D%22990%22%20y%3D%22-598%22%20width%3D%22167.5%22%20height%3D%22228%22%20as%3D%22geometry%22%2F%3E%3C%2FmxCell%3E%3C%2Froot%3E%3C%2FmxGraphModel%3E&lt;/span&gt;&lt;br&gt;&lt;/div&gt;&lt;div style=&quot;&quot;&gt;&lt;span style=&quot;font-family: monospace; font-size: 0px; text-wrap: nowrap;&quot;&gt;&lt;br&gt;&lt;/span&gt;&lt;/div&gt;&lt;div style=&quot;&quot;&gt;&lt;span style=&quot;font-family: monospace; font-size: 0px; text-wrap: nowrap;&quot;&gt;&lt;br&gt;&lt;/span&gt;&lt;/div&gt;&lt;div style=&quot;&quot;&gt;&lt;span style=&quot;color: rgba(0, 0, 0, 0); font-family: monospace; font-size: 0px; text-wrap: nowrap;&quot;&gt;&lt;br&gt;&lt;/span&gt;&lt;/div&gt;" style="rounded=0;whiteSpace=wrap;html=1;align=left;strokeColor=none;verticalAlign=top;" parent="1" vertex="1">
          <mxGeometry x="1857" y="-626" width="120" height="83.5" as="geometry" />
        </mxCell>
        <mxCell id="Xtlks4UdEk3piKS54iS9-98" value="&lt;div style=&quot;text-align: left;&quot;&gt;&lt;span style=&quot;white-space-collapse: preserve;&quot;&gt;UserActivityReport&lt;/span&gt;&lt;/div&gt;" style="rounded=1;whiteSpace=wrap;html=1;fillColor=#0066CC;fontColor=#FFFFFF;" parent="1" vertex="1">
          <mxGeometry x="455.5" y="827" width="152" height="36" as="geometry" />
        </mxCell>
        <mxCell id="Xtlks4UdEk3piKS54iS9-99" value="" style="endArrow=classic;startArrow=none;html=1;rounded=0;strokeColor=#FF0000;strokeWidth=3;entryX=1;entryY=0.5;entryDx=0;entryDy=0;startFill=0;exitX=0;exitY=0.5;exitDx=0;exitDy=0;" parent="1" source="Xtlks4UdEk3piKS54iS9-101" target="Xtlks4UdEk3piKS54iS9-82" edge="1">
          <mxGeometry width="50" height="50" relative="1" as="geometry">
            <mxPoint x="563" y="652" as="sourcePoint" />
            <mxPoint x="685" y="492" as="targetPoint" />
            <Array as="points">
              <mxPoint x="1150" y="760" />
              <mxPoint x="1150" y="510" />
              <mxPoint x="990" y="510" />
              <mxPoint x="990" y="470" />
            </Array>
          </mxGeometry>
        </mxCell>
        <mxCell id="Xtlks4UdEk3piKS54iS9-100" value="&lt;font color=&quot;#cc0000&quot;&gt;&lt;b&gt;Поток 14&lt;/b&gt;&lt;/font&gt;" style="edgeLabel;html=1;align=center;verticalAlign=middle;resizable=0;points=[];" parent="Xtlks4UdEk3piKS54iS9-99" vertex="1" connectable="0">
          <mxGeometry x="0.442" y="2" relative="1" as="geometry">
            <mxPoint x="2" y="12" as="offset" />
          </mxGeometry>
        </mxCell>
        <mxCell id="Xtlks4UdEk3piKS54iS9-101" value="&lt;div style=&quot;text-align: left;&quot;&gt;&lt;span class=&quot;EzKURWReUAB5oZgtQNkl&quot; data-src-align=&quot;23:8&quot; style=&quot;background-color: initial; white-space-collapse: preserve;&quot;&gt;SalesR&lt;/span&gt;&lt;span class=&quot;EzKURWReUAB5oZgtQNkl&quot; data-src-align=&quot;14:5&quot; style=&quot;background-color: initial; white-space-collapse: preserve;&quot;&gt;eport&lt;/span&gt;&lt;/div&gt;" style="rounded=1;whiteSpace=wrap;html=1;align=center;fillColor=#0066CC;strokeColor=#FFFFFF;fontColor=#FFFFFF;" parent="1" vertex="1">
          <mxGeometry x="1220" y="735" width="160" height="50" as="geometry" />
        </mxCell>
        <mxCell id="Xtlks4UdEk3piKS54iS9-104" value="" style="endArrow=classic;startArrow=classic;html=1;rounded=0;strokeColor=#FF0000;strokeWidth=3;entryX=0;entryY=0.5;entryDx=0;entryDy=0;exitX=1.002;exitY=0.489;exitDx=0;exitDy=0;exitPerimeter=0;dashed=1;" parent="1" source="Bt5aDinGUWlxkMjQN304-35" target="Bt5aDinGUWlxkMjQN304-37" edge="1">
          <mxGeometry width="50" height="50" relative="1" as="geometry">
            <mxPoint x="1047" y="393" as="sourcePoint" />
            <mxPoint x="1230" y="245" as="targetPoint" />
            <Array as="points">
              <mxPoint x="1460" y="327" />
              <mxPoint x="1460" y="250" />
            </Array>
          </mxGeometry>
        </mxCell>
        <mxCell id="Xtlks4UdEk3piKS54iS9-105" value="&lt;b&gt;&lt;font color=&quot;#cc0000&quot;&gt;Поток 15&lt;/font&gt;&lt;/b&gt;" style="edgeLabel;html=1;align=center;verticalAlign=middle;resizable=0;points=[];" parent="Xtlks4UdEk3piKS54iS9-104" vertex="1" connectable="0">
          <mxGeometry x="-0.0633" y="3" relative="1" as="geometry">
            <mxPoint x="-262" y="-20" as="offset" />
          </mxGeometry>
        </mxCell>
        <mxCell id="Xtlks4UdEk3piKS54iS9-106" value="&lt;span style=&quot;white-space-collapse: preserve;&quot; data-src-align=&quot;0:11&quot; class=&quot;EzKURWReUAB5oZgtQNkl&quot;&gt;&lt;b&gt;Authorizations&lt;/b&gt;&lt;/span&gt;" style="rounded=1;whiteSpace=wrap;html=1;rotation=90;strokeColor=#CC0000;strokeWidth=3;fillColor=#E6E6E6;" parent="1" vertex="1">
          <mxGeometry x="1568" y="230" width="500" height="47" as="geometry" />
        </mxCell>
        <mxCell id="Xtlks4UdEk3piKS54iS9-107" value="&lt;span style=&quot;white-space-collapse: preserve;&quot; data-src-align=&quot;0:14&quot; class=&quot;EzKURWReUAB5oZgtQNkl&quot;&gt;&lt;b&gt;Authentication&lt;/b&gt;&lt;/span&gt;" style="rounded=1;whiteSpace=wrap;html=1;direction=south;rotation=90;strokeColor=#CC0000;strokeWidth=3;verticalAlign=top;fillColor=#E6E6E6;fontColor=#333333;" parent="1" vertex="1">
          <mxGeometry x="1654" y="212" width="495" height="78" as="geometry" />
        </mxCell>
        <mxCell id="Xtlks4UdEk3piKS54iS9-108" value="&lt;div style=&quot;text-align: left;&quot;&gt;&lt;span style=&quot;background-color: initial; white-space-collapse: preserve;&quot;&gt;Authentication&lt;/span&gt;&lt;/div&gt;&lt;span class=&quot;EzKURWReUAB5oZgtQNkl&quot; data-src-align=&quot;17:12&quot; style=&quot;background-color: initial; white-space-collapse: preserve;&quot;&gt;&lt;div style=&quot;text-align: left;&quot;&gt;&lt;span class=&quot;EzKURWReUAB5oZgtQNkl&quot; data-src-align=&quot;17:12&quot; style=&quot;background-color: initial;&quot;&gt;Security&lt;/span&gt;&lt;span style=&quot;background-color: initial;&quot;&gt;T&lt;/span&gt;&lt;span class=&quot;EzKURWReUAB5oZgtQNkl&quot; data-src-align=&quot;10:6&quot; style=&quot;background-color: initial;&quot;&gt;oken&lt;/span&gt;&lt;span style=&quot;background-color: initial;&quot;&gt;Validation&lt;/span&gt;&lt;/div&gt;&lt;/span&gt;" style="rounded=1;whiteSpace=wrap;html=1;fillColor=#0066CC;fontColor=#FFFFFF;rotation=90;" parent="1" vertex="1">
          <mxGeometry x="1814" y="240" width="163" height="40" as="geometry" />
        </mxCell>
        <mxCell id="Bt5aDinGUWlxkMjQN304-138" value="&lt;span style=&quot;white-space-collapse: preserve;&quot;&gt;&lt;b&gt;WAF&lt;/b&gt;&lt;/span&gt;" style="rounded=1;whiteSpace=wrap;html=1;direction=south;rotation=90;strokeColor=#CC0000;strokeWidth=3;fillColor=#E6E6E6;" parent="1" vertex="1">
          <mxGeometry x="2026" y="230" width="180" height="40" as="geometry" />
        </mxCell>
        <mxCell id="Xtlks4UdEk3piKS54iS9-111" value="&lt;div style=&quot;&quot;&gt;&lt;b style=&quot;background-color: initial;&quot;&gt;Поток 15&lt;/b&gt;&lt;/div&gt;&lt;div style=&quot;&quot;&gt;&lt;span style=&quot;text-align: center; background-color: initial;&quot;&gt;&lt;div style=&quot;text-align: left;&quot;&gt;&lt;div style=&quot;&quot;&gt;&lt;div style=&quot;&quot;&gt;&lt;div&gt;&lt;span style=&quot;background-color: initial;&quot;&gt;RegClient&lt;/span&gt;&lt;br&gt;&lt;span style=&quot;background-color: initial;&quot;&gt;GetClient&lt;/span&gt;&lt;br&gt;&lt;span style=&quot;background-color: initial;&quot;&gt;SaveClient&lt;/span&gt;&lt;br&gt;&lt;/div&gt;&lt;div&gt;SetRoles&lt;/div&gt;&lt;div&gt;&lt;div style=&quot;&quot;&gt;&lt;span style=&quot;background-color: initial;&quot;&gt;Create&lt;/span&gt;&lt;span style=&quot;background-color: initial;&quot;&gt;SupportRequest&lt;/span&gt;&lt;/div&gt;&lt;span style=&quot;background-color: initial;&quot;&gt;SaveSupportRequest&lt;/span&gt;&lt;/div&gt;&lt;div&gt;&lt;span style=&quot;background-color: initial;&quot;&gt;ChangeStarusRequest&lt;/span&gt;&lt;/div&gt;&lt;div&gt;&lt;span style=&quot;background-color: initial;&quot;&gt;GetSupportRequest&lt;/span&gt;&lt;/div&gt;&lt;div&gt;&lt;span style=&quot;background-color: initial;&quot;&gt;G&lt;/span&gt;&lt;span style=&quot;background-color: initial;&quot;&gt;et&lt;/span&gt;&lt;span style=&quot;background-color: initial;&quot;&gt;SupportRequest&lt;/span&gt;&lt;span style=&quot;background-color: initial;&quot;&gt;s&lt;/span&gt;&lt;/div&gt;&lt;div&gt;&lt;div style=&quot;&quot;&gt;CreateOrder&lt;/div&gt;&lt;div style=&quot;&quot;&gt;GetOrder&lt;/div&gt;&lt;div style=&quot;&quot;&gt;GetOrders&lt;/div&gt;&lt;div style=&quot;&quot;&gt;SaveOrder&lt;/div&gt;&lt;div style=&quot;&quot;&gt;DeleteOrder&lt;/div&gt;&lt;div style=&quot;&quot;&gt;ApproveOrder&lt;/div&gt;&lt;/div&gt;&lt;div style=&quot;&quot;&gt;&lt;div style=&quot;&quot;&gt;&lt;span style=&quot;background-color: initial;&quot;&gt;Create&lt;/span&gt;&lt;span style=&quot;background-color: initial;&quot;&gt;Service&lt;/span&gt;&lt;/div&gt;&lt;span style=&quot;background-color: initial;&quot;&gt;DeleteService&lt;/span&gt;&lt;/div&gt;&lt;div style=&quot;&quot;&gt;&lt;span style=&quot;background-color: initial;&quot;&gt;SaveService&lt;/span&gt;&lt;/div&gt;&lt;div style=&quot;&quot;&gt;&lt;span style=&quot;background-color: initial;&quot;&gt;GetService&lt;/span&gt;&lt;/div&gt;&lt;div style=&quot;&quot;&gt;&lt;span style=&quot;background-color: initial;&quot;&gt;GetServices&lt;/span&gt;&lt;/div&gt;&lt;div style=&quot;&quot;&gt;&lt;div style=&quot;&quot;&gt;&lt;span style=&quot;background-color: initial;&quot;&gt;Create&lt;/span&gt;&lt;span style=&quot;background-color: initial;&quot;&gt;Auction&lt;/span&gt;&lt;/div&gt;&lt;span style=&quot;text-align: center; background-color: initial;&quot;&gt;&lt;div style=&quot;text-align: left;&quot;&gt;&lt;span style=&quot;background-color: initial;&quot;&gt;Delete&lt;/span&gt;&lt;span style=&quot;background-color: initial;&quot;&gt;Auction&lt;/span&gt;&lt;/div&gt;&lt;/span&gt;&lt;span style=&quot;text-align: center; background-color: initial;&quot;&gt;&lt;div style=&quot;text-align: left;&quot;&gt;&lt;span style=&quot;background-color: initial;&quot;&gt;Save&lt;/span&gt;&lt;span style=&quot;background-color: initial;&quot;&gt;Auction&lt;/span&gt;&lt;/div&gt;&lt;/span&gt;&lt;span style=&quot;text-align: center; background-color: initial;&quot;&gt;&lt;div style=&quot;text-align: left;&quot;&gt;&lt;span style=&quot;background-color: initial;&quot;&gt;GetAuction&lt;/span&gt;&lt;/div&gt;&lt;/span&gt;&lt;span style=&quot;text-align: center; background-color: initial;&quot;&gt;&lt;div style=&quot;text-align: left;&quot;&gt;&lt;span style=&quot;background-color: initial;&quot;&gt;GetAuctions&lt;/span&gt;&lt;/div&gt;&lt;/span&gt;&lt;span style=&quot;text-align: center; white-space-collapse: preserve; background-color: initial;&quot;&gt;&lt;div style=&quot;text-align: left;&quot;&gt;&lt;span style=&quot;background-color: initial;&quot;&gt;CreateRequestOnAuction&lt;/span&gt;&lt;/div&gt;&lt;/span&gt;&lt;span style=&quot;text-align: center; background-color: initial;&quot;&gt;&lt;div style=&quot;text-align: left;&quot;&gt;&lt;span style=&quot;background-color: initial;&quot;&gt;UpdateBids&lt;/span&gt;&lt;/div&gt;&lt;/span&gt;&lt;span style=&quot;text-align: center; background-color: initial;&quot;&gt;&lt;div style=&quot;text-align: left;&quot;&gt;&lt;span style=&quot;background-color: initial;&quot;&gt;NotificationP&lt;/span&gt;&lt;span style=&quot;background-color: initial; white-space-collapse: preserve;&quot; class=&quot;EzKURWReUAB5oZgtQNkl&quot; data-src-align=&quot;0:8&quot;&gt;articipant&lt;/span&gt;&lt;/div&gt;&lt;/span&gt;&lt;span style=&quot;text-align: center; background-color: initial;&quot;&gt;&lt;div style=&quot;text-align: left;&quot;&gt;&lt;span style=&quot;background-color: initial;&quot;&gt;ProcessNewRequest&lt;/span&gt;&lt;/div&gt;&lt;/span&gt;&lt;span style=&quot;text-align: center; background-color: initial;&quot;&gt;&lt;div style=&quot;text-align: left;&quot;&gt;&lt;span style=&quot;background-color: initial;&quot;&gt;UpdateStatus&lt;/span&gt;&lt;span style=&quot;background-color: initial;&quot;&gt;Auction&lt;/span&gt;&lt;/div&gt;&lt;div style=&quot;text-align: left;&quot;&gt;&lt;div style=&quot;&quot;&gt;&lt;span style=&quot;background-color: initial; white-space-collapse: preserve;&quot;&gt;Create&lt;/span&gt;&lt;span style=&quot;background-color: initial;&quot;&gt;Application&lt;/span&gt;&lt;/div&gt;&lt;span style=&quot;white-space-collapse: preserve; background-color: initial;&quot;&gt;Delete&lt;span style=&quot;background-color: initial; white-space-collapse: collapse;&quot;&gt;Application&lt;/span&gt;&lt;/span&gt;&lt;/div&gt;&lt;div style=&quot;text-align: left;&quot;&gt;&lt;span style=&quot;white-space-collapse: preserve; background-color: initial;&quot;&gt;Save&lt;span style=&quot;background-color: initial; white-space-collapse: collapse;&quot;&gt;Application&lt;/span&gt;&lt;/span&gt;&lt;/div&gt;&lt;div style=&quot;text-align: left;&quot;&gt;&lt;span style=&quot;background-color: initial;&quot;&gt;GetApplication&lt;/span&gt;&lt;/div&gt;&lt;div style=&quot;text-align: left;&quot;&gt;&lt;span style=&quot;background-color: initial;&quot;&gt;GetApplications&lt;/span&gt;&lt;/div&gt;&lt;div style=&quot;text-align: left;&quot;&gt;&lt;span style=&quot;white-space-collapse: preserve; background-color: initial;&quot;&gt;UpdateStatus&lt;span style=&quot;background-color: initial; white-space-collapse: collapse;&quot;&gt;Application&lt;/span&gt;&lt;/span&gt;&lt;/div&gt;&lt;div style=&quot;text-align: left;&quot;&gt;&lt;div style=&quot;&quot;&gt;&lt;span style=&quot;background-color: initial; white-space-collapse: preserve;&quot;&gt;Initiate&lt;/span&gt;&lt;span style=&quot;white-space-collapse: preserve; background-color: initial;&quot;&gt;Transaction&lt;/span&gt;&lt;/div&gt;&lt;span style=&quot;text-align: center; white-space-collapse: preserve; background-color: initial;&quot;&gt;&lt;div style=&quot;text-align: left;&quot;&gt;&lt;span style=&quot;background-color: initial;&quot;&gt;Confirm&lt;/span&gt;&lt;span style=&quot;background-color: initial;&quot;&gt;Transaction&lt;/span&gt;&lt;/div&gt;&lt;/span&gt;&lt;span style=&quot;text-align: center; white-space-collapse: preserve; background-color: initial;&quot;&gt;&lt;div style=&quot;text-align: left;&quot;&gt;&lt;span style=&quot;background-color: initial;&quot;&gt;AccountingTransaction&lt;/span&gt;&lt;/div&gt;&lt;/span&gt;&lt;span style=&quot;text-align: center; white-space-collapse: preserve; background-color: initial;&quot;&gt;&lt;div style=&quot;text-align: left;&quot;&gt;&lt;span style=&quot;background-color: initial;&quot;&gt;GetStatus&lt;/span&gt;&lt;span style=&quot;background-color: initial;&quot;&gt;Transaction&lt;/span&gt;&lt;/div&gt;&lt;/span&gt;&lt;span style=&quot;text-align: center; white-space-collapse: preserve; background-color: initial;&quot; class=&quot;EzKURWReUAB5oZgtQNkl&quot; data-src-align=&quot;0:12&quot;&gt;&lt;div style=&quot;text-align: left;&quot;&gt;&lt;span style=&quot;background-color: initial;&quot; class=&quot;EzKURWReUAB5oZgtQNkl&quot; data-src-align=&quot;0:12&quot;&gt;ConfirmC&lt;/span&gt;&lt;span style=&quot;background-color: initial;&quot; class=&quot;EzKURWReUAB5oZgtQNkl&quot; data-src-align=&quot;13:6&quot;&gt;ancellation&lt;/span&gt;&lt;/div&gt;&lt;/span&gt;&lt;span style=&quot;text-align: center; white-space-collapse: preserve; background-color: initial;&quot;&gt;&lt;div style=&quot;text-align: left;&quot;&gt;&lt;span style=&quot;background-color: initial;&quot;&gt;GetPaymentTransaction&lt;/span&gt;&lt;/div&gt;&lt;/span&gt;&lt;span style=&quot;text-align: center; white-space-collapse: preserve; background-color: initial;&quot;&gt;&lt;div style=&quot;text-align: left;&quot;&gt;&lt;span style=&quot;background-color: initial;&quot;&gt;GetPaymentTransactions&lt;/span&gt;&lt;/div&gt;&lt;/span&gt;&lt;/div&gt;&lt;/span&gt;&lt;/div&gt;&lt;/div&gt;&lt;/div&gt;&lt;/div&gt;&lt;/span&gt;&lt;/div&gt;&lt;div style=&quot;&quot;&gt;&lt;span style=&quot;font-family: monospace; font-size: 0px; text-wrap: nowrap;&quot;&gt;%3CmxGraphModel%3E%3Croot%3E%3CmxCell%20id%3D%220%22%2F%3E%3CmxCell%20id%3D%221%22%20parent%3D%220%22%2F%3E%3CmxCell%20id%3D%222%22%20value%3D%22%26lt%3Bdiv%20style%3D%26quot%3B%26quot%3B%26gt%3B%26lt%3Bb%26gt%3B%D0%9F%D0%BE%D1%82%D0%BE%D0%BA%203%26lt%3B%2Fb%26gt%3B%26lt%3B%2Fdiv%26gt%3B%26lt%3Bdiv%20style%3D%26quot%3B%26quot%3B%26gt%3B%26lt%3Bspan%20style%3D%26quot%3Bfont-family%3A%20monospace%3B%20font-size%3A%200px%3B%20text-wrap%3A%20nowrap%3B%26quot%3B%26gt%3B%253CmxGraphModel%253E%253Croot%253E%253CmxCell%2520id%253D%25220%2522%252F%253E%253CmxCell%2520id%253D%25221%2522%2520parent%253D%25220%2522%252F%253E%253CmxCell%2520id%253D%25222%2522%2520value%253D%2522%2526lt%253Bdiv%2520style%253D%2526quot%253B%2526quot%253B%2526gt%253B%2526lt%253Bb%2526gt%253B%25D0%259F%25D0%25BE%25D1%2582%25D0%25BE%25D0%25BA%25201%2526lt%253B%252Fb%2526gt%253B%2526lt%253B%252Fdiv%2526gt%253B%2526lt%253Bdiv%2520style%253D%2526quot%253B%2526quot%253B%2526gt%253B%2526lt%253Bdiv%2526gt%253B%2526lt%253Bspan%2520style%253D%2526quot%253Bbackground-color%253A%2520initial%253B%2526quot%253B%2526gt%253BRegClient%2526lt%253B%252Fspan%2526gt%253B%2526lt%253Bbr%2526gt%253B%2526lt%253Bspan%2520style%253D%2526quot%253Bbackground-color%253A%2520initial%253B%2526quot%253B%2526gt%253BGetClient%2526lt%253B%252Fspan%2526gt%253B%2526lt%253Bbr%2526gt%253B%2526lt%253Bspan%2520style%253D%2526quot%253Bbackground-color%253A%2520initial%253B%2526quot%253B%2526gt%253BSaveClient%2526lt%253B%252Fspan%2526gt%253B%2526lt%253Bbr%2526gt%253B%2526lt%253B%252Fdiv%2526gt%253B%2526lt%253Bdiv%2526gt%253BSetRoles%2526lt%253B%252Fdiv%2526gt%253B%2526lt%253Bdiv%2526gt%253B%2526lt%253Bfont%2520color%253D%2526quot%253B%2523330000%2526quot%253B%2526gt%253B%2526lt%253Bbr%2526gt%253B%2526lt%253B%252Ffont%2526gt%253B%2526lt%253B%252Fdiv%2526gt%253B%2526lt%253Bdiv%2526gt%253B%2526lt%253Bfont%2520color%253D%2526quot%253B%2523330000%2526quot%253B%2526gt%253B%2526lt%253Bb%2526gt%253B%25D0%259F%25D0%25BE%25D1%2582%25D0%25BE%25D0%25BA%25202%2526lt%253B%252Fb%2526gt%253B%2526lt%253B%252Ffont%2526gt%253B%2526lt%253B%252Fdiv%2526gt%253B%2526lt%253Bdiv%2526gt%253B%2526lt%253Bfont%2520color%253D%2526quot%253B%2523330000%2526quot%253B%2526gt%253B%2526lt%253Bspan%2520style%253D%2526quot%253Bbackground-color%253A%2520initial%253B%2526quot%253B%2526gt%253BGetClient%2526lt%253B%252Fspan%2526gt%253B%2526lt%253Bbr%2520style%253D%2526quot%253B%2526quot%253B%2526gt%253B%2526lt%253Bspan%2520style%253D%2526quot%253Bbackground-color%253A%2520initial%253B%2526quot%253B%2526gt%253BSaveClient%2526lt%253B%252Fspan%2526gt%253B%2526lt%253Bbr%2520style%253D%2526quot%253B%2526quot%253B%2526gt%253B%2526lt%253Bspan%2520style%253D%2526quot%253Bbackground-color%253A%2520initial%253B%2526quot%253B%2526gt%253BSetRoles%2526lt%253B%252Fspan%2526gt%253B%2526lt%253Bbr%2520style%253D%2526quot%253B%2526quot%253B%2526gt%253B%2526lt%253Bspan%2520style%253D%2526quot%253Bbackground-color%253A%2520initial%253B%2526quot%253B%2526gt%253BGetClients%2526lt%253B%252Fspan%2526gt%253B%2526lt%253B%252Ffont%2526gt%253B%2526lt%253Bbr%2526gt%253B%2526lt%253B%252Fdiv%2526gt%253B%2526lt%253B%252Fdiv%2526gt%253B%2526lt%253Bspan%2520style%253D%2526quot%253Bbackground-color%253A%2520initial%253B%2526quot%253B%2526gt%253B%2526lt%253Bdiv%2520style%253D%2526quot%253B%2526quot%253B%2526gt%253B%2526lt%253Bbr%2526gt%253B%2526lt%253B%252Fdiv%2526gt%253B%2526lt%253Bdiv%2520style%253D%2526quot%253B%2526quot%253B%2526gt%253B%2526lt%253Bspan%2520style%253D%2526quot%253Btext-align%253A%2520center%253B%2520background-color%253A%2520initial%253B%2526quot%253B%2526gt%253B%2526lt%253Bdiv%2520style%253D%2526quot%253Btext-align%253A%2520left%253B%2526quot%253B%2526gt%253B%2526lt%253Bb%2520style%253D%2526quot%253Bfont-size%253A%252011px%253B%2520text-align%253A%2520center%253B%2520text-wrap%253A%2520nowrap%253B%2526quot%253B%2526gt%253B%25D0%259F%25D0%25BE%25D1%2582%25D0%25BE%25D0%25BA%25205%252C6%2526lt%253B%252Fb%2526gt%253B%2526lt%253Bspan%2520style%253D%2526quot%253Bbackground-color%253A%2520initial%253B%2526quot%253B%2526gt%253B%2526lt%253Bbr%2526gt%253B%2526lt%253B%252Fspan%2526gt%253B%2526lt%253B%252Fdiv%2526gt%253B%2526lt%253Bdiv%2520style%253D%2526quot%253Btext-align%253A%2520left%253B%2526quot%253B%2526gt%253B%2526lt%253Bdiv%2526gt%253B%2526lt%253Bspan%2520style%253D%2526quot%253Bbackground-color%253A%2520initial%253B%2526quot%253B%2526gt%253BCreate%2526lt%253B%252Fspan%2526gt%253B%2526lt%253Bspan%2520style%253D%2526quot%253Bbackground-color%253A%2520initial%253B%2526quot%253B%2526gt%253BSupportRequest%2526lt%253B%252Fspan%2526gt%253B%2526lt%253B%252Fdiv%2526gt%253B%2526lt%253Bspan%2520style%253D%2526quot%253Btext-align%253A%2520center%253B%2520background-color%253A%2520initial%253B%2526quot%253B%2526gt%253B%2526lt%253Bdiv%2520style%253D%2526quot%253Btext-align%253A%2520left%253B%2526quot%253B%2526gt%253B%2526lt%253Bspan%2520style%253D%2526quot%253Bbackground-color%253A%2520initial%253B%2526quot%253B%2526gt%253BSave%2526lt%253B%252Fspan%2526gt%253B%2526lt%253Bspan%2520style%253D%2526quot%253Bbackground-color%253A%2520initial%253B%2526quot%253B%2526gt%253BSupportRequest%2526lt%253B%252Fspan%2526gt%253B%2526lt%253B%252Fdiv%2526gt%253B%2526lt%253B%252Fspan%2526gt%253B%2526lt%253Bspan%2520style%253D%2526quot%253Btext-align%253A%2520center%253B%2520background-color%253A%2520initial%253B%2526quot%253B%2526gt%253B%2526lt%253Bdiv%2520style%253D%2526quot%253Btext-align%253A%2520left%253B%2526quot%253B%2526gt%253B%2526lt%253Bspan%2520style%253D%2526quot%253Bbackground-color%253A%2520initial%253B%2526quot%253B%2526gt%253BChangeStarusRequest%2526lt%253B%252Fspan%2526gt%253B%2526lt%253B%252Fdiv%2526gt%253B%2526lt%253B%252Fspan%2526gt%253B%2526lt%253Bspan%2520style%253D%2526quot%253Btext-align%253A%2520center%253B%2520background-color%253A%2520initial%253B%2526quot%253B%2526gt%253B%2526lt%253Bdiv%2520style%253D%2526quot%253Btext-align%253A%2520left%253B%2526quot%253B%2526gt%253B%2526lt%253Bspan%2520style%253D%2526quot%253Bbackground-color%253A%2520initial%253B%2526quot%253B%2526gt%253BGet%2526lt%253B%252Fspan%2526gt%253B%2526lt%253Bspan%2520style%253D%2526quot%253Bbackground-color%253A%2520initial%253B%2526quot%253B%2526gt%253BSupportRequest%2526lt%253B%252Fspan%2526gt%253B%2526lt%253B%252Fdiv%2526gt%253B%2526lt%253B%252Fspan%2526gt%253B%2526lt%253Bspan%2520style%253D%2526quot%253Btext-align%253A%2520center%253B%2520background-color%253A%2520initial%253B%2526quot%253B%2526gt%253B%2526lt%253Bdiv%2520style%253D%2526quot%253Btext-align%253A%2520left%253B%2526quot%253B%2526gt%253B%2526lt%253Bspan%2520style%253D%2526quot%253Bbackground-color%253A%2520initial%253B%2526quot%253B%2526gt%253BGet%2526lt%253B%252Fspan%2526gt%253B%2526lt%253Bspan%2520style%253D%2526quot%253Bbackground-color%253A%2520initial%253B%2526quot%253B%2526gt%253BSupportRequests%2526lt%253B%252Fspan%2526gt%253B%2526lt%253B%252Fdiv%2526gt%253B%2526lt%253Bdiv%2520style%253D%2526quot%253Btext-align%253A%2520left%253B%2526quot%253B%2526gt%253B%2526lt%253Bbr%2526gt%253B%2526lt%253B%252Fdiv%2526gt%253B%2526lt%253B%252Fspan%2526gt%253B%2526lt%253B%252Fdiv%2526gt%253B%2526lt%253B%252Fspan%2526gt%253B%2526lt%253B%252Fdiv%2526gt%253B%2526lt%253B%252Fspan%2526gt%253B%2522%2520style%253D%2522rounded%253D0%253BwhiteSpace%253Dwrap%253Bhtml%253D1%253Balign%253Dleft%253BstrokeColor%253Dnone%253B%2522%2520vertex%253D%25221%2522%2520parent%253D%25221%2522%253E%253CmxGeometry%2520x%253D%2522822.5%2522%2520y%253D%2522-582.5%2522%2520width%253D%2522167.5%2522%2520height%253D%2522260%2522%2520as%253D%2522geometry%2522%252F%253E%253C%252FmxCell%253E%253C%252Froot%253E%253C%252FmxGraphModel%253%26lt%3B%2Fspan%26gt%3B%26lt%3Bspan%20style%3D%26quot%3Bbackground-color%3A%20initial%3B%26quot%3B%26gt%3BCreateOrder%26lt%3B%2Fspan%26gt%3B%26lt%3B%2Fdiv%26gt%3B%26lt%3Bspan%20style%3D%26quot%3Bbackground-color%3A%20initial%3B%26quot%3B%26gt%3B%26lt%3Bdiv%20style%3D%26quot%3B%26quot%3B%26gt%3B%26lt%3Bspan%20style%3D%26quot%3Btext-align%3A%20center%3B%20background-color%3A%20initial%3B%26quot%3B%26gt%3B%26lt%3Bdiv%20style%3D%26quot%3Btext-align%3A%20left%3B%26quot%3B%26gt%3B%26lt%3Bspan%20style%3D%26quot%3Btext-align%3A%20center%3B%20background-color%3A%20initial%3B%26quot%3B%26gt%3B%26lt%3Bdiv%20style%3D%26quot%3Btext-align%3A%20left%3B%26quot%3B%26gt%3B%26lt%3Bdiv%20style%3D%26quot%3B%26quot%3B%26gt%3BGetOrder%26lt%3B%2Fdiv%26gt%3B%26lt%3Bdiv%20style%3D%26quot%3B%26quot%3B%26gt%3BGetOrders%26lt%3B%2Fdiv%26gt%3B%26lt%3Bdiv%20style%3D%26quot%3B%26quot%3B%26gt%3BSaveOrder%26lt%3B%2Fdiv%26gt%3B%26lt%3Bdiv%20style%3D%26quot%3B%26quot%3B%26gt%3BDeleteOrder%26lt%3B%2Fdiv%26gt%3B%26lt%3Bdiv%20style%3D%26quot%3B%26quot%3B%26gt%3BApproveOrder%26lt%3B%2Fdiv%26gt%3B%26lt%3Bdiv%20style%3D%26quot%3B%26quot%3B%26gt%3B%26lt%3Bbr%26gt%3B%26lt%3B%2Fdiv%26gt%3B%26lt%3Bdiv%20style%3D%26quot%3B%26quot%3B%26gt%3B%26lt%3Bb%26gt%3B%D0%9F%D0%BE%D1%82%D0%BE%D0%BA%204%26lt%3B%2Fb%26gt%3B%26lt%3Bbr%26gt%3B%26lt%3B%2Fdiv%26gt%3B%26lt%3Bdiv%20style%3D%26quot%3B%26quot%3B%26gt%3B%26lt%3Bdiv%20style%3D%26quot%3B%26quot%3B%26gt%3B%26lt%3Bspan%20style%3D%26quot%3Bbackground-color%3A%20initial%3B%26quot%3B%26gt%3BCreate%26lt%3B%2Fspan%26gt%3B%26lt%3Bspan%20style%3D%26quot%3Bbackground-color%3A%20initial%3B%26quot%3B%26gt%3BService%26lt%3B%2Fspan%26gt%3B%26lt%3B%2Fdiv%26gt%3B%26lt%3Bspan%20style%3D%26quot%3Bbackground-color%3A%20initial%3B%26quot%3B%26gt%3BDeleteService%26lt%3B%2Fspan%26gt%3B%26lt%3B%2Fdiv%26gt%3B%26lt%3Bdiv%20style%3D%26quot%3B%26quot%3B%26gt%3B%26lt%3Bspan%20style%3D%26quot%3Bbackground-color%3A%20initial%3B%26quot%3B%26gt%3BSaveService%26lt%3B%2Fspan%26gt%3B%26lt%3B%2Fdiv%26gt%3B%26lt%3Bdiv%20style%3D%26quot%3B%26quot%3B%26gt%3B%26lt%3Bspan%20style%3D%26quot%3Bbackground-color%3A%20initial%3B%26quot%3B%26gt%3BGetService%26lt%3B%2Fspan%26gt%3B%26lt%3B%2Fdiv%26gt%3B%26lt%3Bdiv%20style%3D%26quot%3B%26quot%3B%26gt%3B%26lt%3Bspan%20style%3D%26quot%3Bbackground-color%3A%20initial%3B%26quot%3B%26gt%3BGetServices%26lt%3B%2Fspan%26gt%3B%26lt%3B%2Fdiv%26gt%3B%26lt%3B%2Fdiv%26gt%3B%26lt%3B%2Fspan%26gt%3B%26lt%3B%2Fdiv%26gt%3B%26lt%3B%2Fspan%26gt%3B%26lt%3B%2Fdiv%26gt%3B%26lt%3B%2Fspan%26gt%3B%22%20style%3D%22rounded%3D0%3BwhiteSpace%3Dwrap%3Bhtml%3D1%3Balign%3Dleft%3BstrokeColor%3Dnone%3BverticalAlign%3Dtop%3B%22%20vertex%3D%221%22%20parent%3D%221%22%3E%3CmxGeometry%20x%3D%22990%22%20y%3D%22-598%22%20width%3D%22167.5%22%20height%3D%22228%22%20as%3D%22geometry%22%2F%3E%3C%2FmxCell%3E%3C%2Froot%3E%3C%2FmxGraphModel%3E&lt;/span&gt;&lt;span style=&quot;background-color: initial; white-space-collapse: preserve;&quot; class=&quot;EzKURWReUAB5oZgtQNkl&quot; data-src-align=&quot;23:8&quot;&gt;SalesR&lt;/span&gt;&lt;span style=&quot;background-color: initial; white-space-collapse: preserve;&quot; class=&quot;EzKURWReUAB5oZgtQNkl&quot; data-src-align=&quot;14:5&quot;&gt;eport&lt;/span&gt;&lt;br&gt;&lt;/div&gt;&lt;div style=&quot;&quot;&gt;&lt;span style=&quot;font-family: monospace; font-size: 0px; text-wrap: nowrap;&quot;&gt;&lt;br&gt;&lt;/span&gt;&lt;/div&gt;&lt;div style=&quot;&quot;&gt;&lt;span style=&quot;font-family: monospace; font-size: 0px; text-wrap: nowrap;&quot;&gt;&lt;br&gt;&lt;/span&gt;&lt;/div&gt;&lt;div style=&quot;&quot;&gt;&lt;span style=&quot;color: rgba(0, 0, 0, 0); font-family: monospace; font-size: 0px; text-wrap: nowrap;&quot;&gt;&lt;br&gt;&lt;/span&gt;&lt;/div&gt;" style="rounded=0;whiteSpace=wrap;html=1;align=left;strokeColor=none;verticalAlign=top;" parent="1" vertex="1">
          <mxGeometry x="1990.13" y="-626" width="167.5" height="663.5" as="geometry" />
        </mxCell>
        <mxCell id="Xtlks4UdEk3piKS54iS9-112" value="&lt;div&gt;&lt;span style=&quot;background-color: initial;&quot;&gt;SendNotification&lt;/span&gt;&lt;/div&gt;" style="rounded=1;whiteSpace=wrap;html=1;align=left;fillColor=#0066CC;fontColor=#FFFFFF;" parent="1" vertex="1">
          <mxGeometry x="465" y="310" width="150" height="43" as="geometry" />
        </mxCell>
        <mxCell id="Xtlks4UdEk3piKS54iS9-113" value="" style="endArrow=classic;startArrow=none;html=1;rounded=0;strokeColor=#FF0000;strokeWidth=3;exitX=0.014;exitY=0.875;exitDx=0;exitDy=0;startFill=0;entryX=1;entryY=0.75;entryDx=0;entryDy=0;exitPerimeter=0;" parent="1" source="Xtlks4UdEk3piKS54iS9-21" target="Xtlks4UdEk3piKS54iS9-112" edge="1">
          <mxGeometry width="50" height="50" relative="1" as="geometry">
            <mxPoint x="871.5" y="221.875" as="sourcePoint" />
            <mxPoint x="620" y="340" as="targetPoint" />
            <Array as="points">
              <mxPoint x="660" y="240" />
              <mxPoint x="660" y="342" />
            </Array>
          </mxGeometry>
        </mxCell>
        <mxCell id="Xtlks4UdEk3piKS54iS9-114" value="&lt;span style=&quot;font-size: 12px; text-align: left; text-wrap: wrap; background-color: rgb(251, 251, 251);&quot;&gt;&lt;b style=&quot;&quot;&gt;&lt;font color=&quot;#cc0000&quot;&gt;ChangingOrderNotification&lt;/font&gt;&lt;/b&gt;&lt;/span&gt;" style="edgeLabel;html=1;align=center;verticalAlign=middle;resizable=0;points=[];" parent="Xtlks4UdEk3piKS54iS9-113" vertex="1" connectable="0">
          <mxGeometry x="0.442" y="2" relative="1" as="geometry">
            <mxPoint x="108" y="-43" as="offset" />
          </mxGeometry>
        </mxCell>
        <mxCell id="Xtlks4UdEk3piKS54iS9-115" value="" style="endArrow=classic;startArrow=none;html=1;rounded=0;strokeColor=#FF0000;strokeWidth=3;exitX=1;exitY=0.25;exitDx=0;exitDy=0;entryX=0.25;entryY=1;entryDx=0;entryDy=0;startFill=0;" parent="1" source="Bt5aDinGUWlxkMjQN304-152" target="Xtlks4UdEk3piKS54iS9-1" edge="1">
          <mxGeometry width="50" height="50" relative="1" as="geometry">
            <mxPoint x="783" y="406" as="sourcePoint" />
            <mxPoint x="890" y="201" as="targetPoint" />
            <Array as="points">
              <mxPoint x="640" y="291" />
              <mxPoint x="640" y="160" />
              <mxPoint x="760" y="160" />
              <mxPoint x="760" y="-90" />
              <mxPoint x="917" y="-90" />
            </Array>
          </mxGeometry>
        </mxCell>
        <mxCell id="Xtlks4UdEk3piKS54iS9-116" value="&lt;font color=&quot;#cc0000&quot;&gt;&lt;b&gt;GetClients&lt;/b&gt;&lt;/font&gt;" style="edgeLabel;html=1;align=center;verticalAlign=middle;resizable=0;points=[];" parent="Xtlks4UdEk3piKS54iS9-115" vertex="1" connectable="0">
          <mxGeometry x="0.442" y="2" relative="1" as="geometry">
            <mxPoint x="60" y="-7" as="offset" />
          </mxGeometry>
        </mxCell>
        <mxCell id="Xtlks4UdEk3piKS54iS9-86" value="" style="endArrow=classic;startArrow=none;html=1;rounded=0;strokeColor=#FF0000;strokeWidth=3;exitX=0.5;exitY=0;exitDx=0;exitDy=0;entryX=0.003;entryY=0.836;entryDx=0;entryDy=0;startFill=0;entryPerimeter=0;" parent="1" source="Bt5aDinGUWlxkMjQN304-25" target="Xtlks4UdEk3piKS54iS9-5" edge="1">
          <mxGeometry width="50" height="50" relative="1" as="geometry">
            <mxPoint x="783" y="406" as="sourcePoint" />
            <mxPoint x="890" y="201" as="targetPoint" />
            <Array as="points">
              <mxPoint x="735" y="27" />
            </Array>
          </mxGeometry>
        </mxCell>
        <mxCell id="Xtlks4UdEk3piKS54iS9-87" value="&lt;font color=&quot;#cc0000&quot;&gt;&lt;b&gt;GetSupportRequests&lt;/b&gt;&lt;/font&gt;" style="edgeLabel;html=1;align=center;verticalAlign=middle;resizable=0;points=[];" parent="Xtlks4UdEk3piKS54iS9-86" vertex="1" connectable="0">
          <mxGeometry x="0.442" y="2" relative="1" as="geometry">
            <mxPoint x="58" y="1" as="offset" />
          </mxGeometry>
        </mxCell>
        <mxCell id="Xtlks4UdEk3piKS54iS9-117" value="" style="endArrow=classic;startArrow=none;html=1;rounded=0;strokeColor=#FF0000;strokeWidth=3;exitX=0;exitY=0.75;exitDx=0;exitDy=0;entryX=0.5;entryY=1;entryDx=0;entryDy=0;startFill=0;" parent="1" source="Xtlks4UdEk3piKS54iS9-34" target="Bt5aDinGUWlxkMjQN304-152" edge="1">
          <mxGeometry width="50" height="50" relative="1" as="geometry">
            <mxPoint x="776" y="522" as="sourcePoint" />
            <mxPoint x="899" y="647" as="targetPoint" />
            <Array as="points">
              <mxPoint x="660" y="684" />
              <mxPoint x="660" y="540" />
              <mxPoint x="539" y="540" />
            </Array>
          </mxGeometry>
        </mxCell>
        <mxCell id="Xtlks4UdEk3piKS54iS9-118" value="&lt;b&gt;&lt;font color=&quot;#cc0000&quot;&gt;&lt;span style=&quot;font-size: 12px; text-align: left; text-wrap: wrap; background-color: initial;&quot;&gt;NotificationP&lt;/span&gt;&lt;span style=&quot;font-size: 12px; text-align: left; white-space: pre-wrap; background-color: initial;&quot; class=&quot;EzKURWReUAB5oZgtQNkl&quot; data-src-align=&quot;0:8&quot;&gt;articipant&lt;/span&gt;&lt;/font&gt;&lt;/b&gt;" style="edgeLabel;html=1;align=center;verticalAlign=middle;resizable=0;points=[];" parent="Xtlks4UdEk3piKS54iS9-117" vertex="1" connectable="0">
          <mxGeometry x="0.442" y="2" relative="1" as="geometry">
            <mxPoint x="233" y="142" as="offset" />
          </mxGeometry>
        </mxCell>
        <mxCell id="Xtlks4UdEk3piKS54iS9-120" value="&lt;span style=&quot;font-size: 13px; background-color: initial;&quot;&gt;Редактировать аукцион&lt;/span&gt;&lt;br&gt;&lt;span style=&quot;background-color: initial;&quot;&gt;Валидировать заявку&lt;/span&gt;" style="text;html=1;align=center;verticalAlign=middle;whiteSpace=wrap;rounded=0;" parent="1" vertex="1">
          <mxGeometry x="40" y="520" width="131" height="50" as="geometry" />
        </mxCell>
        <mxCell id="Xtlks4UdEk3piKS54iS9-121" value="&lt;div style=&quot;font-size: 13px;&quot;&gt;&lt;div style=&quot;&quot;&gt;Изменить статус заявки&lt;/div&gt;&lt;div style=&quot;&quot;&gt;на поддержку&lt;/div&gt;&lt;/div&gt;" style="text;html=1;align=center;verticalAlign=middle;whiteSpace=wrap;rounded=0;" parent="1" vertex="1">
          <mxGeometry x="40" y="265" width="131" height="53" as="geometry" />
        </mxCell>
        <mxCell id="Xtlks4UdEk3piKS54iS9-127" value="" style="group;rotation=90;" parent="1" vertex="1" connectable="0">
          <mxGeometry x="1660" y="-20" width="155" height="49" as="geometry" />
        </mxCell>
        <mxCell id="Xtlks4UdEk3piKS54iS9-128" value="&lt;p style=&quot;margin: 0px 0px 0px 13px; text-indent: -13px; font-variant-numeric: normal; font-variant-east-asian: normal; font-variant-alternates: normal; font-kerning: auto; font-optical-sizing: auto; font-feature-settings: normal; font-variation-settings: normal; font-variant-position: normal; font-stretch: normal; font-size: 14px; line-height: normal; color: rgb(14, 14, 14); text-align: start;&quot; class=&quot;p1&quot;&gt;&lt;br&gt;&lt;/p&gt;" style="rounded=1;whiteSpace=wrap;html=1;fillColor=#FF77BF;strokeColor=none;arcSize=33;rotation=90;" parent="Xtlks4UdEk3piKS54iS9-127" vertex="1">
          <mxGeometry x="-5" y="8" width="155" height="34" as="geometry" />
        </mxCell>
        <mxCell id="Xtlks4UdEk3piKS54iS9-129" value="&lt;font style=&quot;font-size: 18px;&quot;&gt;&lt;i&gt;React/HTML/CSS&lt;/i&gt;&lt;/font&gt;" style="text;html=1;align=center;verticalAlign=middle;whiteSpace=wrap;rounded=1;shadow=0;fontSize=23;fontStyle=1;rotation=90;" parent="Xtlks4UdEk3piKS54iS9-127" vertex="1">
          <mxGeometry x="33" y="-4" width="89" height="49" as="geometry" />
        </mxCell>
        <mxCell id="Xtlks4UdEk3piKS54iS9-130" value="" style="rounded=1;whiteSpace=wrap;html=1;arcSize=3;fillColor=#f5f5f5;strokeColor=#1C57CD;strokeWidth=3;align=center;verticalAlign=middle;fontFamily=Helvetica;fontSize=12;fontColor=#333333;resizable=1;rotation=90;" parent="1" vertex="1">
          <mxGeometry x="1290" y="148" width="650" height="210" as="geometry" />
        </mxCell>
        <mxCell id="Xtlks4UdEk3piKS54iS9-131" value="Портал электронной площадки" style="text;html=1;align=center;verticalAlign=middle;whiteSpace=wrap;rounded=1;shadow=0;fontSize=23;fontStyle=1;rotation=90;" parent="1" vertex="1">
          <mxGeometry x="1507.1299999999999" y="240" width="380" height="49" as="geometry" />
        </mxCell>
        <mxCell id="Xtlks4UdEk3piKS54iS9-132" value="" style="group;rotation=90;" parent="1" vertex="1" connectable="0">
          <mxGeometry x="1489.37" y="80" width="309" height="39" as="geometry" />
        </mxCell>
        <mxCell id="Xtlks4UdEk3piKS54iS9-133" value="" style="group;rotation=90;" parent="Xtlks4UdEk3piKS54iS9-132" vertex="1" connectable="0">
          <mxGeometry width="309" height="39" as="geometry" />
        </mxCell>
        <mxCell id="Xtlks4UdEk3piKS54iS9-134" value="" style="rounded=1;whiteSpace=wrap;html=1;fillColor=#1C57CD;strokeColor=none;rotation=90;" parent="Xtlks4UdEk3piKS54iS9-133" vertex="1">
          <mxGeometry width="309" height="39" as="geometry" />
        </mxCell>
        <mxCell id="Xtlks4UdEk3piKS54iS9-135" value="" style="sketch=0;outlineConnect=0;fontColor=#FFFFFF;gradientColor=none;fillColor=#FFFFFF;strokeColor=none;dashed=0;verticalLabelPosition=bottom;verticalAlign=top;align=center;html=1;fontSize=12;fontStyle=0;aspect=fixed;pointerEvents=1;shape=mxgraph.aws4.gear;rounded=1;rotation=90;" parent="Xtlks4UdEk3piKS54iS9-133" vertex="1">
          <mxGeometry x="146" y="145" width="17" height="17" as="geometry" />
        </mxCell>
        <mxCell id="Xtlks4UdEk3piKS54iS9-136" value="Зарегистрироваться на площадке" style="text;html=1;align=center;verticalAlign=middle;whiteSpace=wrap;rounded=1;fontSize=13;fontColor=#FFFFFF;rotation=90;" parent="Xtlks4UdEk3piKS54iS9-133" vertex="1">
          <mxGeometry x="46" y="-32" width="218" height="30" as="geometry" />
        </mxCell>
        <mxCell id="Xtlks4UdEk3piKS54iS9-137" value="" style="group;rotation=90;" parent="1" vertex="1" connectable="0">
          <mxGeometry x="1440" y="80" width="309" height="39" as="geometry" />
        </mxCell>
        <mxCell id="Xtlks4UdEk3piKS54iS9-138" value="" style="group;rotation=90;" parent="Xtlks4UdEk3piKS54iS9-137" vertex="1" connectable="0">
          <mxGeometry width="309" height="39" as="geometry" />
        </mxCell>
        <mxCell id="Xtlks4UdEk3piKS54iS9-139" value="" style="rounded=1;whiteSpace=wrap;html=1;fillColor=#1C57CD;strokeColor=none;rotation=90;" parent="Xtlks4UdEk3piKS54iS9-138" vertex="1">
          <mxGeometry width="309" height="39" as="geometry" />
        </mxCell>
        <mxCell id="Xtlks4UdEk3piKS54iS9-140" value="" style="sketch=0;outlineConnect=0;fontColor=#FFFFFF;gradientColor=none;fillColor=#FFFFFF;strokeColor=none;dashed=0;verticalLabelPosition=bottom;verticalAlign=top;align=center;html=1;fontSize=12;fontStyle=0;aspect=fixed;pointerEvents=1;shape=mxgraph.aws4.gear;rounded=1;rotation=90;" parent="Xtlks4UdEk3piKS54iS9-138" vertex="1">
          <mxGeometry x="146" y="145" width="17" height="17" as="geometry" />
        </mxCell>
        <mxCell id="Xtlks4UdEk3piKS54iS9-141" value="Редактировать профиль" style="text;html=1;align=center;verticalAlign=middle;whiteSpace=wrap;rounded=1;fontSize=13;fontColor=#FFFFFF;rotation=90;" parent="Xtlks4UdEk3piKS54iS9-138" vertex="1">
          <mxGeometry x="73" y="-60" width="164" height="30" as="geometry" />
        </mxCell>
        <mxCell id="Xtlks4UdEk3piKS54iS9-142" value="" style="group;rotation=90;" parent="1" vertex="1" connectable="0">
          <mxGeometry x="1390" y="80" width="309" height="39" as="geometry" />
        </mxCell>
        <mxCell id="Xtlks4UdEk3piKS54iS9-143" value="" style="group;rotation=90;" parent="Xtlks4UdEk3piKS54iS9-142" vertex="1" connectable="0">
          <mxGeometry width="309" height="39" as="geometry" />
        </mxCell>
        <mxCell id="Xtlks4UdEk3piKS54iS9-144" value="" style="rounded=1;whiteSpace=wrap;html=1;fillColor=#1C57CD;strokeColor=none;rotation=90;" parent="Xtlks4UdEk3piKS54iS9-143" vertex="1">
          <mxGeometry width="309" height="39" as="geometry" />
        </mxCell>
        <mxCell id="Xtlks4UdEk3piKS54iS9-145" value="" style="sketch=0;outlineConnect=0;fontColor=#FFFFFF;gradientColor=none;fillColor=#FFFFFF;strokeColor=none;dashed=0;verticalLabelPosition=bottom;verticalAlign=top;align=center;html=1;fontSize=12;fontStyle=0;aspect=fixed;pointerEvents=1;shape=mxgraph.aws4.gear;rounded=1;rotation=90;" parent="Xtlks4UdEk3piKS54iS9-143" vertex="1">
          <mxGeometry x="146" y="145" width="17" height="17" as="geometry" />
        </mxCell>
        <mxCell id="Xtlks4UdEk3piKS54iS9-146" value="Разместить заказ" style="text;html=1;align=center;verticalAlign=middle;whiteSpace=wrap;rounded=1;fontSize=13;fontColor=#FFFFFF;rotation=90;" parent="Xtlks4UdEk3piKS54iS9-143" vertex="1">
          <mxGeometry x="98" y="-77" width="117" height="30" as="geometry" />
        </mxCell>
        <mxCell id="Xtlks4UdEk3piKS54iS9-147" value="" style="group;rotation=90;" parent="1" vertex="1" connectable="0">
          <mxGeometry x="1489.37" y="396" width="309" height="39" as="geometry" />
        </mxCell>
        <mxCell id="Xtlks4UdEk3piKS54iS9-148" value="" style="group;rotation=90;" parent="Xtlks4UdEk3piKS54iS9-147" vertex="1" connectable="0">
          <mxGeometry width="309" height="39" as="geometry" />
        </mxCell>
        <mxCell id="Xtlks4UdEk3piKS54iS9-149" value="" style="rounded=1;whiteSpace=wrap;html=1;fillColor=#1C57CD;strokeColor=none;rotation=90;" parent="Xtlks4UdEk3piKS54iS9-148" vertex="1">
          <mxGeometry width="309" height="39" as="geometry" />
        </mxCell>
        <mxCell id="Xtlks4UdEk3piKS54iS9-150" value="" style="sketch=0;outlineConnect=0;fontColor=#FFFFFF;gradientColor=none;fillColor=#FFFFFF;strokeColor=none;dashed=0;verticalLabelPosition=bottom;verticalAlign=top;align=center;html=1;fontSize=12;fontStyle=0;aspect=fixed;pointerEvents=1;shape=mxgraph.aws4.gear;rounded=1;rotation=90;" parent="Xtlks4UdEk3piKS54iS9-148" vertex="1">
          <mxGeometry x="146" y="145" width="17" height="17" as="geometry" />
        </mxCell>
        <mxCell id="Xtlks4UdEk3piKS54iS9-151" value="Разместить услугу" style="text;html=1;align=center;verticalAlign=middle;whiteSpace=wrap;rounded=1;fontSize=13;fontColor=#FFFFFF;rotation=90;" parent="Xtlks4UdEk3piKS54iS9-148" vertex="1">
          <mxGeometry x="89" y="-78" width="132" height="30" as="geometry" />
        </mxCell>
        <mxCell id="Xtlks4UdEk3piKS54iS9-152" value="" style="group;rotation=90;" parent="1" vertex="1" connectable="0">
          <mxGeometry x="1440.5" y="396" width="309" height="39" as="geometry" />
        </mxCell>
        <mxCell id="Xtlks4UdEk3piKS54iS9-153" value="" style="group;rotation=90;" parent="Xtlks4UdEk3piKS54iS9-152" vertex="1" connectable="0">
          <mxGeometry width="309" height="39" as="geometry" />
        </mxCell>
        <mxCell id="Xtlks4UdEk3piKS54iS9-154" value="" style="rounded=1;whiteSpace=wrap;html=1;fillColor=#1C57CD;strokeColor=none;rotation=90;" parent="Xtlks4UdEk3piKS54iS9-153" vertex="1">
          <mxGeometry width="309" height="39" as="geometry" />
        </mxCell>
        <mxCell id="Xtlks4UdEk3piKS54iS9-155" value="" style="sketch=0;outlineConnect=0;fontColor=#FFFFFF;gradientColor=none;fillColor=#FFFFFF;strokeColor=none;dashed=0;verticalLabelPosition=bottom;verticalAlign=top;align=center;html=1;fontSize=12;fontStyle=0;aspect=fixed;pointerEvents=1;shape=mxgraph.aws4.gear;rounded=1;rotation=90;" parent="Xtlks4UdEk3piKS54iS9-153" vertex="1">
          <mxGeometry x="146" y="145" width="17" height="17" as="geometry" />
        </mxCell>
        <mxCell id="Xtlks4UdEk3piKS54iS9-156" value="Создать аукцион" style="text;html=1;align=center;verticalAlign=middle;whiteSpace=wrap;rounded=1;fontSize=13;fontColor=#FFFFFF;rotation=90;" parent="Xtlks4UdEk3piKS54iS9-153" vertex="1">
          <mxGeometry x="100" y="-85" width="110" height="30" as="geometry" />
        </mxCell>
        <mxCell id="Xtlks4UdEk3piKS54iS9-157" value="" style="group;rotation=90;" parent="1" vertex="1" connectable="0">
          <mxGeometry x="1390" y="396" width="309" height="39" as="geometry" />
        </mxCell>
        <mxCell id="Xtlks4UdEk3piKS54iS9-158" value="" style="group;rotation=90;" parent="Xtlks4UdEk3piKS54iS9-157" vertex="1" connectable="0">
          <mxGeometry width="309" height="39" as="geometry" />
        </mxCell>
        <mxCell id="Xtlks4UdEk3piKS54iS9-159" value="" style="rounded=1;whiteSpace=wrap;html=1;fillColor=#1C57CD;strokeColor=none;rotation=90;" parent="Xtlks4UdEk3piKS54iS9-158" vertex="1">
          <mxGeometry width="309" height="39" as="geometry" />
        </mxCell>
        <mxCell id="Xtlks4UdEk3piKS54iS9-160" value="" style="sketch=0;outlineConnect=0;fontColor=#FFFFFF;gradientColor=none;fillColor=#FFFFFF;strokeColor=none;dashed=0;verticalLabelPosition=bottom;verticalAlign=top;align=center;html=1;fontSize=12;fontStyle=0;aspect=fixed;pointerEvents=1;shape=mxgraph.aws4.gear;rounded=1;rotation=90;" parent="Xtlks4UdEk3piKS54iS9-158" vertex="1">
          <mxGeometry x="146" y="145" width="17" height="17" as="geometry" />
        </mxCell>
        <mxCell id="Xtlks4UdEk3piKS54iS9-161" value="Подать заявку на аукцион" style="text;html=1;align=center;verticalAlign=middle;whiteSpace=wrap;rounded=1;fontSize=13;fontColor=#FFFFFF;rotation=90;" parent="Xtlks4UdEk3piKS54iS9-158" vertex="1">
          <mxGeometry x="71" y="-56" width="167" height="30" as="geometry" />
        </mxCell>
      </root>
    </mxGraphModel>
  </diagram>
</mxfile>
